<svg width="250" height="370" viewBox="0 0 250 370" fill="none" xmlns="http://www.w3.org/2000/svg">
<path d="M135.115 370H87.352L0 320.365L59.1627 286.747V315.871L125.425 353.522L135.115 370Z" fill="#25306C"/>
<path d="M148.391 227.17L143.64 224.473L153.322 218.973L158.07 221.67L148.391 227.17Z" fill="#E9EFF9"/>
<path d="M148.391 270.568L143.64 267.871V224.473L148.391 227.17V270.568Z" fill="#A1AABE"/>
<path d="M158.069 265.068L148.391 270.568V227.17L158.069 221.669V265.068Z" fill="#BBC1CD"/>
<path d="M159.942 233.734L155.192 231.034L164.874 225.534L169.621 228.234L159.942 233.734Z" fill="#E9EFF9"/>
<path d="M159.942 277.133L155.192 274.433V231.034L159.942 233.734V277.133Z" fill="#A1AABE"/>
<path d="M169.621 271.632L159.942 277.133V233.734L169.621 228.234V271.632Z" fill="#BBC1CD"/>
<path d="M171.491 240.298L166.743 237.598L176.425 232.098L181.172 234.798L171.491 240.298Z" fill="#E9EFF9"/>
<path d="M171.491 283.694L166.743 280.997V237.598L171.491 240.298V283.694Z" fill="#A1AABE"/>
<path d="M181.172 278.193L171.49 283.694V240.298L181.172 234.798V278.193Z" fill="#BBC1CD"/>
<path d="M183.042 246.86L178.295 244.163L187.973 238.663L192.724 241.36L183.042 246.86Z" fill="#E9EFF9"/>
<path d="M183.042 290.258L178.295 287.561V244.163L183.042 246.859V290.258Z" fill="#A1AABE"/>
<path d="M192.724 284.758L183.042 290.258V246.859L192.724 241.359V284.758Z" fill="#BBC1CD"/>
<path d="M194.593 253.424L189.846 250.727L199.525 245.227L204.275 247.923L194.593 253.424Z" fill="#E9EFF9"/>
<path d="M194.593 296.822L189.846 294.125V250.726L194.593 253.423V296.822Z" fill="#A1AABE"/>
<path d="M204.275 291.322L194.594 296.822V253.423L204.275 247.923V291.322Z" fill="#BBC1CD"/>
<path d="M206.145 259.988L201.398 257.288L211.076 251.791L215.824 254.488L206.145 259.988Z" fill="#E9EFF9"/>
<path d="M206.145 303.386L201.398 300.686V257.288L206.145 259.987V303.386Z" fill="#A1AABE"/>
<path d="M215.824 297.886L206.145 303.386V259.987L215.824 254.487V297.886Z" fill="#BBC1CD"/>
<path d="M217.696 266.551L212.949 263.851L222.628 258.351L227.375 261.051L217.696 266.551Z" fill="#E9EFF9"/>
<path d="M217.696 309.947L212.949 307.25V263.852L217.696 266.551V309.947Z" fill="#A1AABE"/>
<path d="M227.375 304.45L217.697 309.947V266.551L227.375 261.051V304.45Z" fill="#BBC1CD"/>
<path d="M229.248 273.113L224.498 270.416L234.179 264.916L238.927 267.613L229.248 273.113Z" fill="#E9EFF9"/>
<path d="M229.248 316.511L224.498 313.814V270.415L229.248 273.112V316.511Z" fill="#A1AABE"/>
<path d="M238.927 311.011L229.248 316.511V273.112L238.927 267.612V311.011Z" fill="#BBC1CD"/>
<path d="M144.759 321.109L59.163 272.471L143.664 224.458L229.26 273.095L144.759 321.109Z" fill="#E9EFF9"/>
<path d="M144.759 364.508L59.163 315.87V272.471L144.759 321.109V364.508Z" fill="#A1AABE"/>
<path d="M229.26 316.494L144.759 364.508V321.109L229.26 273.095V316.494Z" fill="#BBC1CD"/>
<path d="M54.2578 280.658L49.5074 277.961L59.1892 272.46L63.9366 275.157L54.2578 280.658Z" fill="#E9EFF9"/>
<path d="M54.2578 324.057L49.5074 321.357V277.961L54.2578 280.658V324.057Z" fill="#A1AABE"/>
<path d="M63.9366 318.556L54.2577 324.057V280.658L63.9366 275.157V318.556Z" fill="#BBC1CD"/>
<path d="M65.8092 287.222L61.0588 284.522L70.7406 279.022L75.488 281.721L65.8092 287.222Z" fill="#E9EFF9"/>
<path d="M65.8092 330.621L61.0588 327.921V284.522L65.8092 287.222V330.621Z" fill="#A1AABE"/>
<path d="M75.4879 325.12L65.8091 330.621V287.222L75.4879 281.721V325.12Z" fill="#BBC1CD"/>
<path d="M77.3577 293.783L72.6103 291.086L82.2891 285.586L87.0394 288.283L77.3577 293.783Z" fill="#E9EFF9"/>
<path d="M77.3577 337.182L72.6103 334.485V291.086L77.3577 293.783V337.182Z" fill="#A1AABE"/>
<path d="M87.0396 331.681L77.3578 337.182V293.783L87.0396 288.283V331.681Z" fill="#BBC1CD"/>
<path d="M88.9091 300.347L84.1617 297.65L93.8405 292.15L98.5908 294.847L88.9091 300.347Z" fill="#E9EFF9"/>
<path d="M88.9091 343.746L84.1617 341.049V297.65L88.9091 300.347V343.746Z" fill="#A1AABE"/>
<path d="M98.591 338.245L88.9092 343.746V300.347L98.591 294.846V338.245Z" fill="#BBC1CD"/>
<path d="M100.461 306.911L95.7132 304.214L105.392 298.714L110.139 301.411L100.461 306.911Z" fill="#E9EFF9"/>
<path d="M100.461 350.31L95.7132 347.61V304.214L100.461 306.911V350.31Z" fill="#A1AABE"/>
<path d="M110.14 344.81L100.461 350.31V306.911L110.14 301.411V344.81Z" fill="#BBC1CD"/>
<path d="M112.012 313.475L107.265 310.775L116.943 305.275L121.691 307.975L112.012 313.475Z" fill="#E9EFF9"/>
<path d="M112.012 356.875L107.265 354.175V310.776L112.012 313.476V356.875Z" fill="#A1AABE"/>
<path d="M121.691 351.374L112.012 356.875V313.476L121.691 307.975V351.374Z" fill="#BBC1CD"/>
<path d="M123.564 320.037L118.817 317.34L128.495 311.84L133.243 314.537L123.564 320.037Z" fill="#E9EFF9"/>
<path d="M123.564 363.436L118.817 360.739V317.34L123.564 320.037V363.436Z" fill="#A1AABE"/>
<path d="M133.243 357.935L123.564 363.436V320.037L133.243 314.536V357.935Z" fill="#BBC1CD"/>
<path d="M135.116 326.601L130.365 323.904L140.047 318.404L144.794 321.101L135.116 326.601Z" fill="#E9EFF9"/>
<path d="M135.116 370L130.365 367.303V323.904L135.116 326.601V370Z" fill="#A1AABE"/>
<path d="M144.794 364.5L135.116 370V326.601L144.794 321.101V364.5Z" fill="#BBC1CD"/>
<path d="M136.173 310.534C134.376 310.505 132.597 310.1 131.23 309.324L71.0385 275.123C68.1783 273.498 68.1638 270.859 71.0064 269.234L76.5863 266.043L76.5834 272.216C76.5805 273.288 77.2992 274.364 78.7366 275.18L138.928 309.381C140.032 310.008 141.402 310.393 142.834 310.534H136.173ZM144.09 300.06C144.093 300.06 144.096 300.06 144.099 300.06C144.096 300.06 144.093 300.06 144.09 300.06ZM144.075 300.06C142.246 300.057 140.421 299.669 139.012 298.889C140.421 299.669 142.246 300.057 144.075 300.06ZM149.059 298.944C149.124 298.91 149.185 298.875 149.249 298.841L205.008 266.948L149.249 298.841C149.185 298.875 149.124 298.91 149.059 298.944ZM210.872 273.398C211.059 273.027 211.155 272.641 211.155 272.256V271.813C211.24 272.345 211.146 272.883 210.872 273.398Z" fill="#A9B1C4"/>
<path d="M179.726 248.23L153.179 233.147C147.195 229.746 137.409 229.757 131.434 233.176L105.237 248.159C92.2631 255.58 92.2806 267.69 105.275 275.074L131.805 290.146C137.794 293.55 147.587 293.536 153.567 290.117L179.764 275.134C192.732 267.716 192.715 255.611 179.726 248.23Z" fill="#1C181B"/>
<path d="M106.292 254.691C113.079 255.01 126.886 256.448 137.85 262.679L142.498 260.039C142.498 260.039 138.116 251.135 125.732 244.062C123.409 242.736 119.804 242.408 116.906 243.294C110.324 245.312 105.991 249.605 103.812 252.285C102.936 253.363 104.212 254.594 106.292 254.691Z" fill="url(#paint0_linear_4_15156)"/>
<path d="M106.511 272.302C105.416 271.054 104.525 269.761 103.835 268.444L122.325 266.655L122.81 266.931C115.369 268.461 109.751 270.752 106.511 272.302ZM102.486 264.887C102.296 264.105 102.176 263.314 102.123 262.524C102.243 260.836 102.678 259.154 103.426 257.509C104.078 257.319 104.782 257.181 105.515 257.104L116.783 263.507L102.486 264.887Z" fill="url(#paint1_linear_4_15156)"/>
<path d="M128.586 283.976C122.977 282.581 118.258 280.721 114.431 278.547C112.226 277.291 110.315 275.933 108.699 274.499C108.991 274.237 109.336 273.996 109.731 273.771C114.399 271.132 119.52 269.134 124.098 267.664L134.163 273.383C130.491 277.406 129.103 281.345 128.586 283.976Z" fill="url(#paint2_linear_4_15156)"/>
<path d="M144.017 286.006C140.731 286.006 137.441 285.727 134.277 285.175C133.707 285.077 133.147 284.971 132.591 284.864C132.571 284.735 132.559 284.603 132.562 284.471C132.58 280.575 133.807 276.972 135.297 274.028L138.928 276.089C140.351 276.897 142.218 277.303 144.084 277.303C145.954 277.303 147.821 276.897 149.244 276.083L150.088 275.6C152.53 279.364 156.022 282.291 158.66 284.16C157.091 284.534 155.455 284.873 153.749 285.169C150.588 285.727 147.304 286.006 144.017 286.006ZM144.09 272.639C144.093 272.639 144.096 272.636 144.099 272.636C144.096 272.636 144.093 272.639 144.09 272.639ZM144.076 272.636C142.247 272.636 140.421 272.245 139.013 271.469C140.421 272.245 142.247 272.636 144.076 272.636Z" fill="url(#paint3_linear_4_15156)"/>
<path d="M162.524 283.127C162.349 283.044 162.18 282.955 162.016 282.863C157.458 280.258 153.985 277.406 151.414 274.841L154.879 272.86L167.4 281.451C165.872 282.052 164.245 282.613 162.524 283.127ZM171.528 279.611L158.589 270.738L161.551 269.045C169.34 271.31 176.918 272.018 181.426 272.23C179.095 274.947 175.794 277.463 171.528 279.611ZM149.059 271.523C149.123 271.489 149.185 271.454 149.249 271.417L151.174 270.315L149.249 271.417C149.185 271.454 149.123 271.489 149.059 271.523Z" fill="url(#paint4_linear_4_15156)"/>
<path d="M180.863 269.89C180.857 269.89 180.851 269.89 180.845 269.89C174.099 269.881 167.853 269.205 162.717 268.377L183.673 256.39C184.83 258.463 185.481 260.605 185.624 262.756C185.455 265.097 184.684 267.426 183.314 269.66C182.539 269.809 181.713 269.89 180.863 269.89ZM185.052 257.722V257.719V257.722ZM185.04 257.684V257.681C185.04 257.684 185.04 257.684 185.04 257.684ZM185.029 257.65C185.029 257.647 185.029 257.647 185.029 257.644C185.029 257.647 185.029 257.647 185.029 257.65ZM185.017 257.612V257.609V257.612ZM185.008 257.575C185.005 257.575 185.005 257.572 185.005 257.572C185.005 257.575 185.005 257.575 185.008 257.575ZM184.996 257.54C184.996 257.538 184.993 257.538 184.993 257.535C184.993 257.538 184.996 257.538 184.996 257.54ZM184.985 257.503C184.985 257.503 184.982 257.5 184.982 257.497C184.982 257.5 184.985 257.503 184.985 257.503ZM184.973 257.469C184.973 257.466 184.97 257.463 184.97 257.463C184.97 257.463 184.973 257.466 184.973 257.469ZM184.961 257.431C184.961 257.428 184.958 257.428 184.958 257.425C184.958 257.428 184.961 257.428 184.961 257.431ZM184.95 257.397C184.95 257.394 184.947 257.391 184.947 257.388C184.947 257.391 184.95 257.394 184.95 257.397ZM184.938 257.359C184.938 257.356 184.935 257.354 184.935 257.351C184.935 257.354 184.938 257.356 184.938 257.359ZM184.926 257.325C184.923 257.322 184.923 257.319 184.923 257.316C184.923 257.319 184.923 257.319 184.926 257.325ZM184.915 257.287C184.912 257.285 184.912 257.282 184.912 257.279C184.912 257.282 184.912 257.285 184.915 257.287ZM184.9 257.25C184.9 257.247 184.9 257.244 184.9 257.244C184.9 257.244 184.9 257.247 184.9 257.25ZM184.874 257.172C184.874 257.172 184.874 257.172 184.874 257.17V257.172ZM184.85 257.101C184.85 257.101 184.85 257.098 184.847 257.098C184.85 257.098 184.85 257.101 184.85 257.101ZM184.824 257.026C184.821 257.023 184.821 257.017 184.818 257.014C184.821 257.017 184.821 257.023 184.824 257.026ZM184.809 256.988C184.809 256.986 184.806 256.98 184.804 256.974C184.806 256.98 184.809 256.983 184.809 256.988ZM184.798 256.954C184.795 256.948 184.795 256.942 184.792 256.937C184.795 256.942 184.795 256.948 184.798 256.954ZM184.783 256.917C184.783 256.911 184.78 256.908 184.78 256.902C184.78 256.908 184.783 256.911 184.783 256.917ZM184.771 256.882C184.768 256.876 184.766 256.871 184.766 256.862C184.766 256.871 184.768 256.876 184.771 256.882ZM184.76 256.848C184.757 256.839 184.754 256.833 184.751 256.825C184.754 256.833 184.757 256.839 184.76 256.848ZM184.745 256.81C184.742 256.804 184.739 256.796 184.736 256.79C184.739 256.796 184.742 256.804 184.745 256.81ZM184.731 256.776C184.728 256.767 184.728 256.761 184.725 256.753C184.728 256.761 184.728 256.767 184.731 256.776ZM184.719 256.738C184.716 256.733 184.713 256.724 184.71 256.715C184.713 256.724 184.716 256.733 184.719 256.738ZM184.704 256.704C184.701 256.695 184.698 256.689 184.695 256.681C184.698 256.689 184.701 256.695 184.704 256.704ZM184.693 256.669C184.69 256.661 184.687 256.652 184.684 256.646C184.687 256.652 184.69 256.661 184.693 256.669ZM184.678 256.632C184.675 256.626 184.672 256.617 184.669 256.609C184.672 256.617 184.675 256.626 184.678 256.632ZM184.663 256.597C184.66 256.589 184.657 256.58 184.655 256.572C184.657 256.58 184.66 256.589 184.663 256.597ZM184.652 256.563C184.646 256.554 184.643 256.546 184.64 256.537C184.643 256.546 184.646 256.554 184.652 256.563ZM184.637 256.528C184.634 256.517 184.628 256.508 184.625 256.5C184.628 256.508 184.634 256.52 184.637 256.528ZM184.622 256.494C184.619 256.482 184.617 256.474 184.611 256.465C184.617 256.474 184.619 256.482 184.622 256.494ZM184.608 256.456C184.605 256.448 184.602 256.439 184.596 256.428C184.602 256.439 184.605 256.448 184.608 256.456ZM184.596 256.422C184.59 256.413 184.587 256.402 184.582 256.393C184.587 256.402 184.59 256.413 184.596 256.422ZM184.582 256.387C184.576 256.376 184.573 256.367 184.567 256.356C184.573 256.367 184.576 256.379 184.582 256.387ZM184.567 256.353C184.561 256.342 184.558 256.333 184.555 256.321C184.558 256.333 184.561 256.342 184.567 256.353ZM184.552 256.318C184.546 256.307 184.544 256.296 184.538 256.287C184.544 256.296 184.546 256.307 184.552 256.318ZM184.538 256.284C184.535 256.273 184.529 256.261 184.523 256.249C184.529 256.261 184.535 256.273 184.538 256.284ZM184.523 256.249C184.485 256.157 184.447 256.065 184.406 255.973C184.447 256.065 184.485 256.155 184.523 256.249Z" fill="url(#paint5_linear_4_15156)"/>
<path d="M159.308 242.106C158.747 245.965 156.217 253.809 145.25 260.039L149.898 262.679C149.898 262.679 165.569 260.189 178.017 253.153C180.351 251.833 180.927 249.786 179.364 248.139C175.814 244.398 168.259 241.937 163.544 240.698C161.648 240.2 159.48 240.925 159.308 242.106Z" fill="url(#paint6_linear_4_15156)"/>
<path d="M128.215 242.162C132.615 245.114 140.587 251.679 140.587 260.488H147.161C147.161 260.488 155.142 252.432 155.189 242.455C155.197 240.583 153.056 238.904 149.901 238.366C142.735 237.147 134.329 238.444 129.454 239.462C127.493 239.873 126.865 241.256 128.215 242.162Z" fill="url(#paint7_linear_4_15156)"/>
<path d="M149.76 254.806L149.755 256.684L159.618 241.422L159.623 239.544L149.76 254.806Z" fill="#BBC1CD"/>
<path d="M102.123 262.523C101.977 260.289 102.377 258.044 103.33 255.862L104.051 256.273C103.823 256.681 103.613 257.095 103.426 257.509C102.678 259.154 102.243 260.836 102.123 262.523Z" fill="url(#paint8_linear_4_15156)"/>
<path d="M173.325 244.861C169.6 242.744 165.031 240.927 159.624 239.544L159.618 241.422C165.025 242.805 169.598 244.622 173.319 246.738C181.558 251.419 185.671 257.561 185.654 263.696L185.66 261.819C185.677 255.683 181.564 249.541 173.325 244.861Z" fill="#A1AABE"/>
<path d="M130.441 262.187L130.435 264.064L130.403 263.524L130.408 261.646L130.441 262.187Z" fill="#999A99"/>
<path d="M100.832 265.887L103.026 268.521L131.011 265.815L131.697 262.287L100.832 265.887Z" fill="#BBC1CD"/>
<path d="M157.351 261.744L157.345 263.622C157.339 265.698 155.849 267.636 153.372 269.042L153.378 267.164C155.855 265.755 157.345 263.82 157.351 261.744Z" fill="#BBC1CD"/>
<path d="M146.17 269.274C141.703 269.706 137.373 268.829 134.388 267.132C132.857 266.261 131.677 265.174 131.016 263.938L131.01 265.815C131.671 267.052 132.851 268.139 134.382 269.01C137.368 270.706 141.7 271.583 146.164 271.152C147.902 270.988 149.498 270.631 150.914 270.14L150.92 268.262C149.503 268.754 147.908 269.11 146.17 269.274Z" fill="#A1AABE"/>
<path d="M150.92 268.262L150.914 270.14L169.109 282.621L169.112 280.744L150.92 268.262Z" fill="#A1AABE"/>
<path d="M171.528 279.611L153.377 267.164C156.375 265.459 157.929 262.98 157.152 260.416C156.664 258.788 155.3 257.368 153.389 256.284C152.331 255.68 151.101 255.183 149.761 254.806L159.623 239.544C165.031 240.927 169.6 242.745 173.325 244.861C190.34 254.527 189.758 270.433 171.528 279.611ZM153.748 285.169C147.429 286.284 140.608 286.279 134.277 285.174C126.105 283.743 119.491 281.419 114.431 278.547C108.468 275.157 104.668 271.002 103.032 266.644L131.016 263.938C131.677 265.174 132.857 266.261 134.388 267.132C137.374 268.829 141.703 269.706 146.17 269.274C147.908 269.11 149.504 268.754 150.92 268.262L169.112 280.744C164.824 282.604 159.699 284.128 153.748 285.169ZM134.008 238.228C140.327 237.123 147.149 237.118 153.48 238.233C154.593 238.426 155.668 238.639 156.731 238.872L146.81 254.211C145.139 253.998 143.383 253.958 141.575 254.128C134.718 254.789 129.973 258.311 130.441 262.187L102.485 264.887C99.8706 254.036 110.35 242.377 134.008 238.228ZM209.014 258.762L148.823 224.562C145.966 222.937 141.347 222.931 138.507 224.556L78.7074 258.757C75.8678 260.381 75.8824 263.021 78.7425 264.645L138.931 298.846C141.782 300.465 146.407 300.465 149.249 298.84L209.046 264.64C211.877 263.021 211.862 260.381 209.014 258.762Z" fill="#E9EFF9"/>
<path d="M144.084 310.594C143.667 310.594 143.249 310.574 142.834 310.534C141.402 310.393 140.032 310.008 138.928 309.381L78.737 275.18C77.2996 274.363 76.5809 273.288 76.5838 272.216L76.5867 266.042V262.572V261.681C76.5867 261.954 76.6335 262.224 76.724 262.494C76.9957 263.282 77.6677 264.036 78.7428 264.645L78.886 264.726L138.931 298.846C138.96 298.86 138.986 298.875 139.013 298.889C140.421 299.668 142.247 300.057 144.076 300.059C144.079 300.059 144.084 300.059 144.09 300.059C144.093 300.059 144.096 300.059 144.099 300.059C145.884 300.057 147.666 299.686 149.06 298.944C149.124 298.909 149.185 298.875 149.25 298.84L205.009 266.948L209.046 264.639C209.058 264.634 209.07 264.625 209.081 264.619C209.084 264.619 209.087 264.616 209.09 264.613C209.096 264.611 209.105 264.605 209.113 264.599C209.116 264.599 209.116 264.599 209.119 264.596C209.128 264.59 209.137 264.588 209.146 264.582C209.151 264.579 209.157 264.573 209.163 264.57C209.169 264.567 209.172 264.565 209.178 264.562C209.183 264.559 209.192 264.553 209.198 264.55C209.204 264.547 209.207 264.544 209.21 264.542C209.216 264.539 209.224 264.533 209.23 264.53C209.236 264.527 209.239 264.524 209.242 264.524C209.248 264.519 209.257 264.513 209.265 264.51C209.268 264.507 209.271 264.507 209.271 264.504C209.28 264.498 209.289 264.493 209.297 264.49C209.3 264.487 209.3 264.487 209.303 264.484C209.312 264.478 209.321 264.473 209.33 264.467C209.332 264.467 209.333 264.467 209.333 264.464C209.341 264.461 209.35 264.455 209.359 264.45C209.362 264.447 209.362 264.447 209.365 264.447C209.373 264.441 209.382 264.435 209.391 264.429C209.391 264.427 209.394 264.427 209.394 264.427C209.403 264.421 209.411 264.415 209.42 264.409C209.423 264.406 209.423 264.406 209.426 264.406C209.444 264.392 209.464 264.381 209.484 264.366C209.502 264.352 209.522 264.34 209.54 264.326H209.543C209.56 264.312 209.581 264.3 209.598 264.286C210.487 263.647 210.995 262.891 211.126 262.118C211.126 262.118 211.126 262.118 211.126 262.115C211.129 262.109 211.129 262.1 211.132 262.092C211.132 262.083 211.132 262.077 211.135 262.069C211.135 262.066 211.135 262.066 211.135 262.063C211.135 262.057 211.138 262.052 211.138 262.046C211.138 262.043 211.138 262.04 211.138 262.037C211.141 262.031 211.141 262.026 211.141 262.02C211.141 262.017 211.141 262.014 211.141 262.011C211.144 262.006 211.144 262 211.144 261.997C211.144 261.991 211.144 261.988 211.147 261.986C211.147 261.98 211.147 261.977 211.147 261.971C211.147 261.968 211.147 261.962 211.15 261.96C211.15 261.954 211.15 261.951 211.15 261.948C211.15 261.942 211.15 261.937 211.15 261.931C211.153 261.928 211.153 261.925 211.153 261.922C211.153 261.916 211.153 261.911 211.153 261.905C211.153 261.902 211.153 261.902 211.153 261.899C211.156 261.891 211.155 261.885 211.155 261.876C211.155 261.876 211.155 261.876 211.155 261.873C211.158 261.824 211.161 261.773 211.161 261.721V262.811L211.155 271.813V272.256C211.155 272.641 211.059 273.026 210.872 273.397C210.548 274.05 209.937 274.662 209.043 275.174L149.244 309.375C147.821 310.189 145.954 310.594 144.084 310.594Z" fill="url(#paint9_linear_4_15156)"/>
<path d="M206.148 262.555C205.286 263.044 203.89 263.044 203.028 262.555C202.166 262.066 202.166 261.272 203.028 260.784C203.89 260.295 205.286 260.295 206.148 260.784C207.007 261.272 207.007 262.066 206.148 262.555Z" fill="#241D25"/>
<path d="M145.746 294.551C144.884 294.062 143.488 294.062 142.626 294.551C141.767 295.039 141.767 295.833 142.626 296.322C143.488 296.813 144.884 296.813 145.746 296.322C146.605 295.833 146.605 295.039 145.746 294.551Z" fill="#241D25"/>
<path d="M145.746 226.652C144.884 226.164 143.488 226.164 142.626 226.652C141.767 227.141 141.767 227.935 142.626 228.423C143.488 228.912 144.884 228.912 145.746 228.423C146.605 227.935 146.605 227.141 145.746 226.652Z" fill="#241D25"/>
<path d="M85.7075 260.784C84.8456 260.295 83.4492 260.295 82.5903 260.784C81.7285 261.272 81.7285 262.066 82.5903 262.555C83.4492 263.044 84.8456 263.044 85.7075 262.555C86.5693 262.066 86.5693 261.272 85.7075 260.784Z" fill="#241D25"/>
<path d="M209.014 231.341L148.823 197.14C145.966 195.516 141.347 195.51 138.507 197.135L78.7074 231.336C75.8678 232.96 75.8824 235.6 78.7425 237.224L138.931 271.422C141.782 273.044 146.407 273.044 149.249 271.416L209.046 237.215C211.877 235.597 211.862 232.96 209.014 231.341Z" fill="#E9EFF9"/>
<path d="M144.09 267.745C142.843 267.745 141.893 267.458 141.417 267.187L85.5935 235.465C84.6557 234.933 84.6557 233.605 85.5906 233.07L141.005 201.365C141.472 201.097 142.413 200.812 143.649 200.812C144.896 200.812 145.858 201.103 146.34 201.376L202.154 233.093C203.092 233.625 203.095 234.953 202.16 235.488L146.752 267.19C146.281 267.458 145.335 267.745 144.09 267.745Z" fill="#2845A1"/>
<path d="M144.084 277.302C142.218 277.302 140.351 276.896 138.928 276.088L135.297 274.027L134.163 273.383L124.099 267.664L122.81 266.931L122.325 266.655L119.5 265.05L116.783 263.506L105.515 257.103L104.051 256.272L103.33 255.861L93.5196 250.286L78.737 241.887C77.2996 241.071 76.5809 239.996 76.5838 238.923L76.5867 234.259C76.5838 235.332 77.3025 236.404 78.7428 237.224L97.6126 247.946L138.931 271.422C138.96 271.439 138.986 271.454 139.013 271.468C140.421 272.244 142.247 272.635 144.076 272.635C144.079 272.635 144.084 272.638 144.09 272.638C144.093 272.638 144.096 272.635 144.099 272.635C145.884 272.635 147.666 272.264 149.06 271.523C149.124 271.488 149.185 271.454 149.25 271.416L151.175 270.315L209.046 237.215C210.232 236.537 210.919 235.68 211.109 234.794C211.109 234.786 211.112 234.777 211.112 234.768H211.115C211.115 234.76 211.118 234.754 211.118 234.745V234.743C211.12 234.734 211.12 234.728 211.123 234.722C211.123 234.72 211.123 234.717 211.123 234.717C211.123 234.708 211.126 234.702 211.126 234.696C211.126 234.694 211.126 234.691 211.129 234.688C211.129 234.682 211.129 234.679 211.129 234.674C211.132 234.671 211.132 234.665 211.132 234.662C211.132 234.659 211.132 234.653 211.135 234.648C211.135 234.645 211.135 234.642 211.135 234.636C211.135 234.633 211.138 234.627 211.138 234.625C211.138 234.619 211.138 234.616 211.141 234.61C211.141 234.607 211.141 234.605 211.141 234.599C211.141 234.596 211.141 234.59 211.144 234.584C211.144 234.582 211.144 234.579 211.144 234.576C211.144 234.57 211.147 234.564 211.147 234.558C211.147 234.556 211.147 234.553 211.147 234.55C211.147 234.544 211.147 234.538 211.15 234.53V234.527C211.15 234.518 211.15 234.513 211.153 234.504C211.153 234.495 211.153 234.487 211.153 234.478C211.158 234.418 211.161 234.36 211.161 234.3L211.155 238.963C211.153 240.021 210.448 241.077 209.043 241.882L194.223 250.358L184.407 255.973L183.673 256.39L162.718 268.377L161.552 269.044L158.59 270.738L156.375 272.003L154.879 272.86L151.414 274.841L150.088 275.6L149.244 276.083C147.821 276.896 145.954 277.302 144.084 277.302Z" fill="url(#paint10_linear_4_15156)"/>
<path d="M220.092 301.066L154.68 338.234V322.947L220.092 285.779V301.066Z" fill="#221C23"/>
<path d="M202.82 234.62V234.617V234.62ZM202.82 234.611C202.823 234.608 202.823 234.605 202.823 234.605C202.823 234.605 202.823 234.608 202.82 234.611ZM202.823 234.602C202.823 234.6 202.826 234.597 202.826 234.594C202.826 234.597 202.823 234.6 202.823 234.602ZM202.826 234.594C202.85 234.485 202.861 234.375 202.858 234.269L204.237 228.628H204.24L202.858 234.277C202.858 234.384 202.85 234.49 202.826 234.594Z" fill="url(#paint11_linear_4_15156)"/>
<path d="M144.09 267.745C143.523 267.745 143.021 267.685 142.594 267.596C143.021 267.685 143.523 267.745 144.087 267.745C145.334 267.745 146.278 267.458 146.748 267.19L202.157 235.488C202.627 235.218 202.861 234.746 202.855 234.277L202.858 234.269C202.861 234.375 202.849 234.484 202.826 234.594C202.826 234.597 202.823 234.599 202.823 234.602C202.823 234.602 202.823 234.602 202.823 234.605C202.823 234.605 202.823 234.608 202.82 234.611C202.82 234.611 202.82 234.614 202.82 234.617V234.62C202.817 234.622 202.817 234.625 202.817 234.628C202.73 234.97 202.51 235.287 202.16 235.488L146.751 267.19C146.281 267.458 145.334 267.745 144.09 267.745Z" fill="url(#paint12_linear_4_15156)"/>
<path d="M137.726 220.881L96.2536 166.21C96.0462 166.677 95.8264 167.137 95.4563 167.487L135.59 220.086C136.488 221.263 137.811 222.049 139.278 222.277L137.726 220.881Z" fill="#1C181B"/>
<path d="M99.8386 168.366L100.907 202.869L130.514 184.255L99.8386 168.366Z" fill="#1C181B"/>
<path d="M94.824 166.209L84.5535 190.522C84.4435 190.781 84.5115 191.111 84.7062 191.26L99.8386 202.869V172.486L94.824 166.209Z" fill="#1C181B"/>
<path d="M99.8386 198.556L84.5009 188.063L94.8524 166.209C94.8827 166.268 94.9153 166.324 94.9511 166.379L99.8386 174.015V198.556Z" fill="#261F28"/>
<path d="M99.8386 171.778L95.123 166.21L84.5009 189.931L99.8386 178.832V171.778Z" fill="#1C181B"/>
<path d="M139.303 222.082C138.889 222.082 138.459 221.949 138.087 221.706C137.975 221.632 137.869 221.548 137.77 221.456C137.683 221.373 137.601 221.283 137.527 221.187L115.262 192.302L102.759 176.083L102.169 175.318L96.634 168.136C96.5935 168.084 96.5566 168.031 96.5222 167.976C96.3763 167.749 96.2849 167.51 96.2456 167.274C96.1804 166.879 96.2601 166.495 96.4779 166.19L97.2022 165.179C96.8277 165.708 96.867 166.476 97.3625 167.12L138.255 220.169C138.696 220.741 139.384 221.065 140.032 221.065C140.33 221.065 140.62 220.997 140.873 220.852L214.734 178.766C214.917 178.664 215.064 178.529 215.175 178.374L214.629 179.139L214.452 179.386C214.339 179.543 214.19 179.679 214.006 179.784L140.145 221.87C139.891 222.013 139.601 222.082 139.303 222.082Z" fill="url(#paint13_linear_4_15156)"/>
<path d="M213.376 174.025L193.323 147.899L173.296 121.806C172.664 120.985 171.512 120.683 170.725 121.133L98.3313 162.56C97.5431 163.01 97.4186 164.042 98.0501 164.865L138.13 217.082C138.761 217.905 139.908 218.205 140.696 217.755L213.089 176.328C213.877 175.878 214.007 174.847 213.376 174.025Z" fill="#E9EFF9"/>
<path d="M139.754 217.964C139.224 217.964 138.683 217.687 138.341 217.242L97.9661 164.569C97.7062 164.23 97.5981 163.838 97.6685 163.49C97.7235 163.221 97.88 163.004 98.1219 162.866L171.049 121.079C171.225 120.978 171.438 120.925 171.666 120.925C172.199 120.925 172.742 121.202 173.084 121.648L213.46 174.321C213.718 174.657 213.825 175.049 213.755 175.394C213.7 175.665 213.542 175.883 213.298 176.022L140.371 217.809C140.195 217.909 139.981 217.964 139.754 217.964Z" fill="#293E90"/>
<path d="M187.629 141.395C187.328 142.312 187.498 143.316 188.085 144.083L193.264 150.859L198.939 158.277C199.393 158.871 200.058 159.271 200.797 159.396L202.82 159.74L195.185 149.759L187.978 140.332L187.629 141.395Z" fill="#1C181B"/>
<path d="M175.194 119.2C175.002 119.2 174.823 119.243 174.676 119.326L100.647 161.857C100.454 161.968 100.334 162.132 100.289 162.35C100.231 162.641 100.326 162.978 100.551 163.274L141.538 216.884C141.845 217.285 142.328 217.533 142.799 217.533C142.992 217.533 143.171 217.488 143.317 217.405L217.347 174.874C217.541 174.763 217.662 174.595 217.707 174.379C217.766 174.088 217.671 173.752 217.448 173.458L176.46 119.848C176.154 119.448 175.669 119.2 175.194 119.2ZM142.799 217.964C142.195 217.964 141.579 217.65 141.193 217.144L100.206 163.534C99.9051 163.14 99.7807 162.676 99.8638 162.265C99.9328 161.926 100.128 161.656 100.43 161.484L174.459 118.953C174.672 118.831 174.926 118.768 175.194 118.768C175.801 118.768 176.419 119.081 176.806 119.588L217.793 173.199C218.092 173.591 218.216 174.051 218.133 174.464C218.064 174.803 217.867 175.072 217.564 175.248L143.535 217.777C143.322 217.899 143.068 217.964 142.799 217.964Z" fill="#B3E5E5"/>
<path d="M142.74 215.808C142.199 215.808 141.648 215.524 141.3 215.071L100.163 161.225C99.8984 160.879 99.7882 160.477 99.86 160.122C99.9161 159.847 100.076 159.626 100.322 159.485L174.625 116.768C174.805 116.666 175.021 116.612 175.253 116.612C175.796 116.612 176.35 116.893 176.698 117.35L217.836 171.194C218.098 171.538 218.208 171.938 218.137 172.291C218.081 172.57 217.919 172.791 217.671 172.935L143.368 215.65C143.188 215.753 142.971 215.808 142.74 215.808Z" fill="#4A6ABC"/>
<path d="M213.761 175.488L173.788 123.634C173.442 123.184 172.892 122.905 172.352 122.905C172.122 122.905 171.906 122.959 171.727 123.061L102.615 162.44L102.351 162.098L171.511 122.692C171.764 122.547 172.054 122.479 172.352 122.479C173.002 122.479 173.693 122.803 174.134 123.375L194.567 149.884L214.139 175.273L213.761 175.488Z" fill="#92AEE0"/>
<path d="M144.021 215.026C143.483 215.026 142.935 214.747 142.59 214.3L102.615 162.44L171.727 123.061C171.906 122.959 172.122 122.906 172.352 122.906C172.892 122.906 173.442 123.185 173.788 123.634L213.761 175.488L144.646 214.87C144.467 214.973 144.251 215.026 144.021 215.026ZM186.869 140.614L186.514 141.684C186.208 142.606 186.381 143.617 186.977 144.39L192.233 151.21L197.992 158.678C198.452 159.275 199.127 159.678 199.878 159.804L201.93 160.15L194.182 150.103L186.869 140.614Z" fill="#3854AD"/>
<path d="M201.931 160.15L199.878 159.804C199.127 159.677 198.452 159.275 197.992 158.677L192.233 151.21L186.977 144.39C186.382 143.617 186.209 142.606 186.514 141.684L186.869 140.614L194.183 150.103L201.931 160.15Z" fill="#29438B"/>
<path d="M144.401 132.085L146.466 134.66C147.574 136.039 149.595 136.425 151.181 135.559L181.282 119.132C183.177 118.096 183.684 115.725 182.36 114.077L180.295 111.503C179.188 110.122 177.167 109.737 175.58 110.603L145.48 127.031C143.584 128.064 143.077 130.437 144.401 132.085Z" fill="#57C6B6"/>
<path d="M161.901 136.371L163.888 138.962C164.953 140.353 166.897 140.741 168.423 139.868L185.734 129.976C187.557 128.935 188.043 126.546 186.771 124.886L184.785 122.294C183.719 120.905 181.776 120.516 180.25 121.39L162.939 131.282C161.116 132.322 160.629 134.71 161.901 136.371Z" fill="#F8FBFE"/>
<path opacity="0.5" d="M141.162 271.151L92.3227 243.02L51.3364 75.1707L146.344 0L249.704 75.1707L193.753 243.848L146.975 271.135C145.18 272.182 142.962 272.188 141.162 271.151Z" fill="url(#paint14_linear_4_15156)"/>
<defs>
<linearGradient id="paint0_linear_4_15156" x1="129.652" y1="247.089" x2="123.257" y2="256.303" gradientUnits="userSpaceOnUse">
<stop stop-color="#2A232E"/>
<stop offset="1" stop-color="#221C23"/>
</linearGradient>
<linearGradient id="paint1_linear_4_15156" x1="118.586" y1="257.411" x2="118.869" y2="267.297" gradientUnits="userSpaceOnUse">
<stop stop-color="#2A232E"/>
<stop offset="1" stop-color="#221C23"/>
</linearGradient>
<linearGradient id="paint2_linear_4_15156" x1="118.653" y1="269.07" x2="131.22" y2="276.83" gradientUnits="userSpaceOnUse">
<stop stop-color="#2A232E"/>
<stop offset="1" stop-color="#221C23"/>
</linearGradient>
<linearGradient id="paint3_linear_4_15156" x1="134.882" y1="277.952" x2="149.412" y2="277.556" gradientUnits="userSpaceOnUse">
<stop stop-color="#2A232E"/>
<stop offset="1" stop-color="#221C23"/>
</linearGradient>
<linearGradient id="paint4_linear_4_15156" x1="158.428" y1="280.522" x2="164.676" y2="270.324" gradientUnits="userSpaceOnUse">
<stop stop-color="#2A232E"/>
<stop offset="1" stop-color="#221C23"/>
</linearGradient>
<linearGradient id="paint5_linear_4_15156" x1="171.616" y1="270.557" x2="167.73" y2="259.48" gradientUnits="userSpaceOnUse">
<stop stop-color="#2A232E"/>
<stop offset="1" stop-color="#221C23"/>
</linearGradient>
<linearGradient id="paint6_linear_4_15156" x1="170.375" y1="257.549" x2="115.805" y2="230.86" gradientUnits="userSpaceOnUse">
<stop stop-color="#2A232E"/>
<stop offset="1" stop-color="#221C23"/>
</linearGradient>
<linearGradient id="paint7_linear_4_15156" x1="154.786" y1="243.915" x2="138.078" y2="250.232" gradientUnits="userSpaceOnUse">
<stop stop-color="#2A232E"/>
<stop offset="1" stop-color="#221C23"/>
</linearGradient>
<linearGradient id="paint8_linear_4_15156" x1="102.088" y1="250.43" x2="156.729" y2="250.43" gradientUnits="userSpaceOnUse">
<stop stop-color="#BCC1CD"/>
<stop offset="1" stop-color="#A2AABE"/>
</linearGradient>
<linearGradient id="paint9_linear_4_15156" x1="132.577" y1="286.137" x2="160.092" y2="286.137" gradientUnits="userSpaceOnUse">
<stop stop-color="#A2AABE"/>
<stop offset="0.399015" stop-color="#A2AABE"/>
<stop offset="0.576355" stop-color="#BCC1CD"/>
<stop offset="1" stop-color="#BCC1CD"/>
</linearGradient>
<linearGradient id="paint10_linear_4_15156" x1="132.577" y1="255.781" x2="160.092" y2="255.781" gradientUnits="userSpaceOnUse">
<stop stop-color="#A2AABE"/>
<stop offset="0.399015" stop-color="#A2AABE"/>
<stop offset="0.576355" stop-color="#BCC1CD"/>
<stop offset="1" stop-color="#BCC1CD"/>
</linearGradient>
<linearGradient id="paint11_linear_4_15156" x1="144.48" y1="250.384" x2="144.48" y2="85.5169" gradientUnits="userSpaceOnUse">
<stop stop-color="#EAF5FC"/>
<stop offset="1" stop-color="#E8EEF9"/>
</linearGradient>
<linearGradient id="paint12_linear_4_15156" x1="144.478" y1="250.384" x2="144.478" y2="85.5158" gradientUnits="userSpaceOnUse">
<stop stop-color="#4975C3"/>
<stop offset="1" stop-color="#2945A1"/>
</linearGradient>
<linearGradient id="paint13_linear_4_15156" x1="146.702" y1="190.916" x2="150.281" y2="192.048" gradientUnits="userSpaceOnUse">
<stop stop-color="#A2AABE"/>
<stop offset="1" stop-color="#BCC1CD"/>
</linearGradient>
<linearGradient id="paint14_linear_4_15156" x1="151.564" y1="77.2588" x2="150.52" y2="270.406" gradientUnits="userSpaceOnUse">
<stop stop-color="#055CE7" stop-opacity="0"/>
<stop offset="1" stop-color="#055CE7"/>
</linearGradient>
</defs>
</svg>
