<svg width="250" height="175" viewBox="0 0 250 175" fill="none" xmlns="http://www.w3.org/2000/svg">
<path d="M122.894 175C122.894 175 57.8926 175 19.2677 175C-25.5464 175 15.2164 119.473 66.0044 113C66.1804 115.127 66.7294 117.25 67.6513 119.326C66.5371 121.862 65.9835 124.464 65.9858 127.068L65.9418 142.633C65.921 150.612 71.1374 158.603 81.584 164.687C91.9635 170.735 105.544 173.761 119.102 173.761C120.397 173.761 121.691 173.732 122.984 173.678L122.894 175Z" fill="#25306C"/>
<path d="M76.6129 161L79.5598 163.315C80.9706 164.422 82.5344 165.486 84.2487 166.492C103.558 177.836 134.78 177.836 153.965 166.492C155.552 165.554 157.007 164.569 158.33 163.541L161.29 161.245L76.6129 161Z" fill="#A1AABE"/>
<path d="M168.771 127.639H168.743C169.004 126.456 169.136 125.268 169.141 124.079V123.438C169.146 123.433 169.148 123.429 169.153 123.422C169.206 124.83 169.078 126.241 168.771 127.639Z" fill="url(#paint0_linear_4_7463)"/>
<path d="M119.72 173.571C106.087 173.571 92.4308 170.581 81.9936 164.603C71.4889 158.589 66.2435 150.692 66.2645 142.805L66.3087 127.422C66.3181 135.282 71.5658 143.15 82.0379 149.148C91.392 154.506 103.329 157.461 115.523 158.018C116.934 158.083 118.348 158.115 119.764 158.115C133.399 158.115 147.021 155.125 157.39 149.148C158.771 148.35 160.059 147.524 161.254 146.666C168.969 141.134 172.84 134.416 172.872 127.687L172.828 143.106C172.807 150.89 167.648 158.665 157.346 164.603C147.964 170.012 135.929 172.974 123.624 173.49C122.324 173.543 121.022 173.571 119.72 173.571ZM119.762 152.434C119.711 152.434 119.659 152.434 119.608 152.434C119.641 152.434 119.676 152.434 119.711 152.434C132.402 152.434 145.076 149.652 154.73 144.088C162.745 139.466 167.415 133.653 168.743 127.639H168.771C167.66 132.692 164.189 137.602 158.357 141.784C157.246 142.581 156.046 143.35 154.763 144.092C145.118 149.652 132.447 152.434 119.762 152.434Z" fill="url(#paint1_linear_4_7463)"/>
<path d="M115.523 158.018C103.329 157.461 91.392 154.506 82.0379 149.148C71.5658 143.15 66.3181 135.282 66.3087 127.422C66.3064 124.848 66.8631 122.276 67.9835 119.769C68.5169 120.949 69.1761 122.116 69.9587 123.262L69.9563 123.796C69.9354 131.136 74.8197 138.487 84.5954 144.087C93.316 149.081 104.45 151.835 115.816 152.346L115.523 158.018ZM154.763 144.092C156.046 143.35 157.246 142.581 158.357 141.784C164.189 137.602 167.66 132.692 168.771 127.639C169.078 126.241 169.206 124.83 169.153 123.422C169.949 122.257 170.618 121.067 171.156 119.863C172.313 122.426 172.886 125.058 172.872 127.687C172.84 134.416 168.969 141.134 161.254 146.666L158.357 141.784C157.246 142.581 156.046 143.35 154.763 144.092Z" fill="url(#paint2_linear_4_7463)"/>
<path d="M119.764 158.115C118.348 158.115 116.934 158.083 115.523 158.018L115.816 152.346C117.079 152.401 118.343 152.431 119.608 152.434C119.659 152.434 119.711 152.434 119.762 152.434C132.447 152.434 145.118 149.652 154.763 144.092C156.046 143.35 157.246 142.581 158.357 141.784L161.254 146.666C160.059 147.524 158.771 148.35 157.39 149.148C147.021 155.125 133.399 158.115 119.764 158.115Z" fill="url(#paint3_linear_4_7463)"/>
<path d="M119.711 152.434C119.676 152.434 119.641 152.434 119.608 152.434C118.343 152.431 117.079 152.401 115.816 152.346C104.45 151.835 93.316 149.081 84.5954 144.087C74.8197 138.487 69.9354 131.136 69.9563 123.796L69.9587 123.262C72.579 127.096 76.59 130.686 81.9937 133.783C92.4309 139.76 106.087 142.747 119.72 142.75C133.357 142.75 146.974 139.76 157.346 133.783C162.631 130.735 166.563 127.204 169.141 123.438V124.079C169.136 125.268 169.004 126.456 168.743 127.639C167.415 133.653 162.745 139.466 154.73 144.088C145.076 149.652 132.402 152.434 119.711 152.434Z" fill="url(#paint4_linear_4_7463)"/>
<path d="M76.6129 130L79.5598 132.315C80.9706 133.423 82.5344 134.483 84.2487 135.49C103.558 146.838 134.78 146.836 153.965 135.49C155.552 134.552 157.007 133.566 158.33 132.542L161.29 130.243L76.6129 130Z" fill="#A1AABE"/>
<path d="M168.771 96.8156H168.743C169.004 95.6351 169.136 94.4456 169.141 93.2549L169.143 92.3677C169.22 93.8534 169.097 95.3416 168.771 96.8156Z" fill="url(#paint5_linear_4_7463)"/>
<path d="M119.72 142.75C106.087 142.747 92.4309 139.76 81.9937 133.783C76.59 130.686 72.579 127.096 69.9587 123.262C69.1761 122.116 68.5169 120.949 67.9835 119.769C67.0565 117.717 66.5043 115.619 66.3273 113.517C66.283 113.006 66.2644 112.493 66.2644 111.982L66.3087 96.601C66.318 104.461 71.5657 112.329 82.0378 118.325C91.3919 123.683 103.329 126.641 115.523 127.195C116.934 127.26 118.35 127.292 119.764 127.292C133.402 127.292 147.02 124.304 157.39 118.325C158.771 117.531 160.059 116.7 161.254 115.844C168.969 110.312 172.84 103.595 172.872 96.8644L172.828 112.285C172.821 114.834 172.265 117.38 171.156 119.863C170.618 121.067 169.949 122.257 169.153 123.422C169.148 123.429 169.146 123.433 169.141 123.438C166.563 127.204 162.631 130.735 157.346 133.783C146.974 139.76 133.357 142.75 119.72 142.75ZM119.762 121.61C119.624 121.61 119.487 121.61 119.347 121.61C119.468 121.61 119.589 121.61 119.71 121.61C132.402 121.61 145.076 118.829 154.73 113.265C162.745 108.644 167.415 102.83 168.743 96.8156H168.771C167.66 101.869 164.189 106.781 158.357 110.961C157.246 111.759 156.046 112.53 154.763 113.269C145.12 118.831 132.449 121.61 119.762 121.61Z" fill="url(#paint6_linear_4_7463)"/>
<path d="M115.523 127.195C103.329 126.641 91.3919 123.683 82.0378 118.325C71.5657 112.329 66.318 104.461 66.3087 96.601C66.3063 93.8265 66.954 91.0509 68.256 88.3614C68.7382 89.3459 69.3065 90.3207 69.961 91.2791L69.9563 92.9751C69.9354 100.314 74.8197 107.666 84.5954 113.265C93.316 118.26 104.45 121.012 115.816 121.522L115.523 127.195ZM154.763 113.269C156.046 112.53 157.246 111.759 158.357 110.961C164.189 106.781 167.66 101.869 168.771 96.8156C169.097 95.3416 169.22 93.8515 169.143 92.3677L169.146 91.4462C169.817 90.466 170.394 89.4704 170.881 88.4605C172.223 91.2052 172.886 94.0386 172.872 96.8644C172.84 103.595 168.969 110.312 161.254 115.844L158.357 110.961C157.246 111.759 156.046 112.53 154.763 113.269Z" fill="url(#paint7_linear_4_7463)"/>
<path d="M119.764 127.292C118.35 127.292 116.934 127.26 115.523 127.195L115.816 121.522C116.99 121.576 118.171 121.606 119.347 121.61C119.487 121.61 119.624 121.61 119.762 121.61C132.449 121.61 145.12 118.831 154.763 113.269C156.046 112.53 157.246 111.759 158.357 110.961L161.254 115.844C160.059 116.7 158.771 117.531 157.39 118.325C147.02 124.304 133.402 127.292 119.764 127.292Z" fill="url(#paint8_linear_4_7463)"/>
<path d="M119.71 121.61C119.589 121.61 119.468 121.61 119.347 121.61C118.171 121.606 116.99 121.576 115.816 121.522C104.45 121.012 93.316 118.26 84.5954 113.265C74.8197 107.666 69.9354 100.314 69.9563 92.9751L69.961 91.2791C72.5814 95.1105 76.5923 98.7011 81.9937 101.795C92.4309 107.77 106.087 110.76 119.72 110.76C133.357 110.762 146.974 107.773 157.346 101.792C162.633 98.7452 166.567 95.2145 169.146 91.4462L169.143 92.3677L169.141 93.2549C169.136 94.4456 169.004 95.6351 168.743 96.8156C167.415 102.83 162.745 108.644 154.73 113.265C145.076 118.829 132.402 121.61 119.71 121.61Z" fill="url(#paint9_linear_4_7463)"/>
<path d="M76.6129 98L79.5598 100.312C80.9706 101.42 82.5344 102.484 84.2487 103.49C103.558 114.837 134.78 114.837 153.965 103.49C155.552 102.552 157.007 101.567 158.33 100.539L161.29 98.2421L76.6129 98Z" fill="#A1AABE"/>
<path d="M119.72 110.76C106.087 110.76 92.4309 107.77 81.9937 101.795C76.5923 98.7011 72.5814 95.1105 69.961 91.2791C69.3065 90.3207 68.7382 89.3459 68.256 88.3614C66.9214 85.6282 66.2575 82.8113 66.2645 79.9945L66.3087 64.6155C66.3204 72.4761 71.5681 80.3411 82.0379 86.3377C91.392 91.6952 103.329 94.6502 115.523 95.2071C116.934 95.2722 118.35 95.3046 119.764 95.3046C133.402 95.3046 147.02 92.3145 157.39 86.3377C158.771 85.5424 160.059 84.7129 161.254 83.8557C161.529 83.6588 161.797 83.4603 162.063 83.2616L164.112 97.0213C169.611 92.2223 172.509 86.7256 172.805 81.1867C172.672 83.638 172.032 86.0831 170.881 88.4605C170.394 89.4704 169.817 90.466 169.146 91.4462C166.567 95.2145 162.633 98.7452 157.346 101.792C146.974 107.773 133.357 110.762 119.72 110.76ZM172.805 81.1821C172.807 81.1389 172.809 81.0945 172.809 81.0532C172.809 81.0964 172.807 81.1389 172.805 81.1821ZM172.828 80.3482C172.828 80.3436 172.828 80.3411 172.828 80.3364C172.828 80.3411 172.828 80.3455 172.828 80.3482Z" fill="url(#paint10_linear_4_7463)"/>
<path d="M115.523 95.2071C103.329 94.6502 91.392 91.6952 82.0379 86.3377C71.5681 80.3411 66.3204 72.4761 66.3087 64.6155C66.2994 58.1487 69.8329 51.6851 76.9184 46.2698C72.6047 49.5668 69.6349 53.2519 67.9625 57.0923C68.4936 58.4761 69.1854 59.8417 70.0379 61.1837C70.0984 68.4604 74.9781 75.7313 84.6676 81.2813C94.3734 86.841 107.079 89.6227 119.762 89.6227C118.446 89.6227 117.13 89.5931 115.816 89.5326L115.523 95.2071ZM161.254 83.8557L158.357 78.9735C158.357 78.9735 158.355 78.9751 158.352 78.9751C158.597 78.8002 158.839 78.6241 159.074 78.4462L162.063 83.2596L162.063 83.2616C161.797 83.4603 161.529 83.6588 161.254 83.8557ZM156.994 79.9093C157.006 79.8993 157.02 79.8931 157.029 79.8859C157.018 79.8931 157.006 79.8993 156.994 79.9093ZM157.167 79.7956C157.171 79.7912 157.181 79.7866 157.185 79.7822C157.178 79.7866 157.174 79.7912 157.167 79.7956ZM157.288 79.7127C157.29 79.7127 157.288 79.7127 157.29 79.7127H157.288ZM172.872 64.8762V64.8392C172.872 63.3653 172.691 61.8933 172.325 60.4311C172.327 60.4311 172.33 60.4283 172.334 60.4265C172.7 61.9032 172.879 63.3887 172.872 64.8762ZM77.0255 46.1857C77.0418 46.1749 77.0604 46.1606 77.0767 46.1488L80.0232 43.9195C79.6645 44.1919 79.3128 44.4674 78.975 44.7444L77.0767 46.1488C77.0581 46.1606 77.0418 46.1749 77.0255 46.1857Z" fill="url(#paint11_linear_4_7463)"/>
<path d="M154.626 41.3484C135.08 30.2172 103.474 30.2172 84.0553 41.3484C64.6339 52.4751 64.7371 70.527 84.2851 81.6529C103.831 92.7824 135.437 92.7824 154.856 81.6529C174.277 70.527 174.174 52.4751 154.626 41.3484Z" fill="#F8FBFE"/>
<path d="M119.764 95.3046C118.35 95.3046 116.934 95.2722 115.523 95.2071L115.816 89.5326C117.13 89.5931 118.446 89.6227 119.762 89.6227C121.87 89.6227 123.975 89.546 126.067 89.3916C136.327 88.6407 146.243 86.0459 154.195 81.6052C154.195 81.6027 154.197 81.6027 154.197 81.6027C154.365 81.5077 154.532 81.413 154.698 81.3183C154.719 81.3065 154.742 81.2931 154.763 81.2813C155.497 80.8589 156.202 80.4239 156.882 79.9835V79.9807C156.899 79.9717 156.913 79.9627 156.927 79.9527C156.931 79.9509 156.936 79.9465 156.941 79.9437C156.955 79.9347 156.966 79.9275 156.98 79.9183C156.985 79.9139 156.99 79.9111 156.994 79.9093C157.006 79.8993 157.018 79.8931 157.029 79.8859C157.038 79.8788 157.043 79.8769 157.05 79.8723C157.062 79.8652 157.071 79.858 157.083 79.8515C157.09 79.8443 157.099 79.84 157.108 79.8326C157.115 79.8282 157.125 79.8236 157.132 79.8164C157.143 79.8102 157.155 79.8028 157.167 79.7956C157.174 79.7912 157.178 79.7866 157.185 79.7822C157.199 79.7732 157.213 79.7633 157.227 79.7542C157.229 79.7524 157.234 79.7496 157.236 79.7468C157.253 79.736 157.271 79.7244 157.288 79.7127H157.29C157.635 79.4816 157.973 79.2478 158.303 79.0105C158.308 79.0077 158.313 79.0058 158.317 79.0015C158.329 78.9941 158.341 78.985 158.352 78.9751C158.355 78.9751 158.357 78.9735 158.357 78.9735L161.254 83.8557C160.059 84.7129 158.771 85.5424 157.39 86.3377C147.02 92.3145 133.402 95.3046 119.764 95.3046Z" fill="url(#paint12_linear_4_7463)"/>
<path d="M126.008 89C136.257 88.2791 146.169 85.7854 154.112 81.525C146.167 85.7881 136.26 88.2791 126.008 89ZM156.842 79.9385C156.846 79.9341 156.851 79.9325 156.856 79.9299C156.851 79.9325 156.846 79.9367 156.842 79.9385ZM156.895 79.9055C156.9 79.903 156.905 79.8986 156.909 79.8968C156.905 79.8986 156.9 79.9012 156.895 79.9055ZM156.944 79.8744C156.951 79.87 156.958 79.8658 156.965 79.8613C156.958 79.8658 156.954 79.8675 156.944 79.8744Z" fill="#F8FBFE"/>
<path d="M172.312 81C172.312 81 172.312 80.9981 172.312 80.9954C172.312 80.9981 172.312 81 172.312 81ZM172.328 80.5568C172.328 80.5478 172.33 80.5404 172.33 80.5314C172.33 80.5404 172.328 80.5497 172.328 80.5568ZM172.33 80.5081C172.33 80.4991 172.33 80.4919 172.33 80.4801C172.33 80.4901 172.33 80.4991 172.33 80.5081ZM172.333 80.4224C172.333 80.4106 172.333 80.3997 172.333 80.3898C172.333 80.4016 172.333 80.4106 172.333 80.4224ZM76.6129 46.0841C76.6152 46.0813 76.6175 46.0813 76.6175 46.0786C76.6175 46.0786 76.6152 46.0813 76.6129 46.0841ZM76.7105 46.0099C76.7128 46.0056 76.7175 46.0028 76.7198 46C76.7175 46.0055 76.7128 46.0056 76.7105 46.0099Z" fill="#243169"/>
<path d="M164.112 97.0213L162.063 83.2616C169.239 77.8463 172.842 71.3666 172.872 64.8762L172.828 80.2949C172.828 80.3085 172.828 80.3228 172.828 80.3364C172.828 80.3411 172.828 80.3436 172.828 80.3482C172.828 80.36 172.828 80.369 172.828 80.378C172.828 80.3824 172.828 80.388 172.828 80.3924C172.828 80.406 172.828 80.4194 172.828 80.4312C172.828 80.4339 172.828 80.434 172.828 80.434C172.828 80.4476 172.828 80.4591 172.828 80.4728C172.828 80.4772 172.828 80.4818 172.828 80.4871C172.828 80.4961 172.828 80.5054 172.826 80.5144C172.826 80.5188 172.826 80.5243 172.826 80.5287C172.826 80.5405 172.826 80.5513 172.826 80.5631C172.826 80.5675 172.826 80.5721 172.826 80.5765C172.826 80.5864 172.826 80.5973 172.826 80.6091C172.826 80.6135 172.826 80.6209 172.826 80.6253C172.826 80.6343 172.823 80.6414 172.823 80.6488C172.823 80.6551 172.823 80.6622 172.823 80.6669C172.823 80.6786 172.823 80.6858 172.823 80.6948C172.823 80.7038 172.823 80.711 172.823 80.7181C172.823 80.7272 172.821 80.7346 172.821 80.7436C172.821 80.7498 172.821 80.757 172.821 80.7644C172.821 80.7706 172.821 80.7778 172.821 80.7849C172.821 80.7914 172.821 80.7986 172.821 80.8057C172.819 80.8131 172.819 80.8175 172.819 80.8237C172.819 80.8355 172.819 80.8501 172.819 80.8635C172.819 80.8681 172.819 80.8753 172.816 80.8799C172.816 80.8889 172.816 80.8961 172.816 80.9023C172.816 80.9078 172.816 80.9141 172.816 80.9187C172.816 80.9286 172.816 80.9349 172.814 80.9439C172.814 80.9467 172.814 80.9511 172.814 80.9538C172.814 80.9836 172.812 81.0134 172.812 81.0442C172.812 81.0442 172.809 81.0504 172.809 81.0532C172.809 81.0945 172.807 81.1389 172.805 81.1821C172.805 81.1849 172.805 81.1867 172.805 81.1867C172.509 86.7256 169.611 92.2223 164.112 97.0213Z" fill="url(#paint13_linear_4_7463)"/>
<path d="M162.063 83.2616L162.063 83.2596L159.074 78.4462C165.538 73.5825 168.894 67.7899 169.148 61.9557C170.233 61.4755 171.293 60.9672 172.325 60.4311C172.691 61.8933 172.872 63.3653 172.872 64.8392V64.8762C172.842 71.3666 169.239 77.8463 162.063 83.2616ZM70.0379 61.1837C69.1854 59.8417 68.4936 58.4761 67.9625 57.0923C69.6349 53.2519 72.6047 49.5668 76.9184 46.2698C76.9207 46.2671 76.923 46.2643 76.923 46.2643C76.937 46.2534 76.951 46.2435 76.9649 46.2326C76.9696 46.2301 76.9719 46.2273 76.9766 46.2255C76.9882 46.2137 77.0022 46.2047 77.0162 46.1957C77.0185 46.1913 77.0232 46.1913 77.0255 46.1857C77.0418 46.1749 77.0581 46.1606 77.0767 46.1488L78.975 44.7444C72.968 49.6571 69.9913 55.4218 70.0379 61.1837Z" fill="url(#paint14_linear_4_7463)"/>
<path d="M121.819 82C107.599 82 93.3648 78.9049 82.5011 72.7023C76.5603 69.3121 72.2589 65.335 69.557 61.0986C69.5101 55.3164 72.5075 49.5314 78.5562 44.6012L79.7101 43.7498C80.8664 42.8803 82.086 42.027 83.4322 41.2154L83.4299 42.7643C83.4299 42.2336 83.4556 41.7028 83.5049 41.1739C83.6011 41.1159 83.6996 41.058 83.7981 41C85.1068 47.6708 90.2338 54.1452 99.1767 59.2511C109.602 65.2009 123.271 68.1754 136.918 68.1754C148.387 68.1754 159.842 66.0749 169.355 61.8731C169.099 67.7279 165.72 73.5412 159.211 78.4222L159.157 78.3343L154.764 75.8254C145.01 79.9384 133.419 82 121.819 82Z" fill="#9FAAC2"/>
<path d="M189.647 43.2147C189.65 42.36 189.589 41.507 189.468 40.6551C189.566 40.024 189.629 39.3905 189.659 38.7606L189.647 43.2147ZM83.8152 42.9141L83.8175 41.3706V41.369L83.8455 31.5904C83.8687 23.8519 88.9837 16.126 99.2019 10.2356C109.492 4.30231 123.034 1.3383 136.59 1.3383C150.149 1.3383 163.721 4.30231 174.079 10.234C184.498 16.2018 189.701 24.0531 189.678 31.891L189.664 37.1982C189.652 36.9048 189.631 36.6116 189.606 36.32C190.29 28.0227 185.117 19.5845 174.079 13.263C163.723 7.33124 150.146 4.36446 136.59 4.36446C123.032 4.36446 109.492 7.33124 99.2019 13.263C88.3152 19.5385 83.2305 27.8981 83.9176 36.1377C83.7942 37.5032 83.8315 38.8734 84.0248 40.2389C83.9689 40.6017 83.9246 40.9647 83.8897 41.3274V41.3293C83.8408 41.8563 83.8152 42.3852 83.8152 42.9141Z" fill="url(#paint15_linear_4_7463)"/>
<path d="M99.0194 17.5126C119.608 5.78468 153.203 5.78468 173.924 17.5126C183.485 22.9245 188.643 29.9034 189.417 37C190.312 28.6676 185.151 20.151 173.924 13.7959C153.203 2.06802 119.608 2.06802 99.0194 13.7959C87.9422 20.1074 82.8697 28.5506 83.7714 36.8314C84.5264 29.791 89.5966 22.8808 99.0194 17.5126Z" fill="#399E90"/>
<path d="M172.481 60C171.26 55.1482 167.958 50.4305 162.583 46.3124C162.58 46.3106 162.578 46.3079 162.576 46.3079C162.564 46.299 162.553 46.2901 162.541 46.2813C162.532 46.2742 162.525 46.2672 162.516 46.2608C162.509 46.2583 162.504 46.2537 162.499 46.2494C162.49 46.2422 162.481 46.2351 162.469 46.2262C162.467 46.2244 162.462 46.2192 162.458 46.2174C162.444 46.2085 162.43 46.1969 162.416 46.1853L159.547 44.0141C158.115 42.9234 156.529 41.8789 154.783 40.8904C145.133 35.4179 132.502 32.6826 119.89 32.6826C109.918 32.6826 99.9597 34.3902 91.486 37.8097C91.4629 37.8186 91.4443 37.8283 91.4235 37.8372C91.2776 37.894 91.1294 37.9552 90.9858 38.0148C90.9719 38.0209 90.9603 38.0255 90.9464 38.0325C90.921 38.0414 90.8978 38.0502 90.8746 38.0618C90.4763 38.2278 90.0803 38.3983 89.6889 38.5716C89.5708 38.6241 89.455 38.6755 89.3369 38.728C88.9224 38.9172 88.5148 39.1079 88.1072 39.3034C88.0863 39.315 88.0632 39.3264 88.04 39.3371C87.5213 39.5876 87.0118 39.8468 86.5069 40.1124C86.4814 40.124 86.456 40.1383 86.4305 40.1515C86.1897 40.2813 85.9511 40.4082 85.7126 40.5405C85.5042 40.656 85.2957 40.7724 85.0896 40.8904C85.078 40.8977 85.0642 40.9038 85.0526 40.9108C84.9785 40.9545 84.9044 40.9952 84.8326 41.0379C84.7723 40.7376 84.7214 40.4357 84.6774 40.1356C85.7311 33.424 90.7496 26.8831 99.7374 21.756C109.969 15.9174 123.429 13 136.909 13C150.387 13 163.887 15.9193 174.183 21.756C183.412 26.9852 188.525 33.6895 189.516 40.545C188.462 47.2582 183.442 53.8018 174.449 58.9335C173.805 59.2993 173.148 59.6562 172.481 60Z" fill="#49ACB5"/>
<path d="M172.325 60.4311C171.095 55.5004 167.788 50.7034 162.379 46.5164C167.785 50.7016 171.107 55.4957 172.334 60.4265C172.33 60.4283 172.327 60.4311 172.325 60.4311ZM162.312 46.464C162.307 46.4614 162.3 46.4568 162.295 46.4524C162.3 46.4568 162.305 46.4614 162.312 46.464ZM162.265 46.4288C162.26 46.427 162.258 46.4245 162.254 46.4198C162.258 46.4217 162.263 46.427 162.265 46.4288Z" fill="url(#paint16_linear_4_7463)"/>
<path d="M159.274 44L159.198 43.9404C157.718 42.9101 156.22 41.9057 154.518 40.9677C144.883 35.6553 132.272 33 119.68 33C109.723 33 99.7808 34.6595 91.3204 37.9771C99.7808 34.6577 109.723 33 119.68 33C132.272 33 144.883 35.6553 154.518 40.9677C156.261 41.9273 157.845 42.9413 159.274 44Z" fill="#72CFC1"/>
<path d="M189.516 39V37C189.516 37.6655 189.516 38.331 189.516 39Z" fill="#49ACB5"/>
<path d="M162.298 46C162.294 45.9983 162.294 45.9957 162.291 45.9957C162.294 45.9957 162.296 45.9983 162.298 46ZM91.0558 38.0259C91.0766 38.0175 91.0952 38.0083 91.1184 38C91.0975 38.0083 91.0766 38.0175 91.0558 38.0259Z" fill="#47A8AD"/>
<path d="M169.148 61.9557C169.423 55.7153 166.146 49.4281 159.326 44.1805L162.212 46.3871C162.226 46.3989 162.24 46.4108 162.254 46.4198C162.258 46.4245 162.26 46.427 162.265 46.4288C162.277 46.4379 162.286 46.445 162.295 46.4524C162.3 46.4568 162.307 46.4614 162.312 46.464C162.321 46.4704 162.328 46.4776 162.337 46.4848C162.349 46.4938 162.361 46.5028 162.372 46.5118C162.375 46.5118 162.375 46.5146 162.379 46.5164C167.788 50.7034 171.095 55.5004 172.325 60.4311C171.293 60.9672 170.233 61.4755 169.148 61.9557Z" fill="url(#paint17_linear_4_7463)"/>
<path d="M137.242 68C123.737 68 110.211 65.0836 99.8951 59.2498C91.0458 54.2436 85.9724 47.8956 84.6774 41.355C84.7494 41.3123 84.8237 41.2716 84.8979 41.2279C84.9095 41.2209 84.9234 41.2148 84.935 41.2075C85.1416 41.0895 85.3505 40.9731 85.5593 40.8576C85.7984 40.7253 86.0374 40.5984 86.2788 40.4686C86.3043 40.4554 86.3298 40.4411 86.3554 40.4295C86.8613 40.164 87.3719 39.9048 87.8918 39.6542C87.915 39.6436 87.9382 39.6322 87.9591 39.6206C88.3675 39.4251 88.776 39.2343 89.1915 39.0452C89.3098 38.9927 89.4258 38.9413 89.5442 38.8888C89.9364 38.7155 90.3333 38.545 90.7325 38.3791C90.7557 38.3675 90.7789 38.3586 90.8044 38.3497C90.8183 38.3427 90.8299 38.3381 90.8439 38.332C90.9878 38.2724 91.1363 38.2113 91.2825 38.1544C91.3034 38.1456 91.3243 38.1358 91.3452 38.1269C99.8371 34.7094 109.817 33 119.81 33C132.449 33 145.107 35.7352 154.778 41.2075C156.486 42.1737 157.99 43.2084 159.475 44.2696L159.552 44.331C166.347 49.4943 169.613 55.6805 169.339 61.8207C159.926 65.9404 148.591 68 137.242 68Z" fill="#5EC6BB"/>
<path d="M189.468 40.6551C188.471 33.688 183.328 26.8746 174.046 21.5603C163.691 15.6286 150.114 12.6618 136.558 12.6618C122.999 12.6618 109.462 15.6268 99.1717 21.5603C90.132 26.7709 85.0846 33.4181 84.0248 40.2389C83.8315 38.8734 83.7942 37.5032 83.9176 36.1377C83.9293 36.2784 83.9433 36.4219 83.9596 36.5629C84.7143 29.4417 89.7826 22.4522 99.202 17.0224C109.492 11.0916 123.034 8.12479 136.59 8.12479C150.149 8.12479 163.721 11.0916 174.079 17.0224C183.636 22.4963 188.793 29.5554 189.566 36.7334C189.58 36.5952 189.594 36.4591 189.606 36.32C189.631 36.6116 189.652 36.9048 189.664 37.1982L189.659 38.7606C189.629 39.3905 189.566 40.024 189.468 40.6551Z" fill="url(#paint18_linear_4_7463)"/>
<path d="M189.476 37C188.702 29.8977 183.537 22.9131 173.966 17.4969C163.593 11.6287 150 8.69319 136.421 8.69319C122.845 8.69319 109.283 11.6287 98.9766 17.4969C89.5431 22.8695 84.4672 29.7852 83.7114 36.8313C83.695 36.6918 83.681 36.5498 83.6694 36.4106C84.3225 29.2708 89.4241 22.2451 98.9766 16.8037C109.283 10.9355 122.843 8 136.421 8C149.998 8 163.595 10.9355 173.966 16.8037C183.663 22.2906 188.849 29.3895 189.516 36.591C189.504 36.7286 189.49 36.8633 189.476 37Z" fill="#4FC3B1"/>
<path d="M192.007 31.8974L191.974 43.2219C191.951 51.3046 186.61 59.3726 175.938 65.5262C154.462 77.906 119.394 77.906 97.7788 65.5262C86.8967 59.2941 81.4627 51.0941 81.486 42.908L81.5186 31.5834C81.4953 39.7697 86.9294 47.9704 97.8114 54.2018C119.426 66.5823 154.495 66.5823 175.97 54.2018C186.643 48.049 191.984 39.98 192.007 31.8974Z" fill="url(#paint19_linear_4_7463)"/>
<path d="M99.4891 52.8453C120.082 64.615 153.479 64.615 173.937 52.8453C194.403 41.0738 194.294 21.9241 173.703 10.157C153.104 -1.61612 119.704 -1.61612 99.2389 10.157C78.7806 21.9241 78.8895 41.0738 99.4891 52.8453ZM175.336 9.21761C196.832 21.5004 196.946 41.4957 175.584 53.7858C154.227 66.0714 119.352 66.0714 97.856 53.7858C76.3531 41.4984 76.2396 21.5023 97.5943 9.21761C118.958 -3.07254 153.834 -3.07254 175.336 9.21761Z" fill="#F8FBFE"/>
<path d="M185.484 70.6841C185.484 73.6453 187.516 74.8471 190.021 73.3655C192.524 71.8839 194.556 68.2806 194.556 65.3165C194.556 62.3543 192.524 61.1526 190.021 62.6351C187.516 64.1167 185.484 67.72 185.484 70.6841Z" fill="#602A94"/>
<path d="M193.548 62.8519L179.05 54.3224C178.237 53.8247 177.104 53.8865 175.851 54.6247C173.378 56.0805 171.371 59.6209 171.371 62.5309C171.371 63.9707 171.862 64.986 172.654 65.4696L187.153 74C186.36 73.5152 185.869 72.5001 185.869 71.063C185.869 68.1504 187.877 64.6097 190.352 63.1539C191.602 62.4157 192.735 62.3558 193.548 62.8519Z" fill="#F8FBFE"/>
<path d="M197.417 59.5281C196.046 58.712 194.138 58.8143 192.027 60.0272C187.857 62.4269 184.476 68.2645 184.476 73.0628C184.476 75.4355 185.3 77.1096 186.638 77.9067L237.207 107L247.984 88.6233L197.417 59.5281Z" fill="#4674CC"/>
<path d="M234.879 101.747C234.879 106.441 238.264 108.34 242.441 105.996C246.615 103.649 250 97.9438 250 93.2533C250 90.168 248.537 88.2907 246.35 88.0304C245.208 87.8967 243.871 88.2005 242.441 89.0052C238.264 91.3511 234.879 97.0547 234.879 101.747Z" fill="#314AA6"/>
<defs>
<linearGradient id="paint0_linear_4_7463" x1="-58502.8" y1="152.931" x2="250.151" y2="152.931" gradientUnits="userSpaceOnUse">
<stop stop-color="#CAD4EB"/>
<stop offset="1" stop-color="#E4EBF8"/>
</linearGradient>
<linearGradient id="paint1_linear_4_7463" x1="0.000146759" y1="87.6362" x2="250.001" y2="87.6362" gradientUnits="userSpaceOnUse">
<stop stop-color="#A2AABE"/>
<stop offset="1" stop-color="#D5DCE9"/>
</linearGradient>
<linearGradient id="paint2_linear_4_7463" x1="1.7076e-05" y1="117.162" x2="250" y2="117.162" gradientUnits="userSpaceOnUse">
<stop stop-color="#CAD4EB"/>
<stop offset="1" stop-color="#E4EBF8"/>
</linearGradient>
<linearGradient id="paint3_linear_4_7463" x1="-269.036" y1="275.449" x2="313.514" y2="275.449" gradientUnits="userSpaceOnUse">
<stop stop-color="#EBF0FA"/>
<stop offset="1" stop-color="#F4F8FD"/>
</linearGradient>
<linearGradient id="paint4_linear_4_7463" x1="0.000169353" y1="129.049" x2="250.099" y2="129.049" gradientUnits="userSpaceOnUse">
<stop stop-color="#37998C"/>
<stop offset="1" stop-color="#57C6B7"/>
</linearGradient>
<linearGradient id="paint5_linear_4_7463" x1="-58373.7" y1="144.9" x2="249.599" y2="144.9" gradientUnits="userSpaceOnUse">
<stop stop-color="#CAD4EB"/>
<stop offset="1" stop-color="#E4EBF8"/>
</linearGradient>
<linearGradient id="paint6_linear_4_7463" x1="0" y1="87.6446" x2="250.001" y2="87.6446" gradientUnits="userSpaceOnUse">
<stop stop-color="#A2AABE"/>
<stop offset="1" stop-color="#D5DCE9"/>
</linearGradient>
<linearGradient id="paint7_linear_4_7463" x1="1.46891e-05" y1="115.389" x2="250" y2="115.389" gradientUnits="userSpaceOnUse">
<stop stop-color="#CAD4EB"/>
<stop offset="1" stop-color="#E4EBF8"/>
</linearGradient>
<linearGradient id="paint8_linear_4_7463" x1="-269.036" y1="275.419" x2="313.514" y2="275.419" gradientUnits="userSpaceOnUse">
<stop stop-color="#EBF0FA"/>
<stop offset="1" stop-color="#F4F8FD"/>
</linearGradient>
<linearGradient id="paint9_linear_4_7463" x1="0.000169345" y1="124.098" x2="250.087" y2="124.098" gradientUnits="userSpaceOnUse">
<stop stop-color="#37998C"/>
<stop offset="1" stop-color="#57C6B7"/>
</linearGradient>
<linearGradient id="paint10_linear_4_7463" x1="0.000127946" y1="87.645" x2="250.104" y2="87.645" gradientUnits="userSpaceOnUse">
<stop stop-color="#A2AABE"/>
<stop offset="1" stop-color="#D5DCE9"/>
</linearGradient>
<linearGradient id="paint11_linear_4_7463" x1="4.31112e-05" y1="87.3691" x2="250" y2="87.3691" gradientUnits="userSpaceOnUse">
<stop stop-color="#CAD4EB"/>
<stop offset="1" stop-color="#E4EBF8"/>
</linearGradient>
<linearGradient id="paint12_linear_4_7463" x1="-269.036" y1="275.428" x2="313.514" y2="275.428" gradientUnits="userSpaceOnUse">
<stop stop-color="#EBF0FA"/>
<stop offset="1" stop-color="#F4F8FD"/>
</linearGradient>
<linearGradient id="paint13_linear_4_7463" x1="-2215.52" y1="51.0203" x2="250.005" y2="51.0203" gradientUnits="userSpaceOnUse">
<stop stop-color="#64728F"/>
<stop offset="1" stop-color="#8692AE"/>
</linearGradient>
<linearGradient id="paint14_linear_4_7463" x1="-3.94085" y1="62.0629" x2="250.001" y2="62.0629" gradientUnits="userSpaceOnUse">
<stop stop-color="#7E8EB1"/>
<stop offset="1" stop-color="#909EBA"/>
</linearGradient>
<linearGradient id="paint15_linear_4_7463" x1="0" y1="87.5" x2="250.005" y2="87.5" gradientUnits="userSpaceOnUse">
<stop stop-color="#D5DCE9"/>
<stop offset="1" stop-color="#A2AABE"/>
</linearGradient>
<linearGradient id="paint16_linear_4_7463" x1="-2379.39" y1="-114.536" x2="263.349" y2="-114.536" gradientUnits="userSpaceOnUse">
<stop stop-color="#67CCC0"/>
<stop offset="1" stop-color="#6DCEC1"/>
</linearGradient>
<linearGradient id="paint17_linear_4_7463" x1="-1788.88" y1="-75.2785" x2="260.531" y2="-75.2785" gradientUnits="userSpaceOnUse">
<stop stop-color="#5AC1B7"/>
<stop offset="1" stop-color="#5CC5BA"/>
</linearGradient>
<linearGradient id="paint18_linear_4_7463" x1="-0.0734809" y1="98.8691" x2="250.038" y2="98.8691" gradientUnits="userSpaceOnUse">
<stop stop-color="#6ACDC0"/>
<stop offset="1" stop-color="#5EC6BA"/>
</linearGradient>
<linearGradient id="paint19_linear_4_7463" x1="0.000168653" y1="87.502" x2="250.001" y2="87.502" gradientUnits="userSpaceOnUse">
<stop stop-color="#A2AABE"/>
<stop offset="1" stop-color="#D5DCE9"/>
</linearGradient>
</defs>
</svg>
