<svg width="400" height="430" viewBox="0 0 400 430" fill="none" xmlns="http://www.w3.org/2000/svg">
<path d="M182.944 404.595H14.3613C-29.2572 404.595 31.3951 337.631 130.043 337.631H234.389C234.613 340.205 234.812 343.094 234.982 346.348C235.146 349.512 237.808 351.476 240.415 351.476C241.397 351.476 242.374 351.191 243.207 350.586C244.413 349.712 245.221 349.132 245.804 348.752L246.602 365.89C246.602 365.89 178.298 365.89 155.75 365.89C133.203 365.89 110.322 382.379 130.482 382.379C150.641 382.379 172.669 382.379 172.669 382.379L182.944 404.595Z" fill="#25306C"/>
<path d="M348.675 135.136L286.377 171.197C279.882 174.955 274.613 172.726 274.613 166.209V150.745C274.613 144.227 279.882 135.896 286.377 132.137L348.675 96.0766C355.17 92.3131 360.439 94.5473 360.439 101.06V116.528C360.439 123.046 355.17 131.373 348.675 135.136Z" fill="#57C6B6"/>
<path d="M137.98 109.384L82.6363 141.421C76.1359 145.18 70.8717 142.951 70.8717 136.433V120.964C70.8717 114.452 76.1359 106.12 82.6363 102.362L137.98 70.3246C144.48 66.5611 149.749 68.7952 149.749 75.3076V90.7764C149.749 97.2888 144.48 105.62 137.98 109.384Z" fill="#4674CC"/>
<path d="M122.865 169.34L46.0964 213.778C39.596 217.536 34.3268 215.307 34.3268 208.79V193.326C34.3268 186.808 39.596 178.482 46.0964 174.718L122.865 130.281C129.361 126.518 134.63 128.752 134.63 135.264V150.733C134.63 157.245 129.361 165.577 122.865 169.34Z" fill="#4674CC"/>
<path d="M333.496 40.8849L291.427 65.2401C284.927 69.0036 279.658 66.7695 279.658 60.2571V44.7883C279.658 38.2709 284.927 29.9442 291.427 26.1807L333.496 1.82538C339.996 -1.93312 345.265 0.296104 345.265 6.8135V22.2823C345.265 28.7947 339.996 37.1264 333.496 40.8849Z" fill="#57C6B6"/>
<path d="M167.207 396.349C166.035 398.938 166.06 402.476 166.973 404.246C172.272 414.516 179.983 427.176 188.154 429.26C195.427 431.115 202.83 429.365 204.759 425.317C206.154 422.378 204.863 417.145 203.228 415.316C201.085 412.932 195.088 411.368 191.219 406.804C187.122 401.971 180.761 399.387 175.721 395.704C173.463 394.055 167.441 395.689 167.207 396.349Z" fill="#221C23"/>
<path d="M167.825 401.949C165.776 396.246 167.9 395.951 167.979 393.177C168.084 389.484 168.383 385.61 169.664 384.326C170.193 383.796 170.901 383.421 171.544 383.111C173.602 382.122 175.821 382.342 178.059 382.582C181.419 382.936 184.016 383.876 186.773 385.905C188.647 387.285 187.521 388.944 188.976 392.618C190.686 396.931 204.001 410.47 205.003 419.532C205.302 422.196 203.622 424.695 201.09 425.554C198.054 426.594 193.946 427.094 190.756 426.639C180.616 425.195 168.583 404.063 167.825 401.949Z" fill="url(#paint0_linear_10_96)"/>
<path d="M235.715 89.642L257.56 131.99C257.221 135.569 252.804 139.112 248.811 138.063C248.093 137.873 231.568 114.312 226.079 105.501C223.806 101.847 235.715 89.642 235.715 89.642Z" fill="#221C23"/>
<path d="M232.963 111.571C244.174 107.647 247.485 85.2613 235.69 78.9938C222.031 71.7367 204.898 94.4276 216.293 105.618C218.706 107.987 222.54 110.571 225.8 111.581C228.437 112.39 230.84 112.31 232.963 111.571Z" fill="#221C23"/>
<path d="M231.757 364.952C231.258 366.032 230.929 370.61 232.918 371.94C237.171 374.784 239.264 375.548 244.045 378.842C247.3 381.091 252.185 385.824 255.984 387.224C259.817 388.633 265.884 390.007 270.017 389.767C275.44 389.453 279.867 388.123 280.375 382.301C280.684 378.827 277.818 376.183 277.494 375.948C274.722 373.919 263.656 373.134 257.928 370.27C251.856 367.237 245.715 364.403 239.877 361.139C237.26 359.68 231.916 364.218 231.757 364.952Z" fill="#221C23"/>
<path d="M233.198 368.457C230.072 365.638 232.784 361.6 233.342 358.296C233.671 356.357 233.517 353.223 235.127 351.794C237.34 349.835 242.036 351.489 244.624 351.704C246.573 351.869 250.027 351.759 251.712 352.813C253.532 353.943 253.626 356.857 254.907 358.466C258.367 362.824 263.686 364.789 268.342 367.652C273.312 370.711 279.803 374.85 280.371 381.297C280.555 383.396 279.055 385.585 277.106 386.375C270.171 389.194 260.944 386.295 254.489 382.502C249.2 379.393 245.147 374.35 239.589 371.746C237.405 370.726 234.983 370.072 233.198 368.457Z" fill="url(#paint1_linear_10_96)"/>
<path d="M250.551 341.29C250.551 343.909 251.488 352.54 251.488 354.534C251.488 357.998 246.468 358.468 243.816 358.468C238.552 358.468 236.817 356.084 236.747 354.614L236.658 343.994C237.286 339.325 240.461 341.29 245.287 341.29C250.551 341.29 250.551 341.29 250.551 341.29Z" fill="#221C23"/>
<path d="M240.416 351.472C237.808 351.472 235.146 349.507 234.982 346.344C234.812 343.09 234.613 340.201 234.389 337.627C232.315 313.787 228.257 316.98 227.669 304.695C227.494 301.117 228.865 297.593 231.423 295.259C231.677 298.343 235.779 300.597 240.221 301.247V307.009C240.221 311.373 242.584 313.817 246.098 313.822C246.103 313.822 246.108 313.822 246.113 313.822C246.128 313.822 246.138 313.822 246.153 313.822C247.773 313.812 249.643 313.287 251.632 312.197C251.642 312.192 251.652 312.182 251.662 312.177C251.696 312.157 251.731 312.137 251.766 312.117C251.776 312.112 251.786 312.107 251.801 312.102C251.861 312.067 251.926 312.032 251.986 311.992L253.641 311.038C252.559 330.565 250.415 337.197 251.916 343.885C252.23 345.294 252.065 347.018 250.395 347.468C247.25 348.318 247.689 347.518 245.804 348.748C245.221 349.128 244.413 349.707 243.207 350.582C242.375 351.187 241.398 351.472 240.416 351.472Z" fill="url(#paint2_linear_10_96)"/>
<path d="M250.416 290.213C249.19 287.504 245.84 288.304 242.485 289.104C240.83 289.498 239.175 289.893 237.774 289.863C236.024 289.833 234.972 289.463 233.597 290.793C222.355 301.678 258.541 308.191 250.416 290.213Z" fill="#221C23"/>
<path d="M236.304 294.999C234.559 294.999 232.899 294.789 231.463 294.354C229.494 293.755 227.929 292.725 227.082 291.216C225.357 286.677 221 274.987 219.215 268.175C216.553 258.039 213.597 247.103 214.196 238.986C214.749 231.459 216.912 223.473 221.115 217.145C223.901 212.947 227.072 208.364 231.498 205.91C232.994 205.08 234.265 204.41 235.501 204.41C236.548 204.41 237.57 204.89 238.682 206.15C248.039 216.745 252.002 251.906 253.457 272.083L252.126 272.858C252.096 272.873 252.066 272.888 252.041 272.908L251.987 272.938C245.491 276.696 240.222 285.028 240.222 291.54V294.674C238.901 294.889 237.575 294.999 236.304 294.999Z" fill="url(#paint3_linear_10_96)"/>
<path d="M235.7 204.765C230.885 202.446 219.409 221.264 217.659 226.327C216.084 230.88 215.715 240.346 217.964 246.844C219.868 252.361 226.672 254.595 231.258 250.992C242.604 242.09 243.965 208.749 235.7 204.765Z" fill="#919CB4"/>
<path d="M209.658 215.124L221.637 234.057C230.82 245.197 235.74 228.244 235.884 215.999C235.969 208.402 233.033 205.203 221.214 185.486C216.069 188.7 209.588 212.96 209.658 215.124Z" fill="#221C23"/>
<path d="M202.72 230.921L197.341 262.164C186.693 262.853 178.777 250.983 174.744 239.038L176.997 211.749C185.352 207.83 205.372 222.06 202.72 230.921Z" fill="#221C23"/>
<path d="M235.765 192.622L169.674 202.458C169.41 204.038 170.203 206.941 170.233 208.546C170.352 214.678 181.972 215.388 192.127 220.961C195.965 223.07 199.569 226.044 201.279 230.082C206.748 242.977 218.672 240.428 220.77 230.952C222.186 224.539 223.567 217.342 227.4 210.595C229.798 206.362 231.558 205.302 234.708 201.419C235.406 200.554 235.765 199.459 235.765 198.35V192.622Z" fill="url(#paint4_linear_10_96)"/>
<path d="M229.066 184.904C218.049 179.611 197.321 180.986 182.77 187.973C168.224 194.965 165.362 204.921 176.379 210.214C187.396 215.507 208.119 214.127 222.67 207.14C237.221 200.153 240.082 190.197 229.066 184.904Z" fill="url(#paint5_linear_10_96)"/>
<path d="M231.264 153.827L230.481 190.418C230.023 208.081 176.997 211.749 175.686 201.563L172.601 168.022L231.264 153.827Z" fill="#221C23"/>
<path d="M169.619 171.235C172.889 182.68 183.283 187.973 194.609 184.405C200.81 182.451 206.428 179.007 210.396 175.114C217.021 168.611 223.786 164.453 231.877 164.768C233.611 164.833 235.042 163.398 235.012 161.659C234.18 115.752 237.799 83.7001 218.163 87.9833C199.175 92.1217 172.351 105.461 158.243 118.921C158.069 119.901 164.599 153.647 169.619 171.235Z" fill="url(#paint6_linear_10_96)"/>
<path d="M184.953 373.631C184.953 376.25 185.885 384.882 185.885 386.876C185.885 390.34 180.871 390.81 178.219 390.81C172.954 390.81 171.215 388.42 171.15 386.956L171.06 376.335C171.688 371.662 174.859 373.631 179.689 373.631C184.953 373.631 184.953 373.631 184.953 373.631Z" fill="#221C23"/>
<path d="M186.583 376.601C188.054 365.651 191.623 344.679 195.038 323.942C195.666 320.119 193.712 316.2 190.128 314.761C182.276 311.622 169.595 316.091 169.57 321.963C169.39 325.032 168.767 328.101 167.85 331.07C161.918 350.322 170.646 356.429 168.996 376.142C168.772 378.805 168.677 383.773 172.67 383.773C175.97 383.773 176.544 381.984 180.442 381.259C182.81 380.815 184.679 382.624 185.92 381.494C187.107 380.405 186.399 377.991 186.583 376.601Z" fill="url(#paint7_linear_10_96)"/>
<path d="M192.231 312.184C190.401 308.135 183.831 311.914 179.589 311.834C177.839 311.799 176.792 311.429 175.416 312.763C164.175 323.644 200.356 330.156 192.231 312.184Z" fill="#221C23"/>
<path d="M168.747 309.869C170.691 317.351 182.531 318.321 190.547 315.152C194.52 313.582 197.316 309.994 197.979 305.771C200.003 292.951 202.79 274.413 202.79 268.65C202.79 256.545 203.358 245.665 195.806 235.918C192.137 231.18 187.481 225.443 181.733 222.879C169.944 217.631 166.055 241.491 165.372 247.209C162.745 269.255 163.104 288.188 168.747 309.869Z" fill="url(#paint8_linear_10_96)"/>
<path d="M192.719 98.2035C191.364 98.7782 190.232 99.393 189.305 100.033C182.171 104.921 186.937 111.288 195.621 114.272C200.73 116.031 211.986 116.816 214.394 110.284C219.589 96.1593 201.284 94.5499 192.719 98.2035Z" fill="#919CB4"/>
<path d="M212.63 84.1965L177.606 74.8002C179.854 76.8094 188.164 101.999 189.933 106.023C193.114 113.255 210.676 114.14 212.62 107.742C213.009 104.428 212.63 84.1965 212.63 84.1965Z" fill="#221C23"/>
<path d="M217.425 50.4033C215.501 40.4873 194.834 28.9819 178.348 37.8633C170.487 42.1016 164.605 50.1834 165.896 64.9375C169.799 88.3432 193.109 89.8376 197.027 88.1783C200.307 86.7838 222.45 76.3529 217.425 50.4033Z" fill="#221C23"/>
<path d="M218.287 52.9751C215.994 44.2386 207.859 33.9828 194.389 43.1441C188.138 47.3924 181.014 57.8632 183.422 69.4535C189.14 96.9975 212.31 101.426 218.496 98.8019C221.881 97.3674 221.732 92.3894 221.861 88.6209C222.056 83.1531 223.392 80.4392 221.373 66.0649C220.74 61.5417 219.449 57.3934 218.287 52.9751Z" fill="url(#paint9_linear_10_96)"/>
<path d="M247.913 141.24C248.98 144.124 251.363 146.248 255.406 146.313C259.08 146.373 262.32 144.039 264.733 141.535C269.738 136.337 292.285 109.338 298.995 101.841C303.825 96.4433 294.359 91.4803 292.24 93.3645C284.02 100.682 255.904 121.818 250.66 127.681C247.629 131.069 246.338 136.982 247.913 141.24Z" fill="url(#paint10_linear_10_96)"/>
<path d="M300.529 98.4996C301.671 97.7649 305.769 91.9972 306.237 90.9226C307.344 88.3637 300.943 87.3291 298.341 88.4036C298.341 88.4036 294.263 91.5024 293.665 93.4666C292.967 95.7657 296.297 99.0893 298.989 99.0144C299.543 98.9994 300.061 98.8095 300.529 98.4996Z" fill="#221C23"/>
<path d="M175.253 235.09C175.253 235.09 174.281 238.524 173.274 243.862C172.237 249.179 171.23 256.357 170.666 263.574C170.083 270.796 169.999 278.053 170.173 283.491C170.223 286.21 170.377 288.469 170.477 290.053C170.577 291.638 170.632 292.542 170.632 292.542L170.392 292.832L170.103 292.592C170.103 292.592 170.024 291.688 169.884 290.103C169.739 288.514 169.52 286.25 169.395 283.521C169.071 278.068 168.952 270.776 169.346 263.489C169.714 256.207 170.527 248.94 171.429 243.532C172.297 238.129 173.209 234.54 173.209 234.54C173.348 233.971 173.927 233.626 174.495 233.766C175.063 233.911 175.407 234.49 175.263 235.06L175.253 235.09Z" fill="#359588"/>
<path d="M155.577 262.022C154.265 261.467 153.019 260.618 152.296 259.343C150.816 256.744 149.849 254.995 148.692 253.88C146.459 251.721 147.192 247.978 144.46 246.184C143.199 245.354 141.519 245.594 140.113 246.139C135.507 247.913 134.056 251.791 131.868 255.805C128.902 261.228 125.044 266.85 123.822 273.018C123.588 274.182 123.274 275.462 123.319 276.656C123.374 277.996 124.296 277.816 125.024 277.001C125.657 276.301 126.155 275.417 126.469 274.532L126.614 273.608C126.733 276.267 126.978 281.389 127.895 282.294C128.598 282.984 130.088 282.824 130.243 281.849C130.776 282.894 131.659 284.113 132.8 283.864C135.288 283.314 133.488 280.35 134.151 278.396C135.078 278.601 135.961 277.761 136.215 276.846C136.469 275.932 136.29 274.962 136.22 274.012C135.706 267.015 141.439 261.607 145.457 262.347C147.162 262.657 148.508 263.916 150.023 264.756C155.462 267.765 159.958 263.876 155.577 262.022Z" fill="url(#paint11_linear_10_96)"/>
<path d="M136.888 243.699C136.509 245.004 136.654 248.772 137.003 249.892C137.825 252.556 143.842 252.441 145.113 249.922C145.113 249.922 146.195 244.909 145.372 243.03C144.41 240.83 139.719 240.486 137.725 242.3C137.317 242.675 137.047 243.16 136.888 243.699Z" fill="#221C23"/>
<path d="M150.342 135.34L141.942 182.487C143.498 185.725 148.861 187.52 152.246 185.146C152.854 184.721 158.901 153.833 161.005 143.662L150.342 135.34Z" fill="#221C23"/>
<path d="M149.016 176.905C146.329 175.41 143.144 175.355 140.033 177.949C137.211 180.308 136.269 184.197 136.07 187.665C135.651 194.883 136.1 230.094 135.885 240.16C135.731 247.417 146.135 244.993 146.518 242.179C147.994 231.253 155.581 196.852 155.751 188.98C155.845 184.432 152.979 179.104 149.016 176.905Z" fill="url(#paint12_linear_10_96)"/>
<path d="M163.608 146.804C174.819 142.881 178.129 120.495 166.329 114.227C152.676 106.975 135.542 129.661 146.938 140.857C149.351 143.226 153.179 145.81 156.444 146.814C159.081 147.629 161.484 147.549 163.608 146.804Z" fill="#221C23"/>
<path d="M143.413 183.384C143.413 183.384 142.979 186.728 142.515 191.811C142.047 196.894 141.529 203.686 141.09 210.483C140.198 224.078 139.614 237.702 139.614 237.702L139.031 238.237L138.498 237.663C138.498 237.663 138.837 224.023 139.475 210.393C139.789 203.576 140.183 196.759 140.561 191.651C140.93 186.543 141.309 183.114 141.309 183.114C141.374 182.53 141.902 182.11 142.481 182.175C143.064 182.24 143.483 182.769 143.418 183.349L143.413 183.384Z" fill="#359588"/>
<path d="M175.602 173.857C178.338 177.001 182.226 180.625 186.244 178.68L180.841 142.79C180.841 142.79 178.239 147.728 172.127 150.472C171 150.977 170.248 152.061 170.362 153.296C170.846 158.603 171.275 168.884 175.602 173.857Z" fill="#221C23"/>
<path d="M303.945 96.8008C299.528 96.8008 296.343 94.3267 297.041 89.2188C297.041 89.2188 296.941 84.7656 305.351 76.6238C306.213 75.7892 308.746 73.775 311.602 71.6958C311.039 73.3901 310.725 75.0645 310.715 76.6389C310.715 76.6638 310.715 76.6888 310.715 76.7138V76.7188V88.0343C310.69 88.0643 310.67 88.0993 310.645 88.1293C308.845 90.7482 309.394 92.1176 310.715 92.1476V92.1826C310.715 93.2372 310.849 94.1768 311.109 94.9965C308.631 96.191 306.139 96.8008 303.945 96.8008Z" fill="url(#paint13_linear_10_96)"/>
<path d="M310.714 92.1475C309.393 92.1175 308.844 90.7481 310.644 88.1291C310.669 88.0991 310.689 88.0641 310.714 88.0341V92.1475Z" fill="url(#paint14_linear_10_96)"/>
<path d="M388.235 59.1064L322.478 97.1712C315.978 100.93 310.714 98.7006 310.714 92.1832V76.7194C310.714 70.202 315.978 61.8703 322.478 58.1118L388.235 20.0471C394.736 16.2836 400 18.5177 400 25.0301V40.4989C400 47.0113 394.736 55.3429 388.235 59.1064Z" fill="#4674CC"/>
<path d="M311.148 94.9336C310.893 94.1139 310.714 93.2243 310.714 92.1797V76.7158C310.714 76.6908 310.714 76.6609 310.714 76.6359C310.724 75.0615 311.048 73.3822 311.611 71.6879C315.684 68.7241 320.405 65.6253 321.87 65.6253C322 65.6253 322.105 65.6503 322.179 65.7003C323.63 66.6699 321.546 68.814 320.011 70.4134C318.839 71.6379 316.277 74.4817 315.19 76.0911L315.624 75.6563C316.048 75.3864 316.516 75.2515 316.96 75.2515C318.017 75.2515 318.949 76.0062 318.919 77.3856C318.969 77.3856 319.014 77.3856 319.059 77.3856C320.121 77.3856 321.013 78.2052 321.103 79.2698L321.367 79.4998C322.429 79.4948 323.53 80.3294 323.63 81.7389C323.785 83.893 322.857 86.0771 321.661 87.8164C321.133 88.5811 320.046 89.2509 319.298 89.2509C319.054 89.2509 318.844 89.1758 318.705 89.0159C316.477 91.6599 313.825 93.6291 311.148 94.9336Z" fill="#5083CC"/>
<path d="M307.334 279.962L251.986 311.994C245.49 315.758 240.221 313.523 240.221 307.011V291.542C240.221 285.03 245.49 276.698 251.986 272.94L307.334 240.902C313.829 237.139 319.098 239.373 319.098 245.885V261.354C319.098 267.867 313.829 276.198 307.334 279.962Z" fill="#4674CC"/>
<path d="M246.114 313.822C246.109 313.822 246.104 313.822 246.099 313.822C246.104 313.822 246.109 313.822 246.114 313.822ZM246.154 313.822C247.774 313.812 249.644 313.287 251.633 312.198C249.644 313.287 247.774 313.812 246.154 313.822ZM251.663 312.178C251.698 312.158 251.733 312.138 251.767 312.118C251.733 312.138 251.698 312.158 251.663 312.178ZM251.802 312.103C251.862 312.068 251.927 312.033 251.987 311.993C251.927 312.033 251.862 312.068 251.802 312.103Z" fill="url(#paint15_linear_10_96)"/>
<path d="M252.041 272.91C252.066 272.89 252.096 272.875 252.126 272.86L252.041 272.91Z" fill="url(#paint16_linear_10_96)"/>
<path d="M246.113 313.822C246.108 313.822 246.103 313.822 246.098 313.822C242.584 313.817 240.221 311.373 240.221 307.01V291.541C240.221 285.054 245.445 276.767 252.041 272.909L252.125 272.859C252.599 279.031 252.868 284.104 252.973 286.983C252.983 289.512 251.562 291.706 249.354 293.455C249.553 293.91 249.733 294.355 249.877 294.775C251.761 295.729 253.013 297.694 252.978 299.883C252.903 304.256 252.768 308.125 252.599 311.643L251.986 311.993C251.926 312.033 251.861 312.068 251.801 312.103C251.786 312.108 251.776 312.113 251.766 312.118C251.732 312.138 251.697 312.158 251.662 312.178C251.652 312.183 251.642 312.193 251.632 312.198C249.643 313.287 247.773 313.812 246.153 313.822C246.138 313.822 246.128 313.822 246.113 313.822Z" fill="#5083CC"/>
<defs>
<linearGradient id="paint0_linear_10_96" x1="172.9" y1="412.06" x2="190.369" y2="402.103" gradientUnits="userSpaceOnUse">
<stop stop-color="#BCC1CD"/>
<stop offset="1" stop-color="#F3F6FC"/>
</linearGradient>
<linearGradient id="paint1_linear_10_96" x1="248.033" y1="377.464" x2="261.778" y2="363.755" gradientUnits="userSpaceOnUse">
<stop stop-color="#BCC1CD"/>
<stop offset="1" stop-color="#F3F6FC"/>
</linearGradient>
<linearGradient id="paint2_linear_10_96" x1="214.209" y1="321.184" x2="254.156" y2="321.184" gradientUnits="userSpaceOnUse">
<stop stop-color="#BCC1CD"/>
<stop offset="1" stop-color="#F3F6FC"/>
</linearGradient>
<linearGradient id="paint3_linear_10_96" x1="214.116" y1="249.707" x2="254.193" y2="249.707" gradientUnits="userSpaceOnUse">
<stop stop-color="#BCC1CD"/>
<stop offset="1" stop-color="#F3F6FC"/>
</linearGradient>
<linearGradient id="paint4_linear_10_96" x1="169.62" y1="215.773" x2="235.767" y2="215.773" gradientUnits="userSpaceOnUse">
<stop stop-color="#BCC1CD"/>
<stop offset="1" stop-color="#F3F6FC"/>
</linearGradient>
<linearGradient id="paint5_linear_10_96" x1="174.684" y1="205.446" x2="229.48" y2="190.108" gradientUnits="userSpaceOnUse">
<stop stop-color="#E8EEF9"/>
<stop offset="1" stop-color="#F8FBFE"/>
</linearGradient>
<linearGradient id="paint6_linear_10_96" x1="158.238" y1="136.554" x2="235.011" y2="136.554" gradientUnits="userSpaceOnUse">
<stop stop-color="#BCC1CD"/>
<stop offset="1" stop-color="#F3F6FC"/>
</linearGradient>
<linearGradient id="paint7_linear_10_96" x1="163.802" y1="348.747" x2="202.218" y2="348.747" gradientUnits="userSpaceOnUse">
<stop stop-color="#BCC1CD"/>
<stop offset="1" stop-color="#F3F6FC"/>
</linearGradient>
<linearGradient id="paint8_linear_10_96" x1="163.797" y1="269.495" x2="202.802" y2="269.495" gradientUnits="userSpaceOnUse">
<stop stop-color="#BCC1CD"/>
<stop offset="1" stop-color="#F3F6FC"/>
</linearGradient>
<linearGradient id="paint9_linear_10_96" x1="182.824" y1="84.8274" x2="219.979" y2="63.1221" gradientUnits="userSpaceOnUse">
<stop stop-color="#E8EEF9"/>
<stop offset="1" stop-color="#F8FBFE"/>
</linearGradient>
<linearGradient id="paint10_linear_10_96" x1="247.24" y1="119.634" x2="300.352" y2="119.634" gradientUnits="userSpaceOnUse">
<stop stop-color="#BCC1CD"/>
<stop offset="1" stop-color="#F3F6FC"/>
</linearGradient>
<linearGradient id="paint11_linear_10_96" x1="123.314" y1="264.771" x2="157.341" y2="264.771" gradientUnits="userSpaceOnUse">
<stop stop-color="#BCC1CD"/>
<stop offset="1" stop-color="#F3F6FC"/>
</linearGradient>
<linearGradient id="paint12_linear_10_96" x1="135.88" y1="210.411" x2="155.75" y2="210.411" gradientUnits="userSpaceOnUse">
<stop stop-color="#BCC1CD"/>
<stop offset="1" stop-color="#F3F6FC"/>
</linearGradient>
<linearGradient id="paint13_linear_10_96" x1="295.062" y1="103.943" x2="318.149" y2="74.8929" gradientUnits="userSpaceOnUse">
<stop stop-color="#BCC1CD"/>
<stop offset="1" stop-color="#F3F6FC"/>
</linearGradient>
<linearGradient id="paint14_linear_10_96" x1="289.846" y1="97.0005" x2="322.419" y2="80.0662" gradientUnits="userSpaceOnUse">
<stop stop-color="#BCC1CD"/>
<stop offset="1" stop-color="#F3F6FC"/>
</linearGradient>
<linearGradient id="paint15_linear_10_96" x1="214.21" y1="321.184" x2="254.157" y2="321.184" gradientUnits="userSpaceOnUse">
<stop stop-color="#C4DAF2"/>
<stop offset="1" stop-color="#F2FBFE"/>
</linearGradient>
<linearGradient id="paint16_linear_10_96" x1="213.983" y1="249.715" x2="254.2" y2="249.715" gradientUnits="userSpaceOnUse">
<stop stop-color="#C4DAF2"/>
<stop offset="1" stop-color="#F2FBFE"/>
</linearGradient>
</defs>
</svg>
