<svg width="250" height="372" viewBox="0 0 250 372" fill="none" xmlns="http://www.w3.org/2000/svg">
<path d="M119.932 363.427H101.747L1.40143 306.875L19.8747 296.465L119.774 352.765L210.74 301.499L220.278 306.875L119.932 363.427Z" fill="#25306C"/>
<path d="M119.774 361.818L19.4246 305.27V296.214L119.774 352.765V361.818Z" fill="#314AA6"/>
<path d="M220.12 305.27L119.774 361.818V352.765L220.12 296.214V305.27Z" fill="#3C56AF"/>
<path d="M236.399 316.906V317.442L238.693 316.142V315.605L236.399 316.906Z" fill="#BBC1CD"/>
<path d="M232.148 311.916C231.314 311.447 230.507 310.776 229.783 309.969C228.938 309.034 228.206 307.914 227.661 306.711L227.571 306.51L225.672 302.136L225.573 301.905C224.986 300.611 224.193 299.404 223.283 298.392C222.489 297.514 221.61 296.78 220.7 296.267L215.986 293.609L213.692 294.91L218.407 297.568C219.317 298.081 220.196 298.814 220.989 299.693C221.899 300.705 222.692 301.911 223.279 303.205L223.379 303.436L225.278 307.81L225.367 308.011C225.913 309.215 226.644 310.334 227.489 311.269C228.213 312.077 229.02 312.747 229.855 313.22L236.399 316.906L238.693 315.606L232.148 311.916Z" fill="url(#paint0_linear_4_15128)"/>
<path d="M218.406 297.567C220.422 298.703 222.3 300.922 223.382 303.436L225.277 307.81C226.28 310.132 228 312.173 229.854 313.219L236.399 316.906V317.442L229.851 313.752C227.839 312.619 225.961 310.397 224.879 307.883L222.984 303.51C221.981 301.19 220.261 299.149 218.406 298.103L213.689 295.446L213.692 294.909L218.406 297.567Z" fill="#919CB4"/>
<path d="M222.668 324.645L222.664 325.182L224.958 323.881L224.961 323.345L222.668 324.645Z" fill="#BBC1CD"/>
<path d="M218.413 319.655C217.582 319.186 216.775 318.515 216.047 317.707C215.206 316.772 214.471 315.653 213.929 314.45L213.84 314.249L211.941 309.875L211.838 309.643C211.254 308.35 210.461 307.143 209.551 306.131C208.758 305.253 207.875 304.519 206.969 304.006L202.251 301.348L199.957 302.649L204.675 305.31C205.582 305.819 206.464 306.553 207.257 307.435C208.167 308.444 208.96 309.65 209.544 310.944L209.647 311.175L211.546 315.552L211.635 315.75C212.178 316.953 212.912 318.073 213.754 319.011C214.482 319.816 215.289 320.489 216.119 320.958L222.668 324.645L224.961 323.345L218.413 319.655Z" fill="url(#paint1_linear_4_15128)"/>
<path d="M204.675 305.31C206.687 306.443 208.565 308.662 209.647 311.175L211.546 315.552C212.548 317.872 214.265 319.913 216.123 320.959L222.668 324.645L222.664 325.182L216.119 321.492C214.107 320.359 212.229 318.14 211.148 315.623L209.249 311.249C208.246 308.93 206.529 306.889 204.672 305.843L199.957 303.185V302.649L204.675 305.31Z" fill="#919CB4"/>
<path d="M208.933 332.384V332.92L211.227 331.62V331.084L208.933 332.384Z" fill="#BBC1CD"/>
<path d="M204.682 327.397C203.847 326.924 203.041 326.254 202.316 325.446C201.475 324.511 200.74 323.392 200.194 322.188L200.105 321.987L198.209 317.613L198.106 317.382C197.519 316.088 196.726 314.882 195.816 313.87C195.023 312.992 194.144 312.258 193.234 311.745L188.519 309.087L186.226 310.391L190.94 313.049C191.85 313.558 192.729 314.292 193.522 315.173C194.432 316.182 195.225 317.392 195.813 318.683L195.916 318.917L197.811 323.291L197.9 323.489C198.446 324.692 199.181 325.812 200.022 326.75C200.747 327.554 201.554 328.228 202.388 328.697L208.933 332.384L211.226 331.084L204.682 327.397Z" fill="url(#paint2_linear_4_15128)"/>
<path d="M190.94 313.049C192.956 314.182 194.834 316.4 195.916 318.917L197.811 323.291C198.814 325.611 200.534 327.652 202.388 328.697L208.933 332.384V332.92L202.388 329.23C200.373 328.097 198.495 325.879 197.413 323.362L195.518 318.988C194.515 316.668 192.795 314.627 190.94 313.582L186.223 310.924L186.226 310.391L190.94 313.049Z" fill="#919CB4"/>
<path d="M195.202 340.123L195.198 340.659L197.492 339.359L197.495 338.822L195.202 340.123Z" fill="#BBC1CD"/>
<path d="M190.951 335.135C190.116 334.663 189.309 333.992 188.585 333.185C187.74 332.25 187.005 331.13 186.463 329.927L186.374 329.726L184.475 325.352L184.372 325.121C183.788 323.827 182.995 322.62 182.085 321.612C181.292 320.73 180.413 319.996 179.503 319.483L174.785 316.826L172.491 318.129L177.209 320.787C178.119 321.296 178.998 322.031 179.791 322.912C180.701 323.924 181.494 325.131 182.078 326.421L182.181 326.656L184.08 331.03L184.169 331.231C184.712 332.431 185.446 333.55 186.291 334.488C187.016 335.293 187.823 335.967 188.657 336.436L195.202 340.123L197.495 338.822L190.951 335.135Z" fill="url(#paint3_linear_4_15128)"/>
<path d="M177.209 320.787C179.225 321.92 181.099 324.139 182.181 326.656L184.08 331.03C185.083 333.349 186.799 335.39 188.657 336.436L195.202 340.123L195.198 340.659L188.654 336.969C186.641 335.836 184.763 333.617 183.682 331.103L181.783 326.726C180.78 324.407 179.063 322.366 177.209 321.32L172.491 318.662V318.129L177.209 320.787Z" fill="#919CB4"/>
<path d="M181.467 347.861V348.398L183.761 347.097V346.561L181.467 347.861Z" fill="#BBC1CD"/>
<path d="M177.217 342.875C176.382 342.406 175.579 341.732 174.851 340.928C174.009 339.989 173.275 338.87 172.729 337.666L172.643 337.469L170.744 333.092L170.641 332.86C170.054 331.567 169.261 330.36 168.351 329.351C167.561 328.47 166.678 327.736 165.772 327.226L161.054 324.565L158.76 325.869L163.478 328.527C164.385 329.036 165.267 329.77 166.057 330.652C166.967 331.664 167.76 332.87 168.347 334.161L168.45 334.395L170.349 338.769L170.435 338.97C170.981 340.17 171.716 341.29 172.557 342.228C173.285 343.036 174.088 343.706 174.923 344.175L181.467 347.862L183.761 346.562L177.217 342.875Z" fill="url(#paint4_linear_4_15128)"/>
<path d="M163.478 328.526C165.49 329.659 167.369 331.881 168.45 334.395L170.349 338.769C171.348 341.088 173.069 343.129 174.923 344.175L181.467 347.861V348.398L174.923 344.711C172.907 343.575 171.029 341.356 169.951 338.842L168.052 334.468C167.049 332.146 165.329 330.105 163.475 329.059L158.76 326.401V325.868L163.478 328.526Z" fill="#919CB4"/>
<path d="M167.736 355.601L167.732 356.137L170.026 354.837L170.029 354.3L167.736 355.601Z" fill="#BBC1CD"/>
<path d="M163.485 350.614C162.651 350.144 161.844 349.471 161.119 348.666C160.275 347.728 159.54 346.608 158.997 345.409L158.908 345.207L157.009 340.834L156.906 340.599C156.322 339.309 155.529 338.099 154.619 337.09C153.826 336.208 152.947 335.474 152.037 334.965L147.323 332.307L145.029 333.608L149.743 336.265C150.653 336.778 151.532 337.509 152.326 338.39C153.236 339.402 154.029 340.609 154.612 341.899L154.715 342.134L156.614 346.508L156.704 346.709C157.246 347.909 157.981 349.028 158.826 349.967C159.55 350.774 160.357 351.445 161.191 351.914L167.736 355.601L170.03 354.3L163.485 350.614Z" fill="url(#paint5_linear_4_15128)"/>
<path d="M149.743 336.265C151.759 337.398 153.637 339.62 154.715 342.134L156.614 346.508C157.617 348.827 159.337 350.868 161.191 351.914L167.736 355.601L167.732 356.137L161.188 352.45C159.175 351.314 157.297 349.095 156.216 346.582L154.317 342.208C153.318 339.885 151.597 337.844 149.743 336.798L145.025 334.141L145.029 333.608L149.743 336.265Z" fill="#919CB4"/>
<path d="M154.001 363.34V363.876L156.295 362.576V362.039L154.001 363.34Z" fill="#BBC1CD"/>
<path d="M149.75 358.352C148.919 357.883 148.112 357.209 147.384 356.405C146.543 355.467 145.808 354.347 145.266 353.147L145.176 352.946L143.277 348.572L143.174 348.338C142.591 347.047 141.798 345.841 140.888 344.829C140.094 343.947 139.212 343.213 138.305 342.704L133.588 340.046L131.294 341.346L136.012 344.004C136.918 344.517 137.801 345.248 138.594 346.129C139.504 347.141 140.297 348.348 140.881 349.638L140.984 349.873L142.883 354.247L142.972 354.448C143.514 355.648 144.249 356.767 145.09 357.706C145.818 358.513 146.625 359.184 147.456 359.653L154.001 363.34L156.295 362.039L149.75 358.352Z" fill="url(#paint6_linear_4_15128)"/>
<path d="M136.012 344.004C138.024 345.137 139.902 347.359 140.984 349.873L142.883 354.247C143.885 356.566 145.602 358.607 147.456 359.653L154.001 363.343V363.876L147.456 360.189C145.441 359.053 143.566 356.834 142.484 354.321L140.585 349.947C139.583 347.624 137.863 345.583 136.008 344.537L131.294 341.879V341.346L136.012 344.004Z" fill="#919CB4"/>
<path d="M140.27 371.082V371.615L142.563 370.314V369.778L140.27 371.082Z" fill="#BBC1CD"/>
<path d="M136.019 366.091C135.184 365.622 134.377 364.952 133.653 364.144C132.808 363.206 132.077 362.086 131.531 360.886L131.441 360.685L129.543 356.311L129.443 356.077C128.856 354.786 128.063 353.58 127.153 352.567C126.36 351.686 125.481 350.955 124.571 350.443L119.856 347.785L117.562 349.085L122.277 351.743C123.187 352.256 124.066 352.986 124.859 353.868C125.769 354.88 126.562 356.087 127.149 357.377L127.249 357.612L129.148 361.986L129.237 362.187C129.783 363.386 130.514 364.506 131.359 365.444C132.084 366.252 132.89 366.922 133.725 367.392L140.269 371.082L142.563 369.778L136.019 366.091Z" fill="url(#paint7_linear_4_15128)"/>
<path d="M122.277 351.743C124.293 352.879 126.171 355.098 127.253 357.611L129.148 361.985C130.151 364.305 131.871 366.346 133.725 367.391L140.27 371.082V371.615L133.725 367.928C131.71 366.792 129.831 364.573 128.75 362.059L126.851 357.685C125.852 355.363 124.131 353.321 122.277 352.279L117.559 349.621L117.563 349.085L122.277 351.743Z" fill="#919CB4"/>
<path d="M57.2262 260.053L63.7433 263.726C65.2336 264.568 66.607 264.688 67.6303 264.108L65.3365 265.409C64.3133 265.989 62.9398 265.868 61.4496 265.03L54.9325 261.357L57.2262 260.053Z" fill="#E9EFF9"/>
<path d="M66.466 265.325L68.382 263.103L69.0928 262.509L71.3864 261.209L70.6757 261.799L68.7597 264.024L67.9699 264.681L65.6762 265.982L66.466 265.325Z" fill="#919CB4"/>
<path d="M43.491 267.795L50.0116 271.468C51.4984 272.306 52.8753 272.427 53.8985 271.847L51.6048 273.148C50.5816 273.727 49.2047 273.607 47.7179 272.769L41.1973 269.095L43.491 267.795Z" fill="#E9EFF9"/>
<path d="M52.7314 273.064L54.6508 270.841L55.3616 270.252L57.6553 268.948L56.9446 269.538L55.0251 271.763L54.2354 272.42L51.9417 273.72L52.7314 273.064Z" fill="#919CB4"/>
<path d="M41.1973 269.096L47.7179 272.769C49.5996 273.828 51.2992 273.745 52.3362 272.545L54.2281 270.306C55.3441 269.029 57.2017 268.915 59.2448 270.065L63.9592 272.722V273.289L59.2413 270.631C57.3871 269.585 55.6634 269.656 54.6505 270.842L52.7311 273.064C51.6151 274.368 49.7575 274.452 47.7145 273.302L41.1973 269.629V269.096Z" fill="#919CB4"/>
<path d="M63.9598 272.722L66.2535 271.422V271.988L63.9598 273.289V272.722Z" fill="#919CB4"/>
<path d="M57.2979 268.365C58.4104 267.735 59.9178 267.852 61.5385 268.764L66.2529 271.422L63.9592 272.722L59.2447 270.064C57.624 269.152 56.1167 269.035 55.0042 269.665L57.2979 268.365Z" fill="#E9EFF9"/>
<path d="M29.7596 275.534L36.2768 279.207C37.767 280.045 39.1405 280.166 40.1637 279.586L37.87 280.887C36.8467 281.47 35.4733 281.346 33.9831 280.508L27.4659 276.834L29.7596 275.534Z" fill="#E9EFF9"/>
<path d="M39 280.803L40.916 278.581L41.6268 277.991L43.9205 276.687L43.2097 277.281L41.2938 279.503L40.504 280.159L38.2103 281.46L39 280.803Z" fill="#919CB4"/>
<path d="M27.4659 276.835L33.9831 280.508C35.8647 281.567 37.5644 281.483 38.6048 280.283L40.4933 278.045C41.6127 276.768 43.4703 276.654 45.5099 277.803L50.2278 280.461L50.2244 281.028L45.5099 278.37C43.6557 277.324 41.9286 277.394 40.9157 278.581L38.9997 280.803C37.8803 282.107 36.0227 282.191 33.9831 281.041L27.4659 277.368V276.835Z" fill="#919CB4"/>
<path d="M50.228 280.461L52.5218 279.16L52.5183 279.727L50.2246 281.027L50.228 280.461Z" fill="#919CB4"/>
<path d="M43.5665 276.104C44.6756 275.473 46.1829 275.591 47.8036 276.502L52.5215 279.16L50.2278 280.461L45.5099 277.803C43.8892 276.891 42.3853 276.774 41.2728 277.404L43.5665 276.104Z" fill="#E9EFF9"/>
<path d="M16.0282 283.273L22.5454 286.946C24.0356 287.784 25.4091 287.905 26.4323 287.325L24.1386 288.625C23.1154 289.209 21.7419 289.085 20.2517 288.247L13.7346 284.573L16.0282 283.273Z" fill="#E9EFF9"/>
<path d="M25.2689 288.542L27.1849 286.32L27.8957 285.73L30.1894 284.426L29.4786 285.019L27.5626 287.241L26.7694 287.898L24.4757 289.198L25.2689 288.542Z" fill="#919CB4"/>
<path d="M13.7348 284.573L20.252 288.247C22.1336 289.306 23.8333 289.222 24.8702 288.022L26.7622 285.783C27.8816 284.506 29.7392 284.392 31.7788 285.545L36.4933 288.203V288.766L31.7754 286.108C29.9212 285.063 28.1975 285.133 27.1845 286.32L25.2686 288.542C24.1492 289.845 22.2916 289.933 20.252 288.78L13.7314 285.106L13.7348 284.573Z" fill="#919CB4"/>
<path d="M36.4932 288.203L38.7869 286.899V287.465L36.4932 288.766V288.203Z" fill="#919CB4"/>
<path d="M29.832 283.843C30.9445 283.213 32.4519 283.33 34.0726 284.242L38.787 286.899L36.4933 288.203L31.7789 285.545C30.1582 284.63 28.6508 284.513 27.5383 285.143L29.832 283.843Z" fill="#E9EFF9"/>
<path d="M2.29368 291.012L8.81425 294.685C10.301 295.523 11.6745 295.647 12.6978 295.064L10.404 296.364C9.38081 296.947 8.00735 296.823 6.52057 295.985L0 292.312L2.29368 291.012Z" fill="#E9EFF9"/>
<path d="M11.5341 296.28L13.4535 294.058L14.1609 293.468L16.4545 292.168L15.7472 292.758L13.8278 294.98L13.038 295.637L10.7443 296.937L11.5341 296.28Z" fill="#919CB4"/>
<path d="M0 292.312L6.52057 295.985C8.39879 297.045 10.0985 296.961 11.1389 295.761L13.0274 293.522C14.1468 292.245 16.0044 292.135 18.044 293.284L22.7619 295.942V296.505L18.044 293.847C16.1898 292.801 14.4627 292.872 13.4532 294.058L11.5337 296.28C10.4144 297.588 8.55674 297.671 6.51713 296.522L0 292.848V292.312Z" fill="#919CB4"/>
<path d="M22.7618 295.942L25.0556 294.639L25.0521 295.205L22.7618 296.505V295.942Z" fill="#919CB4"/>
<path d="M16.1006 291.581C17.2131 290.951 18.7171 291.069 20.3378 291.98L25.0556 294.638L22.7619 295.942L18.044 293.284C16.4233 292.369 14.9194 292.252 13.8069 292.885L16.1006 291.581Z" fill="#E9EFF9"/>
<path d="M2.97715 317.292L2.98059 317.828L0.686909 316.528L0.683472 315.991L2.97715 317.292Z" fill="#919CB4"/>
<path d="M7.22806 312.305C8.06244 311.832 8.86936 311.162 9.59387 310.354C10.4386 309.419 11.1734 308.299 11.7159 307.096L11.8052 306.895L13.704 302.521L13.807 302.29C14.3907 300.996 15.1839 299.79 16.0939 298.777C16.887 297.899 17.7661 297.165 18.676 296.652L23.3904 293.995L25.6841 295.295L20.9697 297.956C20.0597 298.466 19.1807 299.2 18.3875 300.081C17.4776 301.09 16.6845 302.297 16.1007 303.59L15.9977 303.822L14.0989 308.199L14.0096 308.397C13.4671 309.6 12.7323 310.719 11.8876 311.658C11.1631 312.462 10.3562 313.136 9.52178 313.605L2.97715 317.292L0.683472 315.991L7.22806 312.305Z" fill="url(#paint8_linear_4_15128)"/>
<path d="M20.9696 297.956C18.954 299.089 17.0758 301.308 15.9976 303.822L14.0988 308.199C13.0961 310.518 11.3759 312.559 9.52168 313.605L2.97705 317.292L2.98049 317.828L9.52511 314.138C11.5373 313.005 13.4155 310.786 14.4971 308.269L16.3959 303.895C17.3951 301.576 19.1154 299.535 20.9696 298.489L25.6875 295.831L25.684 295.299L20.9696 297.956Z" fill="#BBC1CD"/>
<path d="M16.7123 325.031V325.567L14.4186 324.267V323.73L16.7123 325.031Z" fill="#919CB4"/>
<path d="M20.9632 320.043C21.7942 319.571 22.6011 318.9 23.329 318.093C24.1703 317.158 24.9051 316.038 25.4476 314.835L25.5369 314.634L27.4357 310.26L27.5387 310.029C28.1225 308.735 28.9157 307.528 29.8256 306.516C30.6188 305.638 31.5012 304.904 32.4077 304.391L37.1256 301.733L39.4193 303.037L34.7014 305.695C33.7949 306.205 32.9124 306.938 32.1193 307.82C31.2093 308.829 30.4162 310.039 29.8325 311.329L29.7294 311.564L27.8306 315.938L27.7413 316.139C27.1988 317.339 26.464 318.458 25.6228 319.396C24.8948 320.201 24.0879 320.875 23.2569 321.344L16.7123 325.031L14.4186 323.73L20.9632 320.043Z" fill="url(#paint9_linear_4_15128)"/>
<path d="M34.7013 305.695C32.6892 306.828 30.8109 309.047 29.7293 311.564L27.8305 315.938C26.8279 318.257 25.111 320.298 23.2568 321.344L16.7122 325.031V325.567L23.2568 321.877C25.2724 320.744 27.1472 318.525 28.2288 316.008L30.1277 311.634C31.1303 309.315 32.8506 307.274 34.7047 306.228L39.4192 303.57V303.037L34.7013 305.695Z" fill="#BBC1CD"/>
<path d="M30.443 332.769V333.306L28.1494 332.005V331.469L30.443 332.769Z" fill="#919CB4"/>
<path d="M34.6939 327.782C35.5283 327.31 36.3352 326.639 37.0598 325.831C37.9044 324.896 38.6358 323.777 39.1818 322.574L39.2711 322.376L41.1665 317.999L41.2695 317.767C41.8566 316.474 42.6498 315.267 43.5597 314.258C44.3529 313.377 45.232 312.643 46.1419 312.13L50.8563 309.472L53.15 310.776L48.4356 313.434C47.5256 313.943 46.6466 314.677 45.8534 315.559C44.9435 316.571 44.1503 317.778 43.5632 319.068L43.4601 319.303L41.5647 323.676L41.4755 323.878C40.9295 325.077 40.1947 326.197 39.3535 327.135C38.629 327.94 37.822 328.613 36.9877 329.083L30.443 332.769L28.1494 331.469L34.6939 327.782Z" fill="url(#paint10_linear_4_15128)"/>
<path d="M48.4361 313.434C46.4206 314.567 44.5423 316.786 43.4607 319.303L41.5653 323.676C40.5627 325.996 38.8424 328.037 36.9882 329.083L30.4436 332.769V333.306L36.9882 329.616C39.0038 328.483 40.882 326.264 41.9636 323.75L43.859 319.373C44.8617 317.054 46.5819 315.013 48.4361 313.967L53.154 311.309L53.1506 310.776L48.4361 313.434Z" fill="#BBC1CD"/>
<path d="M44.1744 340.508L44.1779 341.044L41.8842 339.744L41.8807 339.208L44.1744 340.508Z" fill="#919CB4"/>
<path d="M48.4253 335.521C49.2597 335.052 50.0666 334.378 50.7946 333.574C51.6358 332.635 52.3707 331.516 52.9132 330.312L53.0025 330.115L54.9013 325.741L55.0043 325.506C55.588 324.213 56.3812 323.006 57.2911 321.997C58.0843 321.116 58.9668 320.382 59.8733 319.872L64.5911 317.214L66.8848 318.515L62.1669 321.173C61.2604 321.685 60.378 322.416 59.5848 323.297C58.6749 324.31 57.8817 325.516 57.298 326.807L57.195 327.041L55.2961 331.415L55.2069 331.616C54.6643 332.816 53.9295 333.936 53.0883 334.874C52.3604 335.682 51.5534 336.352 50.719 336.821L44.1744 340.508L41.8807 339.208L48.4253 335.521Z" fill="url(#paint11_linear_4_15128)"/>
<path d="M62.1669 321.173C60.1548 322.306 58.2765 324.528 57.1949 327.041L55.2961 331.415C54.2935 333.735 52.5766 335.776 50.719 336.821L44.1744 340.508L44.1778 341.044L50.7224 337.358C52.7346 336.221 54.6128 334.003 55.6944 331.489L57.5933 327.115C58.5959 324.792 60.3127 322.751 62.1703 321.706L66.8848 319.048V318.515L62.1669 321.173Z" fill="#BBC1CD"/>
<path d="M57.909 348.247V348.783L55.6153 347.483V346.947L57.909 348.247Z" fill="#919CB4"/>
<path d="M62.1599 343.26C62.9943 342.791 63.8012 342.117 64.5257 341.313C65.3669 340.374 66.1018 339.255 66.6477 338.055L66.737 337.854L68.6324 333.48L68.7354 333.245C69.3226 331.955 70.1158 330.745 71.0257 329.736C71.8154 328.855 72.6979 328.121 73.6078 327.611L78.3223 324.954L80.6159 326.254L75.9015 328.912C74.9916 329.425 74.1091 330.155 73.3194 331.037C72.4094 332.049 71.6163 333.256 71.0291 334.546L70.9261 334.78L69.0307 339.154L68.9414 339.355C68.3955 340.555 67.6607 341.675 66.8194 342.613C66.0949 343.421 65.288 344.091 64.4536 344.561L57.909 348.247L55.6153 346.947L62.1599 343.26Z" fill="url(#paint12_linear_4_15128)"/>
<path d="M75.9014 328.911C73.8858 330.044 72.0076 332.266 70.926 334.78L69.0306 339.154C68.028 341.473 66.3077 343.515 64.4535 344.56L57.9089 348.247V348.783L64.4535 345.096C66.4691 343.96 68.3473 341.741 69.4255 339.228L71.3243 334.854C72.3269 332.531 74.0472 330.49 75.9014 329.444L80.6193 326.787L80.6158 326.254L75.9014 328.911Z" fill="#BBC1CD"/>
<path d="M71.6404 355.986L71.6438 356.522L69.3501 355.222L69.3467 354.686L71.6404 355.986Z" fill="#919CB4"/>
<path d="M75.8913 350.999C76.7257 350.53 77.5326 349.856 78.2571 349.052C79.1018 348.113 79.8366 346.994 80.3791 345.794L80.4684 345.593L82.3672 341.219L82.4702 340.984C83.0539 339.694 83.8471 338.487 84.7571 337.475C85.5502 336.594 86.4293 335.86 87.3392 335.35L92.0571 332.692L94.3508 333.993L89.6329 336.651C88.723 337.163 87.8439 337.894 87.0507 338.776C86.1408 339.788 85.3477 340.994 84.7639 342.285L84.6609 342.519L82.7621 346.893L82.6728 347.094C82.1303 348.294 81.3955 349.414 80.5508 350.352C79.8263 351.16 79.0194 351.83 78.185 352.299L71.6404 355.986L69.3467 354.686L75.8913 350.999Z" fill="url(#paint13_linear_4_15128)"/>
<path d="M89.6328 336.651C87.6172 337.787 85.7424 340.006 84.6608 342.519L82.762 346.893C81.7594 349.213 80.0391 351.254 78.1849 352.299L71.6403 355.99L71.6437 356.522L78.1883 352.836C80.2005 351.699 82.0787 349.481 83.1603 346.967L85.0592 342.593C86.0618 340.27 87.7786 338.229 89.6328 337.187L94.3507 334.526V333.993L89.6328 336.651Z" fill="#BBC1CD"/>
<path d="M85.3756 363.728V364.261L83.0818 362.961V362.424L85.3756 363.728Z" fill="#919CB4"/>
<path d="M89.6264 358.738C90.4608 358.269 91.2643 357.598 91.9922 356.791C92.8335 355.852 93.5683 354.733 94.1143 353.533L94.2001 353.332L96.099 348.958L96.202 348.723C96.7857 347.433 97.5823 346.226 98.4922 345.214C99.282 344.333 100.164 343.602 101.071 343.089L105.789 340.431L108.082 341.732L103.365 344.39C102.458 344.903 101.576 345.633 100.786 346.515C99.876 347.527 99.0794 348.733 98.4957 350.024L98.3926 350.258L96.4938 354.632L96.408 354.833C95.862 356.033 95.1272 357.156 94.286 358.091C93.558 358.899 92.7545 359.569 91.9202 360.038L85.3756 363.729L83.0818 362.425L89.6264 358.738Z" fill="url(#paint14_linear_4_15128)"/>
<path d="M103.365 344.39C101.352 345.526 99.4742 347.744 98.3926 350.258L96.4937 354.632C95.4945 356.951 93.7743 358.992 91.9201 360.038L85.3755 363.728V364.261L91.9201 360.574C93.9356 359.438 95.8139 357.219 96.892 354.706L98.7909 350.332C99.7935 348.009 101.514 345.968 103.368 344.926L108.082 342.268V341.732L103.365 344.39Z" fill="#BBC1CD"/>
<path d="M99.107 371.467L99.1104 372L96.8167 370.7L96.8132 370.163L99.107 371.467Z" fill="#919CB4"/>
<path d="M103.358 366.477C104.192 366.007 104.999 365.337 105.724 364.529C106.568 363.591 107.303 362.472 107.846 361.272L107.935 361.071L109.834 356.697L109.937 356.462C110.52 355.172 111.314 353.965 112.224 352.953C113.017 352.072 113.896 351.341 114.806 350.828L119.52 348.17L121.814 349.471L117.099 352.128C116.19 352.641 115.311 353.372 114.517 354.253C113.607 355.266 112.814 356.472 112.227 357.766L112.127 357.997L110.229 362.371L110.139 362.572C109.597 363.772 108.862 364.895 108.017 365.83C107.293 366.638 106.486 367.308 105.652 367.777L99.107 371.467L96.8132 370.163L103.358 366.477Z" fill="url(#paint15_linear_4_15128)"/>
<path d="M117.099 352.128C115.084 353.264 113.206 355.483 112.127 357.997L110.229 362.371C109.226 364.693 107.506 366.731 105.651 367.777L99.1069 371.467L99.1103 372L105.655 368.313C107.667 367.177 109.545 364.958 110.627 362.445L112.526 358.071C113.525 355.748 115.245 353.71 117.099 352.665L121.817 350.007L121.814 349.47L117.099 352.128Z" fill="#BBC1CD"/>
<path d="M209.617 275.92L203.1 279.593C201.609 280.431 200.236 280.552 199.213 279.972L201.506 281.272C202.53 281.855 203.903 281.731 205.393 280.893L211.91 277.22L209.617 275.92Z" fill="#E9EFF9"/>
<path d="M200.377 281.188L198.461 278.966L197.75 278.376L195.456 277.073L196.167 277.666L198.083 279.888L198.873 280.545L201.166 281.845L200.377 281.188Z" fill="#919CB4"/>
<path d="M211.91 277.22L205.393 280.893C203.511 281.952 201.812 281.869 200.775 280.669L198.883 278.43C197.763 277.153 195.906 277.042 193.866 278.192L189.148 280.85L189.152 281.413L193.866 278.755C195.72 277.709 197.447 277.78 198.46 278.966L200.376 281.188C201.496 282.495 203.353 282.579 205.393 281.426L211.913 277.753L211.91 277.22Z" fill="#919CB4"/>
<path d="M189.148 280.85L186.854 279.546L186.858 280.112L189.152 281.413L189.148 280.85Z" fill="#919CB4"/>
<path d="M195.81 276.489C194.7 275.859 193.193 275.977 191.572 276.888L186.854 279.546L189.148 280.85L193.866 278.192C195.487 277.277 196.994 277.16 198.103 277.79L195.81 276.489Z" fill="#E9EFF9"/>
<path d="M223.348 283.658L216.83 287.332C215.344 288.169 213.967 288.293 212.943 287.71L215.237 289.014C216.26 289.594 217.637 289.47 219.124 288.632L225.641 284.959L223.348 283.658Z" fill="#E9EFF9"/>
<path d="M214.107 288.927L212.191 286.705L211.481 286.115L209.187 284.815L209.898 285.405L211.817 287.627L212.607 288.284L214.9 289.584L214.107 288.927Z" fill="#919CB4"/>
<path d="M225.642 284.959L219.125 288.632C217.243 289.691 215.543 289.608 214.506 288.408L212.614 286.169C211.498 284.895 209.637 284.781 207.598 285.931L202.883 288.589V289.152L207.601 286.494C209.455 285.448 211.179 285.519 212.192 286.705L214.108 288.927C215.227 290.234 217.085 290.318 219.128 289.168L225.645 285.495L225.642 284.959Z" fill="#919CB4"/>
<path d="M202.883 288.588L200.59 287.284V287.851L202.883 289.151V288.588Z" fill="#919CB4"/>
<path d="M209.545 284.228C208.432 283.598 206.925 283.715 205.304 284.627L200.59 287.285L202.883 288.589L207.598 285.931C209.218 285.016 210.726 284.898 211.838 285.532L209.545 284.228Z" fill="#E9EFF9"/>
<path d="M237.082 291.397L230.565 295.07C229.075 295.908 227.701 296.032 226.678 295.449L228.972 296.753C229.995 297.333 231.368 297.209 232.859 296.371L239.376 292.697L237.082 291.397Z" fill="#E9EFF9"/>
<path d="M227.842 296.666L225.926 294.444L225.216 293.854L222.922 292.553L223.633 293.143L225.549 295.365L226.338 296.022L228.632 297.323L227.842 296.666Z" fill="#919CB4"/>
<path d="M239.377 292.698L232.859 296.371C230.978 297.43 229.278 297.346 228.238 296.146L226.349 293.908C225.23 292.634 223.372 292.52 221.333 293.67L216.615 296.327L216.618 296.891L221.333 294.233C223.187 293.187 224.914 293.257 225.927 294.444L227.843 296.666C228.962 297.973 230.82 298.057 232.859 296.907L239.377 293.234V292.698Z" fill="#919CB4"/>
<path d="M216.614 296.327L214.32 295.027L214.324 295.59L216.618 296.891L216.614 296.327Z" fill="#919CB4"/>
<path d="M223.276 291.967C222.163 291.337 220.659 291.454 219.038 292.366L214.32 295.027L216.614 296.327L221.332 293.67C222.953 292.755 224.457 292.641 225.569 293.271L223.276 291.967Z" fill="#E9EFF9"/>
<path d="M119.774 351.626L19.4246 295.074V291.568L119.774 348.12V351.626Z" fill="#314AA6"/>
<path d="M220.12 295.074L119.774 351.626V348.12L220.12 291.568V295.074Z" fill="#3C56AF"/>
<path d="M117.459 327.382L55.675 293.337L117.459 255.51L175.461 293.337L117.459 327.382Z" fill="url(#paint16_radial_4_15128)"/>
<path d="M117.264 348.817L22.6964 293.337L120.251 232.814L215.615 290.816L117.264 348.817Z" fill="#25306C"/>
<path d="M158.504 179.961C160.727 178.646 162.906 177.345 165.034 176.057H165.037C162.906 177.345 160.727 178.646 158.504 179.961ZM166.278 175.308H166.275C166.725 175.035 167.173 174.763 167.616 174.494C167.173 174.763 166.725 175.035 166.278 175.308Z" fill="url(#paint17_radial_4_15128)"/>
<path d="M165.037 176.057H165.034C165.451 175.805 165.865 175.556 166.275 175.307H166.278C165.865 175.556 165.451 175.808 165.037 176.057Z" fill="url(#paint18_radial_4_15128)"/>
<path d="M195.064 213.444L94.1681 271.695L44.327 242.919L145.22 184.668L195.064 213.444Z" fill="#F2FAF9"/>
<path d="M181.517 208.679C183.632 209.9 183.598 211.894 181.446 213.138L93.6366 263.833C91.4847 265.077 88.0281 265.094 85.9131 263.873L57.8706 247.683C55.759 246.463 55.7892 244.469 57.9412 243.225L145.751 192.53C147.903 191.286 151.363 191.269 153.474 192.489L181.517 208.679ZM48.0826 243.501L92.954 269.408L191.1 212.745L146.225 186.834L48.0826 243.501Z" fill="#57C6B6"/>
<path d="M141.642 240.851C132.016 246.409 114.296 245.219 102.137 238.198C89.9789 231.181 87.9177 220.949 97.541 215.391C107.168 209.836 124.887 211.027 137.046 218.044C149.204 225.065 151.266 235.296 141.642 240.851ZM97.2921 215.246C87.5277 220.885 89.5855 231.248 101.882 238.346C114.178 245.444 132.127 246.635 141.891 240.996C151.656 235.36 149.595 224.997 137.302 217.899C125.005 210.798 107.057 209.611 97.2921 215.246Z" fill="#37998C"/>
<path d="M136.537 218.336C148.437 225.209 150.498 235.158 141.141 240.565C131.783 245.968 114.547 244.778 102.644 237.905C90.7413 231.032 88.6802 221.083 98.0412 215.68C107.399 210.276 124.635 211.467 136.537 218.336Z" fill="#37998C"/>
<path d="M134.066 219.762C144.234 225.633 145.996 234.133 138 238.75C130.005 243.367 115.281 242.351 105.113 236.48C94.9447 230.61 93.1861 222.109 101.182 217.493C109.178 212.876 123.902 213.895 134.066 219.762Z" fill="#F2FAF9"/>
<path d="M153.06 215.912L154.372 216.668L168.857 208.306L167.546 207.55L153.06 215.912Z" fill="#57C6B6"/>
<path d="M86.3268 254.442L82.9576 256.385L84.269 257.142L87.6348 255.198L86.3268 254.442Z" fill="#57C6B6"/>
<path d="M88.1053 253.416L89.4133 254.173L103.902 245.807L102.591 245.051L88.1053 253.416Z" fill="#57C6B6"/>
<path d="M60.5673 245.316L62.3696 246.355L79.8676 236.255L78.0653 235.216L60.5673 245.316Z" fill="#57C6B6"/>
<path d="M131.376 204.436L133.179 205.475L150.677 195.375L148.874 194.332L131.376 204.436Z" fill="#37998C"/>
<path d="M170.949 215.942L167.015 213.669L165.529 214.766L165.737 214.887L166.248 214.692L166.82 214.749L169.92 216.538L169.953 216.833L169.53 217.126L169.785 217.271L172.223 215.865L171.968 215.717L171.463 215.963L170.949 215.942Z" fill="#57C6B6"/>
<path d="M174.597 214.231C174.039 214.554 172.731 213.868 171.964 213.427C171.201 212.987 170.014 212.23 170.576 211.907C171.134 211.585 172.442 212.267 173.208 212.711C173.972 213.152 175.159 213.908 174.597 214.231ZM170.266 211.729C168.989 212.466 169.661 213.34 170.885 214.049C172.112 214.759 173.629 215.145 174.906 214.409C176.181 213.673 175.515 212.795 174.288 212.089C173.061 211.38 171.544 210.993 170.266 211.729Z" fill="#57C6B6"/>
<path d="M178.424 212.022C177.862 212.345 176.554 211.662 175.791 211.218C175.025 210.778 173.841 210.021 174.399 209.698C174.961 209.376 176.269 210.062 177.032 210.502C177.795 210.942 178.982 211.699 178.424 212.022ZM174.093 209.52C172.815 210.257 173.485 211.134 174.712 211.84C175.939 212.55 177.456 212.936 178.73 212.2C180.008 211.464 179.339 210.586 178.111 209.88C176.884 209.17 175.367 208.784 174.093 209.52Z" fill="#57C6B6"/>
<path d="M137.493 196.007L134.856 194.483L133.861 195.22L134.342 195.169L134.729 195.206L136.803 196.403L136.827 196.605L136.541 196.797L136.713 196.898L138.343 195.956L138.175 195.855L137.836 196.02L137.493 196.007Z" fill="#F2FAF9"/>
<path d="M139.934 194.86C139.56 195.075 138.683 194.618 138.172 194.322C137.661 194.026 136.867 193.522 137.24 193.303C137.617 193.088 138.491 193.545 139.006 193.841C139.517 194.137 140.31 194.645 139.934 194.86ZM137.035 193.186C136.181 193.68 136.628 194.265 137.449 194.739C138.273 195.213 139.288 195.472 140.142 194.981C140.996 194.487 140.549 193.898 139.725 193.424C138.905 192.95 137.889 192.691 137.035 193.186Z" fill="#F2FAF9"/>
<path d="M142.496 193.381C142.123 193.599 141.245 193.139 140.734 192.843C140.223 192.55 139.429 192.042 139.802 191.827C140.176 191.609 141.053 192.069 141.564 192.365C142.075 192.658 142.872 193.166 142.496 193.381ZM139.597 191.706C138.74 192.201 139.191 192.786 140.011 193.26C140.835 193.737 141.847 193.996 142.704 193.502C143.558 193.007 143.111 192.422 142.287 191.948C141.467 191.471 140.451 191.212 139.597 191.706Z" fill="#F2FAF9"/>
<path d="M60.7661 240.303L58.1299 238.783L57.138 239.516L57.6188 239.466L58.0022 239.506L60.0768 240.703L60.1003 240.901L59.8178 241.096L59.9893 241.194L61.6201 240.252L61.4486 240.155L61.1124 240.316L60.7661 240.303Z" fill="#F2FAF9"/>
<path d="M63.2106 239.157C62.834 239.375 61.9598 238.915 61.4454 238.622C60.9343 238.326 60.1407 237.818 60.5173 237.603C60.8906 237.385 61.7681 237.845 62.2792 238.141C62.7903 238.437 63.5839 238.941 63.2106 239.157ZM60.3089 237.482C59.4548 237.976 59.902 238.565 60.7258 239.039C61.5462 239.513 62.5617 239.772 63.4157 239.278C64.2698 238.783 63.8226 238.198 63.0022 237.724C62.1784 237.25 61.1629 236.991 60.3089 237.482Z" fill="#F2FAF9"/>
<path d="M65.7726 237.681C65.3961 237.896 64.5185 237.438 64.0074 237.143C63.4963 236.847 62.7028 236.339 63.076 236.124C63.4526 235.909 64.3268 236.366 64.8412 236.662C65.3523 236.958 66.1459 237.462 65.7726 237.681ZM62.8709 236.006C62.0168 236.497 62.464 237.085 63.2844 237.56C64.1082 238.034 65.1237 238.292 65.9777 237.798C66.8318 237.304 66.3846 236.719 65.5608 236.245C64.7404 235.771 63.7249 235.512 62.8709 236.006Z" fill="#F2FAF9"/>
<path d="M154.732 211.141C151.995 212.721 147.6 212.745 144.91 211.191C142.223 209.641 142.264 207.103 144.997 205.522C147.734 203.942 152.132 203.918 154.819 205.472C157.506 207.022 157.469 209.561 154.732 211.141ZM144.406 205.179C141.336 206.951 141.292 209.799 144.308 211.541C147.321 213.283 152.254 213.256 155.323 211.484C158.393 209.712 158.44 206.864 155.424 205.122C152.408 203.38 147.476 203.407 144.406 205.179Z" fill="#37998C"/>
<path d="M89.7598 248.652C87.0262 250.232 82.6281 250.256 79.9416 248.702C77.2516 247.152 77.292 244.613 80.029 243.033C82.766 241.453 87.1607 241.429 89.8506 242.983C92.5372 244.533 92.4968 247.071 89.7598 248.652ZM79.4338 242.69C76.364 244.462 76.3202 247.31 79.3363 249.052C82.3524 250.794 87.2851 250.767 90.355 248.995C93.4249 247.223 93.4685 244.375 90.4525 242.633C87.4364 240.891 82.5037 240.918 79.4338 242.69Z" fill="#37998C"/>
<path d="M149.241 205.795C149.1 206.141 148.666 206.393 148.111 206.467L147.819 206.508C147.267 206.582 146.83 206.83 146.702 207.15L146.635 207.318C146.507 207.637 146.074 207.89 145.519 207.964C144.974 208.038 144.789 208.394 145.146 208.599L147.977 210.233C148.246 210.391 148.616 210.479 149.002 210.475L153.38 210.452L153.538 210.361L153.579 207.836L153.162 207.241L150.33 205.606C149.971 205.401 149.355 205.506 149.241 205.795Z" fill="#57C6B6"/>
<path d="M84.2388 243.323C84.101 243.669 83.6639 243.921 83.1091 243.995L82.8199 244.035C82.2651 244.109 81.8314 244.358 81.7036 244.678L81.6363 244.849C81.5086 245.169 81.0715 245.417 80.52 245.491C79.972 245.565 79.787 245.922 80.1434 246.127L82.9746 247.764C83.2469 247.919 83.6168 248.006 84.0035 248.003L88.378 247.983L88.5394 247.889L88.5764 245.364L88.1594 244.768L85.3283 243.134C84.9718 242.929 84.3532 243.037 84.2388 243.323Z" fill="#57C6B6"/>
<path d="M129.696 233.027L122.281 228.747C124.891 228.074 127.591 228.142 129.682 229.349C131.706 230.519 131.548 231.958 129.696 233.027ZM114.286 226.39C112.127 227.123 109.736 227.274 108.089 226.322C106.374 225.334 106.293 223.834 107.974 222.745L114.286 226.39ZM119.188 225.105L116.999 225.697L109.928 221.615C111.007 221.191 112.742 221.06 116.088 221.945C116.949 222.16 117.574 222.156 118.341 221.713C119.006 221.329 120.479 219.961 118.835 219.013C117.392 218.179 113.065 218.101 108.351 220.704L105.604 219.12L103.647 220.247L106.394 221.834C102.514 224.231 101.29 227.318 105.611 229.813C108.805 231.655 112.894 231.316 117.208 230.172L119.676 229.5L127.739 234.157C126.905 234.483 124.958 234.853 120.476 233.757C119.403 233.501 118.677 233.525 117.84 234.009C116.928 234.533 116.32 236.036 117.796 236.887C118.963 237.563 123.243 238.34 129.319 235.068L132.887 237.129L134.843 236L131.273 233.938C134.487 232.082 137.106 228.471 132.201 225.6C128.391 223.441 124.265 223.76 119.188 225.105Z" fill="#57C6B6"/>
<path d="M161.185 222.25L152.604 227.203L152.093 226.911L160.673 221.954L161.185 222.25Z" fill="#37998C"/>
<path d="M195.064 205.879L94.1681 264.129L44.327 235.354L145.22 177.103L195.064 205.879Z" fill="#F2FAF9"/>
<path d="M181.517 201.114C183.632 202.335 183.598 204.328 181.446 205.573L93.6366 256.268C91.4847 257.512 88.0281 257.529 85.9131 256.308L57.8706 240.118C55.759 238.897 55.7892 236.904 57.9412 235.659L145.751 184.964C147.903 183.72 151.363 183.703 153.474 184.924L181.517 201.114ZM48.0826 235.935L92.954 261.843L191.1 205.179L146.225 179.268L48.0826 235.935Z" fill="#57C6B6"/>
<path d="M141.642 233.286C132.016 238.844 114.296 237.653 102.137 230.633C89.9789 223.615 87.9177 213.384 97.541 207.826C107.168 202.271 124.887 203.461 137.046 210.478C149.204 217.499 151.266 227.731 141.642 233.286ZM97.2921 207.681C87.5277 213.32 89.5855 223.683 101.882 230.781C114.178 237.879 132.127 239.069 141.891 233.43C151.656 227.795 149.595 217.432 137.302 210.334C125.005 203.232 107.057 202.045 97.2921 207.681Z" fill="#37998C"/>
<path d="M136.537 210.771C148.437 217.643 150.498 227.593 141.141 232.999C131.783 238.403 114.547 237.213 102.644 230.34C90.7413 223.467 88.6802 213.518 98.0412 208.114C107.399 202.711 124.635 203.901 136.537 210.771Z" fill="#37998C"/>
<path d="M134.066 212.197C144.234 218.068 145.996 226.568 138 231.185C130.005 235.801 115.281 234.786 105.113 228.915C94.9447 223.044 93.1861 214.544 101.182 209.927C109.178 205.311 123.902 206.33 134.066 212.197Z" fill="#F2FAF9"/>
<path d="M153.06 208.346L154.372 209.103L168.857 200.741L167.546 199.984L153.06 208.346Z" fill="#57C6B6"/>
<path d="M86.3268 246.876L82.9576 248.82L84.269 249.576L87.6348 247.633L86.3268 246.876Z" fill="#57C6B6"/>
<path d="M88.1053 245.851L89.4133 246.607L103.902 238.242L102.591 237.485L88.1053 245.851Z" fill="#57C6B6"/>
<path d="M60.5673 237.751L62.3696 238.79L79.8676 228.689L78.0653 227.65L60.5673 237.751Z" fill="#57C6B6"/>
<path d="M131.376 196.871L133.179 197.91L150.677 187.809L148.874 186.767L131.376 196.871Z" fill="#37998C"/>
<path d="M170.949 208.377L167.015 206.104L165.529 207.2L165.737 207.321L166.248 207.126L166.82 207.183L169.92 208.972L169.953 209.268L169.53 209.561L169.785 209.705L172.223 208.3L171.968 208.152L171.463 208.397L170.949 208.377Z" fill="#57C6B6"/>
<path d="M174.597 206.665C174.039 206.988 172.731 206.302 171.964 205.862C171.201 205.421 170.014 204.665 170.576 204.342C171.134 204.019 172.442 204.702 173.208 205.146C173.972 205.586 175.159 206.343 174.597 206.665ZM170.266 204.164C168.989 204.9 169.661 205.774 170.885 206.484C172.112 207.193 173.629 207.58 174.906 206.844C176.181 206.107 175.515 205.23 174.288 204.524C173.061 203.814 171.544 203.427 170.266 204.164Z" fill="#57C6B6"/>
<path d="M178.424 204.456C177.862 204.779 176.554 204.097 175.791 203.653C175.025 203.212 173.841 202.456 174.399 202.133C174.961 201.81 176.269 202.496 177.032 202.937C177.795 203.377 178.982 204.134 178.424 204.456ZM174.093 201.955C172.815 202.691 173.485 203.569 174.712 204.275C175.939 204.984 177.456 205.371 178.73 204.635C180.008 203.898 179.339 203.021 178.111 202.315C176.884 201.605 175.367 201.218 174.093 201.955Z" fill="#57C6B6"/>
<path d="M137.493 188.441L134.856 186.918L133.861 187.654L134.342 187.604L134.729 187.641L136.803 188.838L136.827 189.04L136.541 189.231L136.713 189.332L138.343 188.391L138.175 188.29L137.836 188.455L137.493 188.441Z" fill="#F2FAF9"/>
<path d="M139.934 187.295C139.56 187.51 138.683 187.053 138.172 186.757C137.661 186.461 136.867 185.957 137.24 185.738C137.617 185.523 138.491 185.98 139.006 186.276C139.517 186.572 140.31 187.08 139.934 187.295ZM137.035 185.62C136.181 186.115 136.628 186.7 137.449 187.174C138.273 187.648 139.288 187.907 140.142 187.416C140.996 186.922 140.549 186.333 139.725 185.859C138.905 185.385 137.889 185.126 137.035 185.62Z" fill="#F2FAF9"/>
<path d="M142.496 185.815C142.123 186.034 141.245 185.573 140.734 185.277C140.223 184.985 139.429 184.477 139.802 184.262C140.176 184.043 141.053 184.504 141.564 184.8C142.075 185.092 142.872 185.6 142.496 185.815ZM139.597 184.141C138.74 184.635 139.191 185.22 140.011 185.694C140.835 186.172 141.847 186.431 142.704 185.936C143.558 185.442 143.111 184.857 142.287 184.383C141.467 183.905 140.451 183.647 139.597 184.141Z" fill="#F2FAF9"/>
<path d="M60.7661 232.737L58.1299 231.218L57.138 231.951L57.6188 231.9L58.0022 231.94L60.0768 233.138L60.1003 233.336L59.8178 233.531L59.9893 233.628L61.6201 232.687L61.4486 232.589L61.1124 232.751L60.7661 232.737Z" fill="#F2FAF9"/>
<path d="M63.2106 231.591C62.834 231.81 61.9598 231.349 61.4454 231.057C60.9343 230.761 60.1407 230.253 60.5173 230.038C60.8906 229.819 61.7681 230.28 62.2792 230.576C62.7903 230.872 63.5839 231.376 63.2106 231.591ZM60.3089 229.917C59.4548 230.411 59.902 230.999 60.7258 231.474C61.5462 231.948 62.5617 232.207 63.4157 231.712C64.2698 231.218 63.8226 230.633 63.0022 230.159C62.1784 229.685 61.1629 229.426 60.3089 229.917Z" fill="#F2FAF9"/>
<path d="M65.7726 230.115C65.3961 230.33 64.5185 229.873 64.0074 229.577C63.4963 229.281 62.7028 228.774 63.076 228.558C63.4526 228.343 64.3268 228.8 64.8412 229.096C65.3523 229.392 66.1459 229.897 65.7726 230.115ZM62.8709 228.441C62.0168 228.932 62.464 229.52 63.2844 229.994C64.1082 230.468 65.1237 230.727 65.9777 230.233C66.8318 229.739 66.3846 229.153 65.5608 228.679C64.7404 228.205 63.7249 227.946 62.8709 228.441Z" fill="#F2FAF9"/>
<path d="M154.732 203.575C151.995 205.156 147.6 205.179 144.91 203.626C142.223 202.076 142.264 199.537 144.997 197.957C147.734 196.377 152.132 196.353 154.819 197.906C157.506 199.457 157.469 201.995 154.732 203.575ZM144.406 197.614C141.336 199.386 141.292 202.234 144.308 203.976C147.321 205.717 152.254 205.69 155.323 203.918C158.393 202.146 158.44 199.299 155.424 197.557C152.408 195.815 147.476 195.842 144.406 197.614Z" fill="#37998C"/>
<path d="M89.7598 241.086C87.0262 242.667 82.6281 242.69 79.9416 241.137C77.2516 239.587 77.292 237.048 80.029 235.468C82.766 233.887 87.1607 233.864 89.8506 235.417C92.5372 236.967 92.4968 239.506 89.7598 241.086ZM79.4338 235.125C76.364 236.897 76.3202 239.745 79.3363 241.486C82.3524 243.228 87.2851 243.201 90.355 241.429C93.4249 239.657 93.4685 236.809 90.4525 235.068C87.4364 233.326 82.5037 233.353 79.4338 235.125Z" fill="#37998C"/>
<path d="M149.241 198.229C149.1 198.576 148.666 198.828 148.111 198.902L147.819 198.942C147.267 199.016 146.83 199.265 146.702 199.584L146.635 199.753C146.507 200.072 146.074 200.324 145.519 200.398C144.974 200.472 144.789 200.829 145.146 201.034L147.977 202.668C148.246 202.826 148.616 202.913 149.002 202.91L153.38 202.886L153.538 202.796L153.579 200.27L153.162 199.675L150.33 198.041C149.971 197.836 149.355 197.94 149.241 198.229Z" fill="#57C6B6"/>
<path d="M84.2388 235.757C84.101 236.103 83.6639 236.356 83.1091 236.43L82.8199 236.47C82.2651 236.544 81.8314 236.793 81.7036 237.112L81.6363 237.284C81.5086 237.603 81.0715 237.852 80.52 237.926C79.972 238 79.787 238.356 80.1434 238.561L82.9746 240.199C83.2469 240.354 83.6168 240.441 84.0035 240.438L88.378 240.417L88.5394 240.323L88.5764 237.798L88.1594 237.203L85.3283 235.569C84.9718 235.364 84.3532 235.471 84.2388 235.757Z" fill="#57C6B6"/>
<path d="M129.696 225.462L122.281 221.181C124.891 220.509 127.591 220.576 129.682 221.783C131.706 222.953 131.548 224.392 129.696 225.462ZM114.286 218.824C112.127 219.557 109.736 219.709 108.089 218.757C106.374 217.769 106.293 216.269 107.974 215.179L114.286 218.824ZM119.188 217.54L116.999 218.132L109.928 214.05C111.007 213.626 112.742 213.495 116.088 214.379C116.949 214.594 117.574 214.591 118.341 214.147C119.006 213.764 120.479 212.395 118.835 211.447C117.392 210.613 113.065 210.536 108.351 213.138L105.604 211.555L103.647 212.681L106.394 214.268C102.514 216.666 101.29 219.752 105.611 222.247C108.805 224.09 112.894 223.75 117.208 222.607L119.676 221.935L127.739 226.592C126.905 226.918 124.958 227.287 120.476 226.191C119.403 225.936 118.677 225.959 117.84 226.444C116.928 226.968 116.32 228.471 117.796 229.322C118.963 229.998 123.243 230.774 129.319 227.503L132.887 229.564L134.843 228.434L131.273 226.373C134.487 224.517 137.106 220.906 132.201 218.034C128.391 215.875 124.265 216.195 119.188 217.54Z" fill="#57C6B6"/>
<path d="M161.185 214.685L152.604 219.638L152.093 219.345L160.673 214.389L161.185 214.685Z" fill="#37998C"/>
<path d="M195.064 198.313L94.1681 256.564L44.327 227.788L145.22 169.538L195.064 198.313Z" fill="#F2FAF9"/>
<path d="M181.517 193.549C183.632 194.769 183.598 196.763 181.446 198.007L93.6366 248.702C91.4847 249.946 88.0281 249.963 85.9131 248.743L57.8706 232.553C55.759 231.332 55.7892 229.338 57.9412 228.094L145.751 177.399C147.903 176.155 151.363 176.138 153.474 177.358L181.517 193.549ZM48.0826 228.37L92.954 254.277L191.1 197.614L146.225 171.703L48.0826 228.37Z" fill="#57C6B6"/>
<path d="M141.642 225.72C132.016 231.278 114.296 230.088 102.137 223.067C89.9789 216.05 87.9177 205.818 97.541 200.26C107.168 194.705 124.887 195.896 137.046 202.913C149.204 209.934 151.266 220.166 141.642 225.72ZM97.2921 200.115C87.5277 205.754 89.5855 216.117 101.882 223.215C114.178 230.313 132.127 231.504 141.891 225.865C151.656 220.229 149.595 209.867 137.302 202.768C125.005 195.667 107.057 194.48 97.2921 200.115Z" fill="#37998C"/>
<path d="M136.537 203.205C148.437 210.078 150.498 220.027 141.141 225.434C131.783 230.837 114.547 229.647 102.644 222.774C90.7413 215.902 88.6802 205.952 98.0412 200.549C107.399 195.145 124.635 196.336 136.537 203.205Z" fill="#37998C"/>
<path d="M134.066 204.632C144.234 210.502 145.996 219.003 138 223.619C130.005 228.236 115.281 227.22 105.113 221.349C94.9447 215.479 93.1861 206.979 101.182 202.362C109.178 197.745 123.902 198.764 134.066 204.632Z" fill="#F2FAF9"/>
<path d="M153.06 200.781L154.372 201.538L168.857 193.175L167.546 192.419L153.06 200.781Z" fill="#57C6B6"/>
<path d="M86.3268 239.311L82.9576 241.254L84.269 242.011L87.6348 240.067L86.3268 239.311Z" fill="#57C6B6"/>
<path d="M88.1053 238.285L89.4133 239.042L103.902 230.676L102.591 229.92L88.1053 238.285Z" fill="#57C6B6"/>
<path d="M60.5673 230.185L62.3696 231.224L79.8676 221.123L78.0653 220.084L60.5673 230.185Z" fill="#57C6B6"/>
<path d="M131.376 189.305L133.179 190.344L150.677 180.244L148.874 179.201L131.376 189.305Z" fill="#37998C"/>
<path d="M170.949 200.812L167.015 198.539L165.529 199.635L165.737 199.756L166.248 199.561L166.82 199.618L169.92 201.407L169.953 201.703L169.53 201.995L169.785 202.14L172.223 200.734L171.968 200.586L171.463 200.832L170.949 200.812Z" fill="#57C6B6"/>
<path d="M174.597 199.1C174.039 199.423 172.731 198.737 171.964 198.296C171.201 197.856 170.014 197.099 170.576 196.777C171.134 196.454 172.442 197.136 173.208 197.58C173.972 198.021 175.159 198.777 174.597 199.1ZM170.266 196.598C168.989 197.335 169.661 198.209 170.885 198.918C172.112 199.628 173.629 200.015 174.906 199.278C176.181 198.542 175.515 197.664 174.288 196.958C173.061 196.249 171.544 195.862 170.266 196.598Z" fill="#57C6B6"/>
<path d="M178.424 196.891C177.862 197.214 176.554 196.531 175.791 196.087C175.025 195.647 173.841 194.89 174.399 194.568C174.961 194.245 176.269 194.931 177.032 195.371C177.795 195.812 178.982 196.568 178.424 196.891ZM174.093 194.389C172.815 195.126 173.485 196.003 174.712 196.709C175.939 197.419 177.456 197.806 178.73 197.069C180.008 196.333 179.339 195.455 178.111 194.749C176.884 194.04 175.367 193.653 174.093 194.389Z" fill="#57C6B6"/>
<path d="M137.493 180.876L134.856 179.353L133.861 180.089L134.342 180.039L134.729 180.076L136.803 181.273L136.827 181.474L136.541 181.666L136.713 181.767L138.343 180.825L138.175 180.724L137.836 180.889L137.493 180.876Z" fill="#F2FAF9"/>
<path d="M139.934 179.729C139.56 179.944 138.683 179.487 138.172 179.191C137.661 178.895 136.867 178.391 137.24 178.173C137.617 177.957 138.491 178.415 139.006 178.71C139.517 179.006 140.31 179.514 139.934 179.729ZM137.035 178.055C136.181 178.549 136.628 179.134 137.449 179.608C138.273 180.082 139.288 180.341 140.142 179.85C140.996 179.356 140.549 178.768 139.725 178.294C138.905 177.819 137.889 177.561 137.035 178.055Z" fill="#F2FAF9"/>
<path d="M142.496 178.25C142.123 178.468 141.245 178.008 140.734 177.712C140.223 177.419 139.429 176.912 139.802 176.696C140.176 176.478 141.053 176.939 141.564 177.234C142.075 177.527 142.872 178.035 142.496 178.25ZM139.597 176.575C138.74 177.07 139.191 177.655 140.011 178.129C140.835 178.606 141.847 178.865 142.704 178.371C143.558 177.877 143.111 177.292 142.287 176.818C141.467 176.34 140.451 176.081 139.597 176.575Z" fill="#F2FAF9"/>
<path d="M60.7661 225.172L58.1299 223.652L57.138 224.385L57.6188 224.335L58.0022 224.375L60.0768 225.572L60.1003 225.77L59.8178 225.965L59.9893 226.063L61.6201 225.121L61.4486 225.024L61.1124 225.185L60.7661 225.172Z" fill="#F2FAF9"/>
<path d="M63.2106 224.026C62.834 224.244 61.9598 223.784 61.4454 223.491C60.9343 223.195 60.1407 222.688 60.5173 222.472C60.8906 222.254 61.7681 222.714 62.2792 223.01C62.7903 223.306 63.5839 223.811 63.2106 224.026ZM60.3089 222.351C59.4548 222.846 59.902 223.434 60.7258 223.908C61.5462 224.382 62.5617 224.641 63.4157 224.147C64.2698 223.653 63.8226 223.068 63.0022 222.593C62.1784 222.119 61.1629 221.86 60.3089 222.351Z" fill="#F2FAF9"/>
<path d="M65.7726 222.55C65.3961 222.765 64.5185 222.308 64.0074 222.012C63.4963 221.716 62.7028 221.208 63.076 220.993C63.4526 220.778 64.3268 221.235 64.8412 221.531C65.3523 221.827 66.1459 222.331 65.7726 222.55ZM62.8709 220.875C62.0168 221.366 62.464 221.955 63.2844 222.429C64.1082 222.903 65.1237 223.162 65.9777 222.667C66.8318 222.173 66.3846 221.588 65.5608 221.114C64.7404 220.64 63.7249 220.381 62.8709 220.875Z" fill="#F2FAF9"/>
<path d="M154.732 196.01C151.995 197.59 147.6 197.614 144.91 196.061C142.223 194.51 142.264 191.972 144.997 190.391C147.734 188.811 152.132 188.788 154.819 190.341C157.506 191.891 157.469 194.43 154.732 196.01ZM144.406 190.048C141.336 191.82 141.292 194.669 144.308 196.41C147.321 198.152 152.254 198.125 155.323 196.353C158.393 194.581 158.44 191.733 155.424 189.991C152.408 188.25 147.476 188.276 144.406 190.048Z" fill="#37998C"/>
<path d="M89.7598 233.521C87.0262 235.101 82.6281 235.125 79.9416 233.571C77.2516 232.021 77.292 229.483 80.029 227.902C82.766 226.322 87.1607 226.298 89.8506 227.852C92.5372 229.402 92.4968 231.94 89.7598 233.521ZM79.4338 227.559C76.364 229.331 76.3202 232.179 79.3363 233.921C82.3524 235.663 87.2851 235.636 90.355 233.864C93.4249 232.092 93.4685 229.244 90.4525 227.502C87.4364 225.76 82.5037 225.787 79.4338 227.559Z" fill="#37998C"/>
<path d="M149.241 190.664C149.1 191.01 148.666 191.262 148.111 191.336L147.819 191.377C147.267 191.451 146.83 191.7 146.702 192.019L146.635 192.187C146.507 192.507 146.074 192.759 145.519 192.833C144.974 192.907 144.789 193.263 145.146 193.468L147.977 195.102C148.246 195.26 148.616 195.348 149.002 195.344L153.38 195.321L153.538 195.23L153.579 192.705L153.162 192.11L150.33 190.476C149.971 190.271 149.355 190.375 149.241 190.664Z" fill="#57C6B6"/>
<path d="M84.2388 228.192C84.101 228.538 83.6639 228.79 83.1091 228.864L82.8199 228.905C82.2651 228.979 81.8314 229.227 81.7036 229.547L81.6363 229.718C81.5086 230.038 81.0715 230.287 80.52 230.361C79.972 230.434 79.787 230.791 80.1434 230.996L82.9746 232.634C83.2469 232.788 83.6168 232.876 84.0035 232.872L88.378 232.852L88.5394 232.758L88.5764 230.233L88.1594 229.638L85.3283 228.003C84.9718 227.798 84.3532 227.906 84.2388 228.192Z" fill="#57C6B6"/>
<path d="M129.696 217.896L122.281 213.616C124.891 212.943 127.591 213.011 129.682 214.218C131.706 215.388 131.548 216.827 129.696 217.896ZM114.286 211.259C112.127 211.992 109.736 212.143 108.089 211.192C106.374 210.203 106.293 208.703 107.974 207.614L114.286 211.259ZM119.188 209.974L116.999 210.566L109.928 206.484C111.007 206.061 112.742 205.929 116.088 206.814C116.949 207.029 117.574 207.026 118.341 206.582C119.006 206.198 120.479 204.83 118.835 203.882C117.392 203.048 113.065 202.971 108.351 205.573L105.604 203.989L103.647 205.116L106.394 206.703C102.514 209.1 101.29 212.187 105.611 214.682C108.805 216.524 112.894 216.185 117.208 215.042L119.676 214.369L127.739 219.026C126.905 219.352 124.958 219.722 120.476 218.626C119.403 218.37 118.677 218.394 117.84 218.878C116.928 219.403 116.32 220.906 117.796 221.756C118.963 222.432 123.243 223.209 129.319 219.937L132.887 221.998L134.843 220.869L131.273 218.807C134.487 216.951 137.106 213.34 132.201 210.469C128.391 208.31 124.265 208.629 119.188 209.974Z" fill="#57C6B6"/>
<path d="M161.185 207.119L152.604 212.072L152.093 211.78L160.673 206.824L161.185 207.119Z" fill="#37998C"/>
<path opacity="0.5" d="M75.8497 246.453L41.8052 226.278L133.851 174.581L164.113 193.495L75.8497 246.453Z" fill="#283D86"/>
<path d="M136.373 247.714V232.583L155.287 221.235V236.366L136.373 247.714Z" fill="#D0EEEF"/>
<path d="M106.586 192.422L85.11 204.82L134.998 233.625L156.474 221.225L106.586 192.422Z" fill="#F2FAF9"/>
<path d="M154.11 222.589L104.222 193.787L106.908 192.234L156.797 221.039V236.422L154.11 237.976V222.589Z" fill="#4D6DBE"/>
<path d="M134.564 233.874L84.676 205.072L87.3659 203.518L137.254 232.321V247.707L134.564 249.257V233.874Z" fill="#4D6DBE"/>
<path d="M94.7632 256.54V272.932L195.636 214.93V197.278L94.7632 256.54Z" fill="#608EFB"/>
<path d="M94.7632 256.54L44.327 227.539V243.205L94.7632 272.932V256.54Z" fill="#002EAA"/>
<path d="M141.322 139.567C140.949 139.786 140.071 139.325 139.56 139.029C139.049 138.737 138.256 138.229 138.629 138.014C139.002 137.795 139.88 138.256 140.391 138.552C140.902 138.844 141.699 139.352 141.322 139.567ZM138.424 137.893C137.566 138.387 138.017 138.972 138.837 139.446C139.658 139.92 140.673 140.182 141.531 139.688C142.385 139.194 141.938 138.609 141.114 138.135C140.293 137.657 139.278 137.398 138.424 137.893Z" fill="#F2FAF9"/>
<path d="M195.064 168.051L94.1681 226.302L44.327 197.526L145.22 139.276L195.064 168.051Z" fill="#F2FAF9"/>
<path d="M181.517 163.287C183.632 164.507 183.598 166.501 181.446 167.745L93.6366 218.44C91.4847 219.685 88.0281 219.701 85.9131 218.481L57.8706 202.291C55.759 201.07 55.7892 199.076 57.9412 197.832L145.751 147.137C147.903 145.893 151.363 145.876 153.474 147.097L181.517 163.287ZM48.0826 198.108L92.954 224.015L191.1 167.352L146.225 141.441L48.0826 198.108Z" fill="#57C6B6"/>
<path d="M141.642 195.459C132.016 201.017 114.296 199.826 102.137 192.806C89.9789 185.788 87.9177 175.556 97.541 169.998C107.168 164.444 124.887 165.634 137.046 172.651C149.204 179.672 151.266 189.904 141.642 195.459ZM97.2921 169.854C87.5277 175.493 89.5855 185.856 101.882 192.954C114.178 200.052 132.127 201.242 141.891 195.603C151.656 189.968 149.595 179.605 137.302 172.507C125.005 165.405 107.057 164.218 97.2921 169.854Z" fill="#37998C"/>
<path d="M136.537 172.943C148.437 179.816 150.498 189.766 141.141 195.172C131.783 200.576 114.547 199.385 102.644 192.513C90.7413 185.64 88.6802 175.69 98.0412 170.287C107.399 164.884 124.635 166.074 136.537 172.943Z" fill="#37998C"/>
<path d="M134.066 174.37C144.234 180.24 145.996 188.741 138 193.357C130.005 197.974 115.281 196.958 105.113 191.088C94.9447 185.217 93.1861 176.717 101.182 172.1C109.178 167.483 123.902 168.502 134.066 174.37Z" fill="#F2FAF9"/>
<path d="M153.06 170.519L154.372 171.276L168.857 162.914L167.546 162.157L153.06 170.519Z" fill="#57C6B6"/>
<path d="M86.3268 209.049L82.9576 210.992L84.269 211.749L87.6348 209.806L86.3268 209.049Z" fill="#57C6B6"/>
<path d="M88.1053 208.024L89.4133 208.78L103.902 200.415L102.591 199.658L88.1053 208.024Z" fill="#57C6B6"/>
<path d="M60.5673 199.923L62.3696 200.962L79.8676 190.862L78.0653 189.823L60.5673 199.923Z" fill="#57C6B6"/>
<path d="M131.376 159.044L133.179 160.083L150.677 149.982L148.874 148.94L131.376 159.044Z" fill="#37998C"/>
<path d="M170.949 170.55L167.015 168.277L165.529 169.373L165.737 169.494L166.248 169.299L166.82 169.356L169.92 171.145L169.953 171.441L169.53 171.733L169.785 171.878L172.223 170.472L171.968 170.325L171.463 170.57L170.949 170.55Z" fill="#57C6B6"/>
<path d="M174.597 168.838C174.039 169.161 172.731 168.475 171.964 168.035C171.201 167.594 170.014 166.838 170.576 166.515C171.134 166.192 172.442 166.875 173.208 167.318C173.972 167.759 175.159 168.516 174.597 168.838ZM170.266 166.337C168.989 167.073 169.661 167.947 170.885 168.657C172.112 169.366 173.629 169.753 174.906 169.016C176.181 168.28 175.515 167.403 174.288 166.696C173.061 165.987 171.544 165.6 170.266 166.337Z" fill="#57C6B6"/>
<path d="M178.424 166.629C177.862 166.952 176.554 166.269 175.791 165.826C175.025 165.385 173.841 164.629 174.399 164.306C174.961 163.983 176.269 164.669 177.032 165.109C177.795 165.55 178.982 166.306 178.424 166.629ZM174.093 164.128C172.815 164.864 173.485 165.742 174.712 166.448C175.939 167.157 177.456 167.544 178.73 166.807C180.008 166.071 179.339 165.193 178.111 164.487C176.884 163.778 175.367 163.391 174.093 164.128Z" fill="#57C6B6"/>
<path d="M137.493 150.614L134.856 149.091L133.861 149.827L134.342 149.777L134.729 149.814L136.803 151.011L136.827 151.213L136.541 151.404L136.713 151.505L138.343 150.564L138.175 150.463L137.836 150.627L137.493 150.614Z" fill="#F2FAF9"/>
<path d="M139.934 149.468C139.56 149.683 138.683 149.225 138.172 148.93C137.661 148.634 136.867 148.129 137.24 147.911C137.617 147.696 138.491 148.153 139.006 148.449C139.517 148.745 140.31 149.252 139.934 149.468ZM137.035 147.793C136.181 148.287 136.628 148.872 137.449 149.346C138.273 149.821 139.288 150.08 140.142 149.589C140.996 149.094 140.549 148.506 139.725 148.032C138.905 147.558 137.889 147.299 137.035 147.793Z" fill="#F2FAF9"/>
<path d="M142.496 147.988C142.123 148.207 141.245 147.746 140.734 147.45C140.223 147.158 139.429 146.65 139.802 146.435C140.176 146.216 141.053 146.677 141.564 146.973C142.075 147.265 142.872 147.773 142.496 147.988ZM139.597 146.314C138.74 146.808 139.191 147.393 140.011 147.867C140.835 148.345 141.847 148.603 142.704 148.109C143.558 147.615 143.111 147.03 142.287 146.556C141.467 146.078 140.451 145.819 139.597 146.314Z" fill="#F2FAF9"/>
<path d="M60.7661 194.91L58.1299 193.39L57.138 194.123L57.6188 194.073L58.0022 194.113L60.0768 195.31L60.1003 195.509L59.8178 195.704L59.9893 195.801L61.6201 194.86L61.4486 194.762L61.1124 194.924L60.7661 194.91Z" fill="#F2FAF9"/>
<path d="M63.2106 193.764C62.834 193.983 61.9598 193.522 61.4454 193.229C60.9343 192.934 60.1407 192.426 60.5173 192.211C60.8906 191.992 61.7681 192.453 62.2792 192.749C62.7903 193.045 63.5839 193.549 63.2106 193.764ZM60.3089 192.09C59.4548 192.584 59.902 193.172 60.7258 193.646C61.5462 194.12 62.5617 194.379 63.4157 193.885C64.2698 193.391 63.8226 192.806 63.0022 192.332C62.1784 191.858 61.1629 191.599 60.3089 192.09Z" fill="#F2FAF9"/>
<path d="M65.7726 192.288C65.3961 192.503 64.5185 192.046 64.0074 191.75C63.4963 191.454 62.7028 190.946 63.076 190.731C63.4526 190.516 64.3268 190.973 64.8412 191.269C65.3523 191.565 66.1459 192.069 65.7726 192.288ZM62.8709 190.614C62.0168 191.104 62.464 191.693 63.2844 192.167C64.1082 192.641 65.1237 192.9 65.9777 192.406C66.8318 191.911 66.3846 191.326 65.5608 190.852C64.7404 190.378 63.7249 190.119 62.8709 190.614Z" fill="#F2FAF9"/>
<path d="M154.732 165.748C151.995 167.329 147.6 167.352 144.91 165.799C142.223 164.249 142.264 161.71 144.997 160.13C147.734 158.549 152.132 158.526 154.819 160.079C157.506 161.629 157.469 164.168 154.732 165.748ZM144.406 159.787C141.336 161.559 141.292 164.407 144.308 166.149C147.321 167.89 152.254 167.863 155.323 166.091C158.393 164.319 158.44 161.471 155.424 159.73C152.408 157.988 147.476 158.015 144.406 159.787Z" fill="#37998C"/>
<path d="M89.7598 203.259C87.0262 204.839 82.6281 204.863 79.9416 203.31C77.2516 201.759 77.292 199.221 80.029 197.641C82.766 196.06 87.1607 196.037 89.8506 197.59C92.5372 199.14 92.4968 201.679 89.7598 203.259ZM79.4338 197.298C76.364 199.07 76.3202 201.917 79.3363 203.659C82.3524 205.401 87.2851 205.374 90.355 203.602C93.4249 201.83 93.4685 198.982 90.4525 197.24C87.4364 195.499 82.5037 195.526 79.4338 197.298Z" fill="#37998C"/>
<path d="M149.241 160.402C149.1 160.749 148.666 161.001 148.111 161.075L147.819 161.115C147.267 161.189 146.83 161.438 146.702 161.757L146.635 161.925C146.507 162.245 146.074 162.497 145.519 162.571C144.974 162.645 144.789 163.001 145.146 163.206L147.977 164.841C148.246 164.999 148.616 165.086 149.002 165.083L153.38 165.059L153.538 164.968L153.579 162.443L153.162 161.848L150.33 160.214C149.971 160.009 149.355 160.113 149.241 160.402Z" fill="#57C6B6"/>
<path d="M84.2388 197.93C84.101 198.276 83.6639 198.528 83.1091 198.602L82.8199 198.643C82.2651 198.717 81.8314 198.966 81.7036 199.285L81.6363 199.457C81.5086 199.776 81.0715 200.025 80.52 200.099C79.972 200.173 79.787 200.529 80.1434 200.734L82.9746 202.372C83.2469 202.526 83.6168 202.614 84.0035 202.611L88.378 202.59L88.5394 202.496L88.5764 199.971L88.1594 199.376L85.3283 197.742C84.9718 197.537 84.3532 197.644 84.2388 197.93Z" fill="#57C6B6"/>
<path d="M129.696 187.635L122.281 183.354C124.891 182.682 127.591 182.749 129.682 183.956C131.706 185.126 131.548 186.565 129.696 187.635ZM114.286 180.997C112.127 181.73 109.736 181.881 108.089 180.93C106.374 179.941 106.293 178.442 107.974 177.352L114.286 180.997ZM119.188 179.713L116.999 180.304L109.928 176.223C111.007 175.799 112.742 175.668 116.088 176.552C116.949 176.767 117.574 176.764 118.341 176.32C119.006 175.937 120.479 174.568 118.835 173.62C117.392 172.786 113.065 172.709 108.351 175.311L105.604 173.728L103.647 174.854L106.394 176.441C102.514 178.838 101.29 181.925 105.611 184.42C108.805 186.263 112.894 185.923 117.208 184.78L119.676 184.107L127.739 188.764C126.905 189.091 124.958 189.46 120.476 188.364C119.403 188.109 118.677 188.132 117.84 188.616C116.928 189.141 116.32 190.644 117.796 191.495C118.963 192.17 123.243 192.947 129.319 189.676L132.887 191.737L134.843 190.607L131.273 188.546C134.487 186.69 137.106 183.078 132.201 180.207C128.391 178.048 124.265 178.368 119.188 179.713Z" fill="#57C6B6"/>
<path d="M161.185 176.858L152.604 181.811L152.093 181.518L160.673 176.562L161.185 176.858Z" fill="#37998C"/>
<path d="M195.064 160.486L94.1681 218.737L44.327 189.961L145.22 131.71L195.064 160.486Z" fill="#F2FAF9"/>
<path d="M181.517 155.721C183.632 156.942 183.598 158.936 181.446 160.18L93.6366 210.875C91.4847 212.119 88.0281 212.136 85.9131 210.915L57.8706 194.725C55.759 193.505 55.7892 191.511 57.9412 190.267L145.751 139.572C147.903 138.328 151.363 138.311 153.474 139.531L181.517 155.721ZM48.0826 190.543L92.954 216.45L191.1 159.786L146.225 133.876L48.0826 190.543Z" fill="#57C6B6"/>
<path d="M141.642 187.893C132.016 193.451 114.296 192.261 102.137 185.24C89.9789 178.223 87.9177 167.991 97.541 162.433C107.168 156.878 124.887 158.069 137.046 165.086C149.204 172.107 151.266 182.338 141.642 187.893ZM97.2921 162.288C87.5277 167.927 89.5855 178.29 101.882 185.388C114.178 192.486 132.127 193.677 141.891 188.038C151.656 182.402 149.595 172.039 137.302 164.941C125.005 157.84 107.057 156.653 97.2921 162.288Z" fill="#37998C"/>
<path d="M136.537 165.378C148.437 172.251 150.498 182.2 141.141 187.607C131.783 193.01 114.547 191.82 102.644 184.947C90.7413 178.074 88.6802 168.125 98.0412 162.722C107.399 157.318 124.635 158.509 136.537 165.378Z" fill="#37998C"/>
<path d="M134.066 166.804C144.234 172.675 145.996 181.175 138 185.792C130.005 190.408 115.281 189.393 105.113 183.522C94.9447 177.651 93.1861 169.151 101.182 164.535C109.178 159.918 123.902 160.937 134.066 166.804Z" fill="#F2FAF9"/>
<path d="M153.06 162.954L154.372 163.71L168.857 155.348L167.546 154.592L153.06 162.954Z" fill="#57C6B6"/>
<path d="M86.3268 201.484L82.9576 203.427L84.269 204.184L87.6348 202.24L86.3268 201.484Z" fill="#57C6B6"/>
<path d="M88.1053 200.458L89.4133 201.215L103.902 192.849L102.591 192.093L88.1053 200.458Z" fill="#57C6B6"/>
<path d="M60.5673 192.358L62.3696 193.397L79.8676 183.296L78.0653 182.257L60.5673 192.358Z" fill="#57C6B6"/>
<path d="M131.376 151.478L133.179 152.517L150.677 142.417L148.874 141.374L131.376 151.478Z" fill="#37998C"/>
<path d="M170.949 162.984L167.015 160.711L165.529 161.808L165.737 161.929L166.248 161.734L166.82 161.791L169.92 163.58L169.953 163.875L169.53 164.168L169.785 164.312L172.223 162.907L171.968 162.759L171.463 163.005L170.949 162.984Z" fill="#57C6B6"/>
<path d="M174.597 161.273C174.039 161.596 172.731 160.91 171.964 160.469C171.201 160.029 170.014 159.272 170.576 158.949C171.134 158.627 172.442 159.309 173.208 159.753C173.972 160.194 175.159 160.95 174.597 161.273ZM170.266 158.771C168.989 159.508 169.661 160.382 170.885 161.091C172.112 161.801 173.629 162.187 174.906 161.451C176.181 160.715 175.515 159.837 174.288 159.131C173.061 158.422 171.544 158.035 170.266 158.771Z" fill="#57C6B6"/>
<path d="M178.424 159.064C177.862 159.387 176.554 158.704 175.791 158.26C175.025 157.82 173.841 157.063 174.399 156.74C174.961 156.418 176.269 157.104 177.032 157.544C177.795 157.984 178.982 158.741 178.424 159.064ZM174.093 156.562C172.815 157.299 173.485 158.176 174.712 158.882C175.939 159.592 177.456 159.978 178.73 159.242C180.008 158.506 179.339 157.628 178.111 156.922C176.884 156.212 175.367 155.826 174.093 156.562Z" fill="#57C6B6"/>
<path d="M137.493 143.049L134.856 141.525L133.861 142.262L134.342 142.211L134.729 142.248L136.803 143.445L136.827 143.647L136.541 143.839L136.713 143.94L138.343 142.998L138.175 142.897L137.836 143.062L137.493 143.049Z" fill="#F2FAF9"/>
<path d="M139.934 141.902C139.56 142.117 138.683 141.66 138.172 141.364C137.661 141.068 136.867 140.564 137.24 140.345C137.617 140.13 138.491 140.587 139.006 140.883C139.517 141.179 140.31 141.687 139.934 141.902ZM137.035 140.227C136.181 140.722 136.628 141.307 137.449 141.781C138.273 142.255 139.288 142.514 140.142 142.023C140.996 141.529 140.549 140.94 139.725 140.466C138.905 139.992 137.889 139.733 137.035 140.227Z" fill="#F2FAF9"/>
<path d="M142.496 140.423C142.123 140.641 141.245 140.181 140.734 139.885C140.223 139.592 139.429 139.084 139.802 138.869C140.176 138.651 141.053 139.111 141.564 139.407C142.075 139.7 142.872 140.208 142.496 140.423ZM139.597 138.748C138.74 139.243 139.191 139.828 140.011 140.302C140.835 140.779 141.847 141.038 142.704 140.544C143.558 140.049 143.111 139.464 142.287 138.99C141.467 138.513 140.451 138.254 139.597 138.748Z" fill="#F2FAF9"/>
<path d="M60.7661 187.345L58.1299 185.825L57.138 186.558L57.6188 186.508L58.0022 186.548L60.0768 187.745L60.1003 187.943L59.8178 188.138L59.9893 188.236L61.6201 187.294L61.4486 187.197L61.1124 187.358L60.7661 187.345Z" fill="#F2FAF9"/>
<path d="M63.2106 186.199C62.834 186.417 61.9598 185.957 61.4454 185.664C60.9343 185.368 60.1407 184.86 60.5173 184.645C60.8906 184.427 61.7681 184.887 62.2792 185.183C62.7903 185.479 63.5839 185.983 63.2106 186.199ZM60.3089 184.524C59.4548 185.018 59.902 185.607 60.7258 186.081C61.5462 186.555 62.5617 186.814 63.4157 186.32C64.2698 185.825 63.8226 185.24 63.0022 184.766C62.1784 184.292 61.1629 184.033 60.3089 184.524Z" fill="#F2FAF9"/>
<path d="M65.7726 184.723C65.3961 184.938 64.5185 184.48 64.0074 184.185C63.4963 183.889 62.7028 183.381 63.076 183.166C63.4526 182.951 64.3268 183.408 64.8412 183.704C65.3523 184 66.1459 184.504 65.7726 184.723ZM62.8709 183.048C62.0168 183.539 62.464 184.127 63.2844 184.601C64.1082 185.076 65.1237 185.334 65.9777 184.84C66.8318 184.346 66.3846 183.761 65.5608 183.287C64.7404 182.813 63.7249 182.554 62.8709 183.048Z" fill="#F2FAF9"/>
<path d="M154.732 158.183C151.995 159.763 147.6 159.787 144.91 158.233C142.223 156.683 142.264 154.145 144.997 152.564C147.734 150.984 152.132 150.96 154.819 152.514C157.506 154.064 157.469 156.603 154.732 158.183ZM144.406 152.221C141.336 153.993 141.292 156.841 144.308 158.583C147.321 160.325 152.254 160.298 155.323 158.526C158.393 156.754 158.44 153.906 155.424 152.164C152.408 150.422 147.476 150.449 144.406 152.221Z" fill="#37998C"/>
<path d="M89.7598 195.693C87.0262 197.274 82.6281 197.297 79.9416 195.744C77.2516 194.194 77.292 191.655 80.029 190.075C82.766 188.495 87.1607 188.471 89.8506 190.024C92.5372 191.575 92.4968 194.113 89.7598 195.693ZM79.4338 189.732C76.364 191.504 76.3202 194.352 79.3363 196.094C82.3524 197.835 87.2851 197.808 90.355 196.036C93.4249 194.264 93.4685 191.416 90.4525 189.675C87.4364 187.933 82.5037 187.96 79.4338 189.732Z" fill="#37998C"/>
<path d="M149.241 152.837C149.1 153.183 148.666 153.435 148.111 153.509L147.819 153.55C147.267 153.624 146.83 153.872 146.702 154.192L146.635 154.36C146.507 154.679 146.074 154.932 145.519 155.006C144.974 155.079 144.789 155.436 145.146 155.641L147.977 157.275C148.246 157.433 148.616 157.521 149.002 157.517L153.38 157.494L153.538 157.403L153.579 154.878L153.162 154.283L150.33 152.648C149.971 152.443 149.355 152.548 149.241 152.837Z" fill="#57C6B6"/>
<path d="M84.2388 190.365C84.101 190.711 83.6639 190.963 83.1091 191.037L82.8199 191.077C82.2651 191.151 81.8314 191.4 81.7036 191.72L81.6363 191.891C81.5086 192.211 81.0715 192.459 80.52 192.533C79.972 192.607 79.787 192.964 80.1434 193.169L82.9746 194.806C83.2469 194.961 83.6168 195.048 84.0035 195.045L88.378 195.025L88.5394 194.931L88.5764 192.406L88.1594 191.81L85.3283 190.176C84.9718 189.971 84.3532 190.079 84.2388 190.365Z" fill="#57C6B6"/>
<path d="M129.696 180.069L122.281 175.789C124.891 175.116 127.591 175.184 129.682 176.391C131.706 177.561 131.548 179 129.696 180.069ZM114.286 173.432C112.127 174.165 109.736 174.316 108.089 173.364C106.374 172.376 106.293 170.876 107.974 169.787L114.286 173.432ZM119.188 172.147L116.999 172.739L109.928 168.657C111.007 168.233 112.742 168.102 116.088 168.987C116.949 169.202 117.574 169.198 118.341 168.755C119.006 168.371 120.479 167.003 118.835 166.055C117.392 165.221 113.065 165.143 108.351 167.746L105.604 166.162L103.647 167.289L106.394 168.876C102.514 171.273 101.29 174.36 105.611 176.855C108.805 178.697 112.894 178.358 117.208 177.214L119.676 176.542L127.739 181.199C126.905 181.525 124.958 181.895 120.476 180.799C119.403 180.543 118.677 180.567 117.84 181.051C116.928 181.575 116.32 183.078 117.796 183.929C118.963 184.605 123.243 185.382 129.319 182.11L132.887 184.171L134.843 183.042L131.273 180.98C134.487 179.124 137.106 175.513 132.201 172.642C128.391 170.483 124.265 170.802 119.188 172.147Z" fill="#57C6B6"/>
<path d="M161.185 169.292L152.604 174.245L152.093 173.953L160.673 168.996L161.185 169.292Z" fill="#37998C"/>
<path d="M195.064 152.92L94.1681 211.171L44.327 182.395L145.22 124.145L195.064 152.92Z" fill="#F2FAF9"/>
<path d="M181.517 148.156C183.632 149.376 183.598 151.37 181.446 152.614L93.6366 203.309C91.4847 204.553 88.0281 204.57 85.9131 203.35L57.8706 187.16C55.759 185.939 55.7892 183.945 57.9412 182.701L145.751 132.006C147.903 130.762 151.363 130.745 153.474 131.966L181.517 148.156ZM48.0826 182.977L92.954 208.884L191.1 152.221L146.225 126.31L48.0826 182.977Z" fill="#57C6B6"/>
<path d="M141.642 180.328C132.016 185.886 114.296 184.695 102.137 177.675C89.9789 170.657 87.9177 160.426 97.541 154.868C107.168 149.313 124.887 150.503 137.046 157.52C149.204 164.541 151.266 174.773 141.642 180.328ZM97.2921 154.723C87.5277 160.362 89.5855 170.725 101.882 177.823C114.178 184.921 132.127 186.111 141.891 180.472C151.656 174.837 149.595 164.474 137.302 157.376C125.005 150.274 107.057 149.087 97.2921 154.723Z" fill="#37998C"/>
<path d="M136.537 157.813C148.437 164.685 150.498 174.635 141.141 180.041C131.783 185.445 114.547 184.255 102.644 177.382C90.7413 170.509 88.6802 160.56 98.0412 155.156C107.399 149.753 124.635 150.943 136.537 157.813Z" fill="#37998C"/>
<path d="M134.066 159.239C144.234 165.11 145.996 173.61 138 178.226C130.005 182.843 115.281 181.827 105.113 175.957C94.9447 170.086 93.1861 161.586 101.182 156.969C109.178 152.353 123.902 153.371 134.066 159.239Z" fill="#F2FAF9"/>
<path d="M153.06 155.388L154.372 156.145L168.857 147.782L167.546 147.026L153.06 155.388Z" fill="#57C6B6"/>
<path d="M86.3268 193.918L82.9576 195.862L84.269 196.618L87.6348 194.675L86.3268 193.918Z" fill="#57C6B6"/>
<path d="M88.1053 192.893L89.4133 193.649L103.902 185.284L102.591 184.527L88.1053 192.893Z" fill="#57C6B6"/>
<path d="M60.5673 184.793L62.3696 185.832L79.8676 175.731L78.0653 174.692L60.5673 184.793Z" fill="#57C6B6"/>
<path d="M131.376 143.913L133.179 144.952L150.677 134.851L148.874 133.809L131.376 143.913Z" fill="#37998C"/>
<path d="M170.949 155.419L167.015 153.146L165.529 154.242L165.737 154.363L166.248 154.168L166.82 154.225L169.92 156.014L169.953 156.31L169.53 156.603L169.785 156.747L172.223 155.342L171.968 155.194L171.463 155.439L170.949 155.419Z" fill="#57C6B6"/>
<path d="M174.597 153.707C174.039 154.03 172.731 153.344 171.964 152.904C171.201 152.463 170.014 151.707 170.576 151.384C171.134 151.061 172.442 151.744 173.208 152.188C173.972 152.628 175.159 153.385 174.597 153.707ZM170.266 151.206C168.989 151.942 169.661 152.816 170.885 153.526C172.112 154.235 173.629 154.622 174.906 153.886C176.181 153.149 175.515 152.272 174.288 151.566C173.061 150.856 171.544 150.469 170.266 151.206Z" fill="#57C6B6"/>
<path d="M178.424 151.498C177.862 151.821 176.554 151.139 175.791 150.695C175.025 150.254 173.841 149.498 174.399 149.175C174.961 148.852 176.269 149.538 177.032 149.979C177.795 150.419 178.982 151.176 178.424 151.498ZM174.093 148.997C172.815 149.733 173.485 150.611 174.712 151.317C175.939 152.026 177.456 152.413 178.73 151.677C180.008 150.94 179.339 150.063 178.111 149.357C176.884 148.647 175.367 148.26 174.093 148.997Z" fill="#57C6B6"/>
<path d="M137.493 135.483L134.856 133.96L133.861 134.696L134.342 134.646L134.729 134.683L136.803 135.88L136.827 136.082L136.541 136.273L136.713 136.374L138.343 135.433L138.175 135.332L137.836 135.497L137.493 135.483Z" fill="#F2FAF9"/>
<path d="M139.934 134.336C139.56 134.552 138.683 134.094 138.172 133.798C137.661 133.503 136.867 132.998 137.24 132.78C137.617 132.565 138.491 133.022 139.006 133.318C139.517 133.614 140.31 134.121 139.934 134.336ZM137.035 132.662C136.181 133.156 136.628 133.741 137.449 134.215C138.273 134.689 139.288 134.948 140.142 134.458C140.996 133.963 140.549 133.375 139.725 132.901C138.905 132.427 137.889 132.168 137.035 132.662Z" fill="#F2FAF9"/>
<path d="M142.496 132.857C142.123 133.076 141.245 132.615 140.734 132.319C140.223 132.027 139.429 131.519 139.802 131.304C140.176 131.085 141.053 131.546 141.564 131.842C142.075 132.134 142.872 132.642 142.496 132.857ZM139.597 131.183C138.74 131.677 139.191 132.262 140.011 132.736C140.835 133.214 141.847 133.473 142.704 132.978C143.558 132.484 143.111 131.899 142.287 131.425C141.467 130.947 140.451 130.689 139.597 131.183Z" fill="#F2FAF9"/>
<path d="M60.7661 179.779L58.1299 178.26L57.138 178.993L57.6188 178.942L58.0022 178.982L60.0768 180.18L60.1003 180.378L59.8178 180.573L59.9893 180.67L61.6201 179.729L61.4486 179.631L61.1124 179.793L60.7661 179.779Z" fill="#F2FAF9"/>
<path d="M63.2106 178.633C62.834 178.852 61.9598 178.391 61.4454 178.099C60.9343 177.803 60.1407 177.295 60.5173 177.08C60.8906 176.861 61.7681 177.322 62.2792 177.618C62.7903 177.914 63.5839 178.418 63.2106 178.633ZM60.3089 176.959C59.4548 177.453 59.902 178.041 60.7258 178.516C61.5462 178.99 62.5617 179.249 63.4157 178.754C64.2698 178.26 63.8226 177.675 63.0022 177.201C62.1784 176.727 61.1629 176.468 60.3089 176.959Z" fill="#F2FAF9"/>
<path d="M65.7726 177.157C65.3961 177.372 64.5185 176.915 64.0074 176.619C63.4963 176.323 62.7028 175.816 63.076 175.6C63.4526 175.385 64.3268 175.842 64.8412 176.138C65.3523 176.434 66.1459 176.939 65.7726 177.157ZM62.8709 175.483C62.0168 175.974 62.464 176.562 63.2844 177.036C64.1082 177.51 65.1237 177.769 65.9777 177.275C66.8318 176.781 66.3846 176.195 65.5608 175.721C64.7404 175.247 63.7249 174.988 62.8709 175.483Z" fill="#F2FAF9"/>
<path d="M154.732 150.617C151.995 152.198 147.6 152.221 144.91 150.668C142.223 149.118 142.264 146.579 144.997 144.999C147.734 143.418 152.132 143.395 154.819 144.948C157.506 146.498 157.469 149.037 154.732 150.617ZM144.406 144.656C141.336 146.428 141.292 149.276 144.308 151.017C147.321 152.759 152.254 152.732 155.323 150.96C158.393 149.188 158.44 146.34 155.424 144.599C152.408 142.857 147.476 142.884 144.406 144.656Z" fill="#37998C"/>
<path d="M89.7598 188.128C87.0262 189.708 82.6281 189.732 79.9416 188.178C77.2516 186.628 77.292 184.09 80.029 182.509C82.766 180.929 87.1607 180.906 89.8506 182.459C92.5372 184.009 92.4968 186.548 89.7598 188.128ZM79.4338 182.166C76.364 183.938 76.3202 186.786 79.3363 188.528C82.3524 190.27 87.2851 190.243 90.355 188.471C93.4249 186.699 93.4685 183.851 90.4525 182.109C87.4364 180.368 82.5037 180.394 79.4338 182.166Z" fill="#37998C"/>
<path d="M149.241 145.271C149.1 145.618 148.666 145.87 148.111 145.944L147.819 145.984C147.267 146.058 146.83 146.307 146.702 146.626L146.635 146.795C146.507 147.114 146.074 147.366 145.519 147.44C144.974 147.514 144.789 147.871 145.146 148.076L147.977 149.71C148.246 149.868 148.616 149.955 149.002 149.952L153.38 149.928L153.538 149.838L153.579 147.312L153.162 146.717L150.33 145.083C149.971 144.878 149.355 144.982 149.241 145.271Z" fill="#57C6B6"/>
<path d="M84.2388 182.799C84.101 183.145 83.6639 183.398 83.1091 183.472L82.8199 183.512C82.2651 183.586 81.8314 183.835 81.7036 184.154L81.6363 184.326C81.5086 184.645 81.0715 184.894 80.52 184.968C79.972 185.042 79.787 185.398 80.1434 185.603L82.9746 187.241C83.2469 187.396 83.6168 187.483 84.0035 187.48L88.378 187.459L88.5394 187.365L88.5764 184.84L88.1594 184.245L85.3283 182.611C84.9718 182.406 84.3532 182.513 84.2388 182.799Z" fill="#57C6B6"/>
<path d="M129.696 172.503L122.281 168.223C124.891 167.551 127.591 167.618 129.682 168.825C131.706 169.995 131.548 171.434 129.696 172.503ZM114.286 165.866C112.127 166.599 109.736 166.75 108.089 165.799C106.374 164.81 106.293 163.311 107.974 162.221L114.286 165.866ZM119.188 164.582L116.999 165.173L109.928 161.091C111.007 160.668 112.742 160.537 116.088 161.421C116.949 161.636 117.574 161.633 118.341 161.189C119.006 160.806 120.479 159.437 118.835 158.489C117.392 157.655 113.065 157.578 108.351 160.18L105.604 158.596L103.647 159.723L106.394 161.31C102.514 163.707 101.29 166.794 105.611 169.289C108.805 171.132 112.894 170.792 117.208 169.649L119.676 168.976L127.739 173.633C126.905 173.959 124.958 174.329 120.476 173.233C119.403 172.978 118.677 173.001 117.84 173.485C116.928 174.01 116.32 175.513 117.796 176.364C118.963 177.039 123.243 177.816 129.319 174.544L132.887 176.606L134.843 175.476L131.273 173.415C134.487 171.559 137.106 167.947 132.201 165.076C128.391 162.917 124.265 163.237 119.188 164.582Z" fill="#57C6B6"/>
<path d="M161.185 161.727L152.604 166.68L152.093 166.387L160.673 161.431L161.185 161.727Z" fill="#37998C"/>
<path opacity="0.5" d="M77.1105 202.321L43.066 182.147L135.112 130.45L165.374 149.363L77.1105 202.321Z" fill="#283D86"/>
<path d="M193.891 122.89L92.9945 181.14L43.1534 152.365L144.046 94.114L193.891 122.89Z" fill="#F2FAF9"/>
<path d="M180.343 118.125C182.458 119.346 182.425 121.339 180.273 122.584L92.4631 173.279C90.3111 174.523 86.8545 174.54 84.7396 173.319L56.697 157.129C54.5855 155.908 54.6157 153.915 56.7676 152.67L144.577 101.975C146.729 100.731 150.189 100.714 152.301 101.935L180.343 118.125ZM46.9091 152.946L91.7805 178.854L189.926 122.19L145.051 96.2793L46.9091 152.946Z" fill="#57C6B6"/>
<path d="M140.469 150.297C130.842 155.855 113.122 154.665 100.964 147.644C88.8053 140.627 86.7441 130.395 96.3674 124.837C105.994 119.282 123.714 120.472 135.872 127.49C148.031 134.51 150.092 144.742 140.469 150.297ZM96.1186 124.692C86.3541 130.331 88.4119 140.694 100.708 147.792C113.005 154.89 130.953 156.08 140.718 150.442C150.482 144.806 148.421 134.443 136.128 127.345C123.832 120.244 105.883 119.057 96.1186 124.692Z" fill="#37998C"/>
<path d="M135.364 127.782C147.263 134.655 149.325 144.604 139.967 150.011C130.609 155.414 113.374 154.224 101.471 147.351C89.5678 140.478 87.5066 130.529 96.8676 125.125C106.225 119.722 123.461 120.912 135.364 127.782Z" fill="#37998C"/>
<path d="M132.893 129.208C143.061 135.079 144.823 143.579 136.827 148.196C128.831 152.812 114.107 151.797 103.939 145.926C93.7711 140.055 92.0126 131.555 100.008 126.938C108.004 122.322 122.728 123.341 132.893 129.208Z" fill="#F2FAF9"/>
<path d="M151.887 125.357L153.198 126.114L167.684 117.752L166.372 116.995L151.887 125.357Z" fill="#57C6B6"/>
<path d="M85.1532 163.887L81.7841 165.831L83.0954 166.587L86.4612 164.644L85.1532 163.887Z" fill="#57C6B6"/>
<path d="M86.9318 162.862L88.2397 163.619L102.728 155.253L101.417 154.496L86.9318 162.862Z" fill="#57C6B6"/>
<path d="M59.3937 154.762L61.196 155.801L78.694 145.7L76.8917 144.661L59.3937 154.762Z" fill="#57C6B6"/>
<path d="M130.203 113.882L132.005 114.921L149.503 104.82L147.701 103.778L130.203 113.882Z" fill="#37998C"/>
<path d="M169.775 125.388L165.841 123.115L164.355 124.211L164.563 124.332L165.075 124.137L165.646 124.194L168.746 125.983L168.78 126.279L168.356 126.572L168.612 126.716L171.05 125.311L170.794 125.163L170.29 125.408L169.775 125.388Z" fill="#57C6B6"/>
<path d="M173.424 123.677C172.865 123.999 171.557 123.313 170.791 122.873C170.028 122.433 168.841 121.676 169.402 121.353C169.96 121.03 171.268 121.713 172.035 122.157C172.798 122.597 173.985 123.354 173.424 123.677ZM169.093 121.175C167.815 121.911 168.488 122.786 169.712 123.495C170.939 124.205 172.455 124.591 173.733 123.855C175.007 123.118 174.342 122.241 173.114 121.535C171.887 120.825 170.371 120.439 169.093 121.175Z" fill="#57C6B6"/>
<path d="M177.25 121.467C176.689 121.79 175.381 121.108 174.618 120.664C173.851 120.223 172.667 119.467 173.226 119.144C173.787 118.821 175.095 119.507 175.858 119.948C176.622 120.388 177.808 121.145 177.25 121.467ZM172.92 118.966C171.642 119.702 172.311 120.58 173.538 121.286C174.766 121.995 176.282 122.382 177.556 121.646C178.834 120.909 178.165 120.032 176.938 119.326C175.71 118.616 174.194 118.229 172.92 118.966Z" fill="#57C6B6"/>
<path d="M136.319 105.452L133.683 103.929L132.688 104.666L133.168 104.615L133.555 104.652L135.63 105.849L135.653 106.051L135.367 106.243L135.539 106.344L137.17 105.402L137.002 105.301L136.662 105.466L136.319 105.452Z" fill="#F2FAF9"/>
<path d="M138.76 104.306C138.387 104.521 137.509 104.064 136.998 103.768C136.487 103.472 135.694 102.967 136.067 102.749C136.443 102.534 137.318 102.991 137.832 103.287C138.343 103.583 139.137 104.091 138.76 104.306ZM135.862 102.631C135.008 103.125 135.455 103.711 136.275 104.185C137.099 104.659 138.115 104.918 138.969 104.427C139.823 103.933 139.376 103.344 138.552 102.87C137.731 102.396 136.716 102.137 135.862 102.631Z" fill="#F2FAF9"/>
<path d="M141.322 102.826C140.949 103.045 140.071 102.584 139.56 102.288C139.049 101.996 138.256 101.488 138.629 101.273C139.002 101.054 139.88 101.515 140.391 101.811C140.902 102.103 141.699 102.611 141.322 102.826ZM138.424 101.152C137.566 101.646 138.017 102.231 138.837 102.705C139.661 103.183 140.673 103.442 141.531 102.947C142.385 102.453 141.938 101.868 141.114 101.394C140.293 100.916 139.278 100.658 138.424 101.152Z" fill="#F2FAF9"/>
<path d="M59.5925 149.748L56.9564 148.228L55.9644 148.962L56.4453 148.911L56.8286 148.951L58.9032 150.149L58.9267 150.347L58.6443 150.542L58.8157 150.639L60.4465 149.698L60.2751 149.6L59.9388 149.762L59.5925 149.748Z" fill="#F2FAF9"/>
<path d="M62.037 148.602C61.6605 148.821 60.7862 148.36 60.2718 148.068C59.7607 147.772 58.9672 147.264 59.3437 147.049C59.717 146.83 60.5946 147.291 61.1057 147.587C61.6167 147.883 62.4103 148.387 62.037 148.602ZM59.1353 146.928C58.2812 147.422 58.7284 148.01 59.5522 148.484C60.3726 148.959 61.3881 149.218 62.2422 148.723C63.0962 148.229 62.649 147.644 61.8286 147.17C61.0048 146.696 59.9893 146.437 59.1353 146.928Z" fill="#F2FAF9"/>
<path d="M64.5991 147.126C64.2225 147.342 63.3449 146.884 62.8339 146.588C62.3228 146.292 61.5292 145.785 61.9025 145.57C62.279 145.354 63.1533 145.812 63.6677 146.108C64.1788 146.403 64.9724 146.908 64.5991 147.126ZM61.6974 145.452C60.8433 145.943 61.2905 146.531 62.1109 147.005C62.9347 147.479 63.9502 147.738 64.8042 147.244C65.6583 146.75 65.2111 146.165 64.3873 145.691C63.5669 145.217 62.5514 144.958 61.6974 145.452Z" fill="#F2FAF9"/>
<path d="M153.558 120.586C150.821 122.167 146.426 122.19 143.736 120.637C141.05 119.087 141.09 116.548 143.824 114.968C146.561 113.388 150.959 113.364 153.645 114.917C156.332 116.468 156.295 119.006 153.558 120.586ZM143.232 114.625C140.162 116.397 140.118 119.245 143.135 120.987C146.147 122.728 151.08 122.701 154.15 120.929C157.22 119.157 157.267 116.309 154.251 114.568C151.235 112.826 146.302 112.853 143.232 114.625Z" fill="#37998C"/>
<path d="M88.5863 158.097C85.8527 159.678 81.4546 159.701 78.7681 158.148C76.0781 156.598 76.1184 154.059 78.8554 152.479C81.5924 150.898 85.9872 150.875 88.6771 152.428C91.3637 153.978 91.3233 156.517 88.5863 158.097ZM78.2603 152.136C75.1904 153.908 75.1467 156.756 78.1628 158.497C81.1789 160.239 86.1116 160.212 89.1814 158.44C92.2513 156.668 92.295 153.82 89.2789 152.079C86.2628 150.337 81.3302 150.364 78.2603 152.136Z" fill="#37998C"/>
<path d="M148.067 115.24C147.926 115.587 147.492 115.839 146.938 115.913L146.645 115.953C146.094 116.027 145.657 116.276 145.529 116.595L145.462 116.764C145.334 117.083 144.9 117.335 144.345 117.409C143.801 117.483 143.616 117.84 143.972 118.045L146.803 119.679C147.072 119.837 147.442 119.924 147.829 119.921L152.207 119.897L152.365 119.807L152.405 117.281L151.988 116.686L149.157 115.052C148.797 114.847 148.182 114.951 148.067 115.24Z" fill="#57C6B6"/>
<path d="M83.0653 152.768C82.9275 153.115 82.4904 153.367 81.9356 153.441L81.6464 153.481C81.0916 153.555 80.6579 153.804 80.5301 154.123L80.4628 154.295C80.335 154.614 79.8979 154.863 79.3465 154.937C78.7984 155.011 78.6135 155.368 78.9699 155.573L81.801 157.21C82.0734 157.365 82.4433 157.452 82.83 157.449L87.2045 157.429L87.3659 157.335L87.4028 154.809L86.9859 154.214L84.1547 152.58C83.7983 152.375 83.1796 152.483 83.0653 152.768Z" fill="#57C6B6"/>
<path d="M128.522 142.473L121.108 138.192C123.717 137.52 126.417 137.587 128.509 138.794C130.533 139.964 130.375 141.403 128.522 142.473ZM113.112 135.835C110.953 136.568 108.563 136.72 106.915 135.768C105.2 134.78 105.12 133.28 106.801 132.19L113.112 135.835ZM118.015 134.551L115.826 135.143L108.754 131.061C109.834 130.637 111.569 130.506 114.914 131.39C115.775 131.605 116.401 131.602 117.167 131.158C117.833 130.775 119.306 129.406 117.661 128.458C116.219 127.624 111.892 127.547 107.177 130.149L104.43 128.566L102.473 129.692L105.22 131.279C101.34 133.677 100.116 136.763 104.437 139.258C107.631 141.101 111.72 140.761 116.034 139.618L118.502 138.946L126.565 143.603C125.731 143.929 123.784 144.298 119.302 143.202C118.23 142.947 117.503 142.97 116.666 143.454C115.755 143.979 115.146 145.482 116.622 146.333C117.789 147.009 122.07 147.785 128.145 144.514L131.713 146.575L133.67 145.445L130.099 143.384C133.313 141.528 135.933 137.917 131.027 135.045C127.217 132.886 123.092 133.206 118.015 134.551Z" fill="#57C6B6"/>
<path d="M160.011 131.696L151.43 136.649L150.919 136.356L159.5 131.4L160.011 131.696Z" fill="#37998C"/>
<path d="M150.108 126.387L146.739 128.331L148.051 129.087L151.416 127.144L150.108 126.387Z" fill="#57C6B6"/>
<path d="M202.552 223.615L202.556 223.611C208.85 218.86 212.589 215.356 212.979 213.665C212.592 215.353 208.853 218.86 202.552 223.615Z" fill="url(#paint19_radial_4_15128)"/>
<path d="M158.504 149.93C160.727 148.615 162.906 147.314 165.034 146.026H165.037C162.906 147.314 160.727 148.615 158.504 149.93ZM166.278 145.277H166.275C166.725 145.004 167.173 144.732 167.616 144.463C167.173 144.732 166.725 145.004 166.278 145.277Z" fill="url(#paint20_radial_4_15128)"/>
<path d="M165.037 146.027H165.034C165.451 145.775 165.865 145.526 166.275 145.277H166.278C165.865 145.526 165.451 145.778 165.037 146.027Z" fill="url(#paint21_radial_4_15128)"/>
<path opacity="0.5" d="M117.46 327.382L55.6751 293.337L5.23883 91.5924L119.981 0.807129L244.811 91.5924L175.461 293.337L117.46 327.382Z" fill="url(#paint22_linear_4_15128)"/>
<defs>
<linearGradient id="paint0_linear_4_15128" x1="218.472" y1="292.208" x2="233.357" y2="318.621" gradientUnits="userSpaceOnUse">
<stop stop-color="#E8EEF9"/>
<stop offset="0.408867" stop-color="#BCC1CD"/>
<stop offset="0.650246" stop-color="#E8EEF9"/>
<stop offset="1" stop-color="#E8EEF9"/>
</linearGradient>
<linearGradient id="paint1_linear_4_15128" x1="204.74" y1="299.947" x2="219.625" y2="326.36" gradientUnits="userSpaceOnUse">
<stop stop-color="#E8EEF9"/>
<stop offset="0.408867" stop-color="#BCC1CD"/>
<stop offset="0.650246" stop-color="#E8EEF9"/>
<stop offset="1" stop-color="#E8EEF9"/>
</linearGradient>
<linearGradient id="paint2_linear_4_15128" x1="191.005" y1="307.686" x2="205.89" y2="334.099" gradientUnits="userSpaceOnUse">
<stop stop-color="#E8EEF9"/>
<stop offset="0.408867" stop-color="#BCC1CD"/>
<stop offset="0.650246" stop-color="#E8EEF9"/>
<stop offset="1" stop-color="#E8EEF9"/>
</linearGradient>
<linearGradient id="paint3_linear_4_15128" x1="177.274" y1="315.425" x2="192.159" y2="341.837" gradientUnits="userSpaceOnUse">
<stop stop-color="#E8EEF9"/>
<stop offset="0.408867" stop-color="#BCC1CD"/>
<stop offset="0.650246" stop-color="#E8EEF9"/>
<stop offset="1" stop-color="#E8EEF9"/>
</linearGradient>
<linearGradient id="paint4_linear_4_15128" x1="163.544" y1="323.164" x2="178.428" y2="349.577" gradientUnits="userSpaceOnUse">
<stop stop-color="#E8EEF9"/>
<stop offset="0.408867" stop-color="#BCC1CD"/>
<stop offset="0.650246" stop-color="#E8EEF9"/>
<stop offset="1" stop-color="#E8EEF9"/>
</linearGradient>
<linearGradient id="paint5_linear_4_15128" x1="149.809" y1="330.903" x2="164.694" y2="357.315" gradientUnits="userSpaceOnUse">
<stop stop-color="#E8EEF9"/>
<stop offset="0.408867" stop-color="#BCC1CD"/>
<stop offset="0.650246" stop-color="#E8EEF9"/>
<stop offset="1" stop-color="#E8EEF9"/>
</linearGradient>
<linearGradient id="paint6_linear_4_15128" x1="136.077" y1="338.642" x2="150.962" y2="365.054" gradientUnits="userSpaceOnUse">
<stop stop-color="#E8EEF9"/>
<stop offset="0.408867" stop-color="#BCC1CD"/>
<stop offset="0.650246" stop-color="#E8EEF9"/>
<stop offset="1" stop-color="#E8EEF9"/>
</linearGradient>
<linearGradient id="paint7_linear_4_15128" x1="122.342" y1="346.38" x2="137.227" y2="372.793" gradientUnits="userSpaceOnUse">
<stop stop-color="#E8EEF9"/>
<stop offset="0.408867" stop-color="#BCC1CD"/>
<stop offset="0.650246" stop-color="#E8EEF9"/>
<stop offset="1" stop-color="#E8EEF9"/>
</linearGradient>
<linearGradient id="paint8_linear_4_15128" x1="20.9044" y1="292.594" x2="6.01957" y2="319.006" gradientUnits="userSpaceOnUse">
<stop stop-color="#BCC1CD"/>
<stop offset="0.0738916" stop-color="#BCC1CD"/>
<stop offset="0.157635" stop-color="#F6F8FD"/>
<stop offset="0.408867" stop-color="#919DB4"/>
<stop offset="0.650246" stop-color="#E8EEF9"/>
<stop offset="1" stop-color="#E8EEF9"/>
</linearGradient>
<linearGradient id="paint9_linear_4_15128" x1="34.6362" y1="300.332" x2="19.7513" y2="326.745" gradientUnits="userSpaceOnUse">
<stop stop-color="#BCC1CD"/>
<stop offset="0.0738916" stop-color="#BCC1CD"/>
<stop offset="0.157635" stop-color="#F6F8FD"/>
<stop offset="0.408867" stop-color="#919DB4"/>
<stop offset="0.650246" stop-color="#E8EEF9"/>
<stop offset="1" stop-color="#E8EEF9"/>
</linearGradient>
<linearGradient id="paint10_linear_4_15128" x1="48.3703" y1="308.071" x2="33.4854" y2="334.484" gradientUnits="userSpaceOnUse">
<stop stop-color="#BCC1CD"/>
<stop offset="0.0738916" stop-color="#BCC1CD"/>
<stop offset="0.157635" stop-color="#F6F8FD"/>
<stop offset="0.408867" stop-color="#919DB4"/>
<stop offset="0.650246" stop-color="#E8EEF9"/>
<stop offset="1" stop-color="#E8EEF9"/>
</linearGradient>
<linearGradient id="paint11_linear_4_15128" x1="62.1017" y1="315.81" x2="47.2168" y2="342.223" gradientUnits="userSpaceOnUse">
<stop stop-color="#BCC1CD"/>
<stop offset="0.0738916" stop-color="#BCC1CD"/>
<stop offset="0.157635" stop-color="#F6F8FD"/>
<stop offset="0.408867" stop-color="#919DB4"/>
<stop offset="0.650246" stop-color="#E8EEF9"/>
<stop offset="1" stop-color="#E8EEF9"/>
</linearGradient>
<linearGradient id="paint12_linear_4_15128" x1="75.8363" y1="323.549" x2="60.9514" y2="349.962" gradientUnits="userSpaceOnUse">
<stop stop-color="#BCC1CD"/>
<stop offset="0.0738916" stop-color="#BCC1CD"/>
<stop offset="0.157635" stop-color="#F6F8FD"/>
<stop offset="0.408867" stop-color="#919DB4"/>
<stop offset="0.650246" stop-color="#E8EEF9"/>
<stop offset="1" stop-color="#E8EEF9"/>
</linearGradient>
<linearGradient id="paint13_linear_4_15128" x1="89.5676" y1="331.288" x2="74.6828" y2="357.701" gradientUnits="userSpaceOnUse">
<stop stop-color="#BCC1CD"/>
<stop offset="0.0738916" stop-color="#BCC1CD"/>
<stop offset="0.157635" stop-color="#F6F8FD"/>
<stop offset="0.408867" stop-color="#919DB4"/>
<stop offset="0.650246" stop-color="#E8EEF9"/>
<stop offset="1" stop-color="#E8EEF9"/>
</linearGradient>
<linearGradient id="paint14_linear_4_15128" x1="103.299" y1="339.027" x2="88.4145" y2="365.44" gradientUnits="userSpaceOnUse">
<stop stop-color="#BCC1CD"/>
<stop offset="0.0738916" stop-color="#BCC1CD"/>
<stop offset="0.157635" stop-color="#F6F8FD"/>
<stop offset="0.408867" stop-color="#919DB4"/>
<stop offset="0.650246" stop-color="#E8EEF9"/>
<stop offset="1" stop-color="#E8EEF9"/>
</linearGradient>
<linearGradient id="paint15_linear_4_15128" x1="117.034" y1="346.766" x2="102.149" y2="373.179" gradientUnits="userSpaceOnUse">
<stop stop-color="#BCC1CD"/>
<stop offset="0.0738916" stop-color="#BCC1CD"/>
<stop offset="0.157635" stop-color="#F6F8FD"/>
<stop offset="0.408867" stop-color="#919DB4"/>
<stop offset="0.650246" stop-color="#E8EEF9"/>
<stop offset="1" stop-color="#E8EEF9"/>
</linearGradient>
<radialGradient id="paint16_radial_4_15128" cx="0" cy="0" r="1" gradientUnits="userSpaceOnUse" gradientTransform="translate(115.568 291.446) rotate(90) scale(35.9358 59.8931)">
<stop stop-color="#FCFDFF"/>
<stop offset="1" stop-color="#36D1F4"/>
</radialGradient>
<radialGradient id="paint17_radial_4_15128" cx="0" cy="0" r="1" gradientUnits="userSpaceOnUse" gradientTransform="translate(142.953 180.745) rotate(-30.0003) scale(80.466 7.15176)">
<stop stop-color="#F3FBFC"/>
<stop offset="1" stop-color="#F2FBF9"/>
</radialGradient>
<radialGradient id="paint18_radial_4_15128" cx="0" cy="0" r="1" gradientUnits="userSpaceOnUse" gradientTransform="translate(142.953 180.744) rotate(-30.0005) scale(80.4648 7.15168)">
<stop stop-color="#83D6DF"/>
<stop offset="1" stop-color="#57C6B7"/>
</radialGradient>
<radialGradient id="paint19_radial_4_15128" cx="0" cy="0" r="1" gradientUnits="userSpaceOnUse" gradientTransform="translate(142.953 252.989) rotate(-30.0005) scale(80.4658 7.15176)">
<stop stop-color="#6CCFEC"/>
<stop offset="1" stop-color="#293E90"/>
</radialGradient>
<radialGradient id="paint20_radial_4_15128" cx="0" cy="0" r="1" gradientUnits="userSpaceOnUse" gradientTransform="translate(142.953 150.714) rotate(-30.0003) scale(80.466 7.15176)">
<stop stop-color="#F3FBFC"/>
<stop offset="1" stop-color="#F2FBF9"/>
</radialGradient>
<radialGradient id="paint21_radial_4_15128" cx="0" cy="0" r="1" gradientUnits="userSpaceOnUse" gradientTransform="translate(142.953 150.714) rotate(-30.0005) scale(80.4648 7.15168)">
<stop stop-color="#83D6DF"/>
<stop offset="1" stop-color="#57C6B7"/>
</radialGradient>
<linearGradient id="paint22_linear_4_15128" x1="126.286" y1="94.1142" x2="125.025" y2="327.382" gradientUnits="userSpaceOnUse">
<stop stop-color="#055CE7" stop-opacity="0"/>
<stop offset="1" stop-color="#055CE7"/>
</linearGradient>
</defs>
</svg>
