<svg width="396" height="403" viewBox="0 0 396 403" fill="none" xmlns="http://www.w3.org/2000/svg">
<path d="M175.865 403H2.07318C-1.17256 403 -0.537965 401.019 3.49152 398.577L24.3546 385.925H28.6694C31.5829 385.925 36.8732 384.144 40.4895 381.955L76.0478 360.384C79.6641 358.194 80.2349 356.414 77.3214 356.414H73.0066L93.8738 343.761C97.9033 341.319 103.794 339.339 107.04 339.339H140.409V357.558C140.409 360.832 142.189 362.668 144.83 362.668C146.129 362.668 147.633 362.224 149.239 361.293L160.71 354.655V369.302C160.71 372.58 162.49 374.411 165.131 374.411C166.426 374.411 167.934 373.972 169.539 373.041L181.449 366.147V381.301C181.449 384.58 183.225 386.411 185.87 386.411C187.165 386.411 188.669 385.971 190.275 385.041L269.259 339.339H280.836C284.077 339.339 283.443 341.319 279.417 343.761L189.031 398.577C185.006 401.019 179.111 403 175.865 403ZM165.131 373.344C162.997 373.344 161.774 371.871 161.774 369.302V354.04L181.449 342.66V364.918L169.007 372.115C167.618 372.917 166.277 373.344 165.131 373.344ZM144.83 361.596C142.7 361.596 141.478 360.124 141.478 357.558V339.339H160.71V353.426L148.706 360.371C147.318 361.174 145.976 361.596 144.83 361.596ZM161.774 352.807V339.339H181.449V341.426L161.774 352.807Z" fill="#25306C"/>
<path d="M219.508 101.999C217.136 101.999 215.538 100.356 215.538 97.4143V90.9129L207.3 95.6812V86.1232L233.88 70.7426V94.742L232.913 95.3013L223.465 100.77C222.021 101.602 220.671 101.999 219.508 101.999ZM207.3 86.1232V62.6317L223.465 14.4082C228.146 18.9673 227.835 19.7186 233.88 22.4123V70.7426L207.3 86.1232ZM207.3 62.6317V20.8114C206.397 20.8114 220.773 9.6057 223.465 14.4082L207.3 62.6317Z" fill="url(#paint0_linear_9_83)"/>
<path d="M263.07 17.1007C261.775 17.1007 260.271 17.5404 258.665 18.471L233.402 33.0875V39.5847C233.402 43.9731 229.854 49.5823 225.475 52.1138L182.425 77.0268C180.985 77.8592 179.63 78.2562 178.467 78.2562C176.095 78.2562 174.498 76.6084 174.498 73.6672V67.17L149.239 81.7866C144.362 84.6083 140.409 90.8536 140.409 95.7415L140.409 357.558C140.409 360.832 142.189 362.668 144.83 362.668C146.129 362.668 147.633 362.224 149.239 361.293L258.665 297.978C263.538 295.161 267.491 288.911 267.491 284.028V22.2105C267.491 18.932 265.715 17.1007 263.07 17.1007ZM263.07 18.1679C265.204 18.1679 266.426 19.6407 266.426 22.2105V284.028C266.426 288.565 262.703 294.41 258.133 297.056L148.706 360.371C147.318 361.174 145.976 361.596 144.83 361.596C142.7 361.596 141.478 360.124 141.478 357.558L141.478 95.7415C141.478 91.2037 145.197 85.3596 149.771 82.7129L173.433 69.0185V73.6672C173.433 77.1036 175.409 79.3234 178.467 79.3234C179.852 79.3234 181.407 78.8496 182.957 77.9489L226.008 53.0401C230.753 50.2953 234.467 44.3872 234.467 39.5847V33.7022L259.198 19.3973C260.582 18.5905 261.924 18.1679 263.07 18.1679Z" fill="#3C56AF"/>
<path d="M283.371 28.8442C282.076 28.8442 280.568 29.2882 278.962 30.2145L253.703 44.831V51.3325C253.703 55.7166 250.155 61.3259 245.776 63.8615L202.726 88.7703C201.282 89.6027 199.931 89.9997 198.769 89.9997C196.396 89.9997 194.799 88.3562 194.799 85.415V78.9135L169.54 93.5343C164.663 96.3518 160.71 102.601 160.71 107.485L160.71 369.302C160.71 372.58 162.49 374.411 165.131 374.411C166.426 374.411 167.934 373.972 169.539 373.041L278.962 309.726C283.839 306.904 287.792 300.659 287.792 295.771V33.954C287.792 30.6798 286.011 28.8442 283.371 28.8442ZM283.371 29.9157C285.505 29.9157 286.727 31.3884 286.727 33.954V295.771C286.727 300.309 283.004 306.153 278.43 308.8L169.007 372.115C167.618 372.917 166.277 373.344 165.131 373.344C162.997 373.344 161.774 371.871 161.774 369.302L161.775 107.485C161.775 102.947 165.498 97.1031 170.072 94.4564L193.734 80.7662V85.415C193.734 88.8471 195.71 91.0669 198.769 91.0669C200.153 91.0669 201.703 90.5931 203.258 89.6966L246.309 64.7836C251.054 62.0388 254.768 56.1307 254.768 51.3325V45.45L279.495 31.1408C280.883 30.3383 282.225 29.9157 283.371 29.9157Z" fill="#57C6B6"/>
<path d="M299.701 42.2137L274.443 56.8302V63.3317C274.443 67.7158 270.894 73.3251 266.516 75.8608L223.465 100.77C219.086 103.301 215.538 101.798 215.538 97.4143V90.9129L190.275 105.529C185.402 108.351 181.449 114.601 181.449 119.484L181.449 381.301C181.449 386.189 185.402 387.863 190.275 385.041L299.701 321.725C304.578 318.904 308.531 312.658 308.531 307.77V45.9532C308.531 41.0696 304.578 39.3962 299.701 42.2137Z" fill="#F8FBFE"/>
<path d="M246.343 156.479L223.882 130.485L232.913 125.26L232.913 95.3013L233.88 94.742L249.98 85.4276L249.976 135.134L240.946 140.359L249.188 149.896L246.343 156.479Z" fill="#DBDFE9"/>
<path d="M181.449 312.671V203.866L257.698 159.748L263.406 166.352L269.114 153.14L289.368 141.422C289.96 142.766 290.607 144.086 291.306 145.37C291.28 145.661 291.268 145.947 291.268 146.233V157.391L197.086 212.246L197.887 212.707L197.729 303.25L181.449 312.671Z" fill="#DBDFE9"/>
<path d="M327.882 137L197.887 212.707L197.699 321.146L327.695 245.438C330.263 243.939 328.001 142.417 327.882 137Z" fill="#3C56AF"/>
<path d="M197.086 212.246L327.082 136.534L327.882 137L197.887 212.707L197.086 212.246Z" fill="#6F97D6"/>
<path d="M197.887 212.707C198.01 218.21 200.336 322.737 197.58 321.145L198.056 320.164C197.706 316.962 196.932 217.587 197.086 212.246L197.887 212.707Z" fill="#4674CC"/>
<path d="M197.887 212.707L270.856 247.499L278.966 231.145L237.227 199.918L197.887 212.707Z" fill="#4674CC"/>
<path d="M268.219 243.52L197.887 212.707L291.267 158.322V159.445C291.267 163.176 293.295 165.263 296.302 165.263C297.78 165.263 299.492 164.76 301.32 163.701L304.71 161.742C305.528 162.42 306.363 163.078 307.219 163.714C301.324 172.935 294.351 185.301 287.391 199.162C278.659 216.562 271.827 232.575 268.219 243.52Z" fill="url(#paint1_linear_9_83)"/>
<path d="M327.856 136.986C327.856 136.986 324.274 143.701 318.903 153.772C313.613 163.889 306.559 177.374 299.505 190.859C292.592 204.421 285.679 217.979 280.495 228.148C275.392 238.359 271.989 245.168 271.989 245.168L327.903 137.012L327.856 136.986Z" fill="#7AB7E7"/>
<path d="M271.887 248.127L330.987 132.868L198.411 212.909L271.887 248.127Z" fill="url(#paint2_linear_9_83)"/>
<path d="M339.046 141.875L301.32 163.701C295.77 166.915 291.267 165.007 291.267 159.445L291.268 146.233C291.268 140.666 295.77 133.555 301.32 130.34L339.046 108.513C344.596 105.303 349.099 107.207 349.099 112.774V125.982C349.099 131.548 344.596 138.664 339.046 141.875Z" fill="#5CC8B8"/>
<path d="M313.408 134.362V145.743L309.852 147.8L306.082 144.261V149.982L302.521 152.043V140.663L306.082 138.601L309.852 142.242V136.424L313.408 134.362Z" fill="#F8FBFE"/>
<path d="M322.592 131.894L318.579 134.216V135.612L322.106 133.571V136.256L318.579 138.297V139.902L322.592 137.584V140.427L315.018 144.807V133.43L322.592 129.051V131.894Z" fill="#F8FBFE"/>
<path d="M323.622 128.453L327.456 126.233L328.483 132.807L330.02 124.748L333.9 122.502L335.442 128.782L336.469 121.021L340.298 118.801L337.7 131.685L333.274 134.246L331.962 128.547L330.646 135.766L326.221 138.327L323.622 128.453Z" fill="#F8FBFE"/>
<path d="M263.406 166.352L257.698 159.748L249.188 149.896L240.946 140.359L249.976 135.134L249.98 85.4276L249.98 73.2701C252.11 73.5176 254.282 73.6457 256.48 73.6457C263.56 73.6457 270.328 72.3224 276.56 69.9105V119.754L284.729 115.028C284.678 115.762 284.644 116.505 284.623 117.248L269.114 153.14L263.406 166.352Z" fill="url(#paint3_linear_9_83)"/>
<path d="M395.996 119.033V118.572C395.996 118.649 396 118.725 396 118.802C396 118.879 395.996 118.956 395.996 119.033Z" fill="url(#paint4_radial_9_83)"/>
<path d="M249.98 73.2701C245.478 72.745 241.142 71.685 237.036 70.1482H237.04C241.146 71.6807 245.478 72.7437 249.981 73.2645L249.98 73.2701ZM235.758 69.653C235.128 69.4012 234.502 69.1365 233.88 68.859V68.8548C234.502 69.1322 235.132 69.3969 235.762 69.653H235.758ZM207.3 44.0527C204.302 38.4178 202.24 32.2067 201.324 25.6284C202.24 32.2067 204.302 38.4178 207.3 44.0484V44.0527Z" fill="url(#paint5_radial_9_83)"/>
<path d="M217.672 57.864C217.404 57.6079 217.144 57.3474 216.884 57.087L216.888 57.0828C217.144 57.3474 217.408 57.6079 217.672 57.864Z" fill="url(#paint6_radial_9_83)"/>
<path d="M237.036 70.1482C236.61 69.9902 236.184 69.8238 235.758 69.653H235.762C236.188 69.8238 236.61 69.986 237.04 70.1482H237.036Z" fill="url(#paint7_radial_9_83)"/>
<path d="M306.832 41.7182C308.242 38.7343 309.4 35.6053 310.269 32.3567C309.4 35.6053 308.246 38.7343 306.832 41.7182Z" fill="url(#paint8_radial_9_83)"/>
<path d="M276.56 69.9105L276.559 69.9065C289.887 64.7412 300.741 54.5803 306.832 41.7182C300.741 54.5803 289.887 64.7409 276.56 69.9105Z" fill="url(#paint9_radial_9_83)"/>
<path d="M290.395 225.459C293.76 219.457 297.257 212.87 300.754 205.903C307.552 192.371 313.196 179.671 317.063 169.546C313.196 179.671 307.552 192.367 300.758 205.903C297.261 212.87 293.76 219.457 290.395 225.459Z" fill="url(#paint10_radial_9_83)"/>
<path d="M266.656 258.176C266.486 258.176 266.332 258.142 266.196 258.069C266.337 258.137 266.49 258.172 266.66 258.172C266.984 258.172 267.367 258.048 267.806 257.805C267.367 258.048 266.984 258.176 266.656 258.176Z" fill="url(#paint11_radial_9_83)"/>
<path d="M251.122 139.271L249.524 49.6254C247.927 42.1549 242.496 26.8937 227.162 19.2098C220.131 15.6865 217.869 14.3846 216.248 14.6249L213.107 16.5971C211.751 17.6679 209.779 19.1159 206.397 20.8106L213.107 16.5971C214.526 15.4772 215.27 14.77 216.248 14.6249L234.847 2.94632C235.771 2.05541 236.926 1.28176 238.343 0.751058C241.877 -0.572059 247.043 -0.385081 254.316 3.2598C269.651 10.9437 276.679 27.8057 278.276 35.2762V123.321L251.122 139.271Z" fill="#60C9BB"/>
<defs>
<linearGradient id="paint0_linear_9_83" x1="-137.203" y1="311.257" x2="-69.1322" y2="-74.3113" gradientUnits="userSpaceOnUse">
<stop stop-color="#3A9E91"/>
<stop offset="1" stop-color="#339184"/>
</linearGradient>
<linearGradient id="paint1_linear_9_83" x1="235.027" y1="325.683" x2="407.62" y2="97.2804" gradientUnits="userSpaceOnUse">
<stop stop-color="#4D6DBE"/>
<stop offset="1" stop-color="#6F98D6"/>
</linearGradient>
<linearGradient id="paint2_linear_9_83" x1="286.265" y1="279.861" x2="14.2218" y2="271.725" gradientUnits="userSpaceOnUse">
<stop stop-color="#546FCA"/>
<stop offset="1" stop-color="#3C56AF"/>
</linearGradient>
<linearGradient id="paint3_linear_9_83" x1="-202.18" y1="625.531" x2="-19.0769" y2="-59.4059" gradientUnits="userSpaceOnUse">
<stop stop-color="#8ED9D1"/>
<stop offset="1" stop-color="#57C6B7"/>
</linearGradient>
<radialGradient id="paint4_radial_9_83" cx="0" cy="0" r="1" gradientUnits="userSpaceOnUse" gradientTransform="translate(-5.1781e+06 201.497) scale(5.1781e+06 48792.9)">
<stop stop-color="#7BD3DD"/>
<stop offset="1" stop-color="#293E90"/>
</radialGradient>
<radialGradient id="paint5_radial_9_83" cx="0" cy="0" r="1" gradientUnits="userSpaceOnUse" gradientTransform="translate(448.902 469.011) scale(453.304 472.189)">
<stop stop-color="#7BD3DD"/>
<stop offset="1" stop-color="#293E90"/>
</radialGradient>
<radialGradient id="paint6_radial_9_83" cx="0" cy="0" r="1" gradientUnits="userSpaceOnUse" gradientTransform="translate(19898.5 20654.3) scale(27989.7 28795.8)">
<stop stop-color="#7BD3DD"/>
<stop offset="1" stop-color="#3D56AF"/>
</radialGradient>
<radialGradient id="paint7_radial_9_83" cx="0" cy="0" r="1" gradientUnits="userSpaceOnUse" gradientTransform="translate(6400.46 42582.5) scale(17203 45427.8)">
<stop stop-color="#9DDEE4"/>
<stop offset="1" stop-color="#57C6B7"/>
</radialGradient>
<radialGradient id="paint8_radial_9_83" cx="0" cy="0" r="1" gradientUnits="userSpaceOnUse" gradientTransform="translate(-5800.64 1028.54) scale(6416.48 2402.93)">
<stop stop-color="#7BD3DD"/>
<stop offset="1" stop-color="#293E90"/>
</radialGradient>
<radialGradient id="paint9_radial_9_83" cx="0" cy="0" r="1" gradientUnits="userSpaceOnUse" gradientTransform="translate(-262.663 744.549) scale(728.591 797.945)">
<stop stop-color="white"/>
<stop offset="1" stop-color="#F8FBFE"/>
</radialGradient>
<radialGradient id="paint10_radial_9_83" cx="0" cy="0" r="1" gradientUnits="userSpaceOnUse" gradientTransform="translate(54.6469 165.224) rotate(44.0369) scale(575.851 86.4318)">
<stop stop-color="#5EC8F3"/>
<stop offset="1" stop-color="#3D56AF"/>
</radialGradient>
<radialGradient id="paint11_radial_9_83" cx="0" cy="0" r="1" gradientUnits="userSpaceOnUse" gradientTransform="translate(4718 6382.38) rotate(54.2445) scale(7850.14 1118.07)">
<stop stop-color="#5EC8F3"/>
<stop offset="1" stop-color="#3D56AF"/>
</radialGradient>
</defs>
</svg>
