<svg width="220" height="250" viewBox="0 0 220 250" fill="none" xmlns="http://www.w3.org/2000/svg">
<path d="M112.807 250H1.32778C-0.751428 250 -0.344308 248.716 2.23763 247.133L15.6227 238.931H18.3904C20.2565 238.931 23.6527 237.777 25.9696 236.358L48.7808 222.375C51.1004 220.955 51.4665 219.802 49.5977 219.802H46.83L60.2151 211.6C62.797 210.017 66.5784 208.733 68.6576 208.733C68.6576 208.733 68.6576 208.733 68.6603 208.733H90.7338V220.695C90.7338 222.818 91.8732 224.008 93.5699 224.008C94.4004 224.008 95.3677 223.72 96.395 223.119L103.152 219.168V227.956C103.152 230.079 104.291 231.269 105.985 231.269C106.818 231.269 107.783 230.981 108.813 230.381L115.848 226.266V235.381C115.848 237.506 116.99 238.693 118.684 238.693C119.518 238.693 120.482 238.408 121.512 237.805L171.23 208.733H180.137C182.219 208.733 181.812 210.017 179.227 211.6L121.253 247.133C118.668 248.716 114.889 250 112.807 250ZM105.985 230.577C104.619 230.577 103.835 229.62 103.835 227.956V218.769L115.848 211.743V225.466L108.471 229.78C107.581 230.3 106.723 230.577 105.985 230.577ZM93.5699 223.316C92.201 223.316 91.4169 222.358 91.4169 220.695V208.733H103.152V218.371L96.0535 222.519C95.1655 223.039 94.3048 223.316 93.5699 223.316ZM103.835 217.97V208.733H115.848V210.944L103.835 217.97Z" fill="#9BB1DB"/>
<path d="M169.413 0C168.58 0 167.615 0.285011 166.585 0.888261L150.383 10.3632V14.5776C150.383 17.4195 148.107 21.0556 145.299 22.6965L117.684 38.8459C116.758 39.3855 115.892 39.6429 115.146 39.6429C113.624 39.6429 112.6 38.5775 112.6 36.6681V32.4565L96.3948 41.9314C93.2692 43.7605 90.7336 47.8116 90.7336 50.9773L90.7338 220.695C90.7338 222.818 91.8732 224.008 93.5699 224.008C94.4004 224.008 95.3677 223.72 96.395 223.119L166.585 182.076C169.714 180.247 172.249 176.196 172.249 173.03V3.31233C172.249 1.18712 171.107 0 169.413 0ZM169.413 0.6918C170.779 0.6918 171.566 1.64648 171.566 3.31233V173.03C171.566 175.972 169.178 179.76 166.244 181.476L96.0535 222.519C95.1655 223.039 94.3048 223.316 93.5699 223.316C92.201 223.316 91.4169 222.358 91.4169 220.695L91.4167 50.9773C91.4167 48.0358 93.8047 44.2475 96.7363 42.5319L111.916 33.6547V36.6681C111.916 38.8957 113.184 40.3347 115.146 40.3347C116.034 40.3347 117.028 40.0275 118.026 39.4437L145.64 23.297C148.681 21.5177 151.066 17.6879 151.066 14.5776V10.7644L166.927 1.48872C167.817 0.968488 168.675 0.6918 169.413 0.6918Z" fill="#4674CC"/>
<path d="M181.831 7.26113C180.998 7.26113 180.033 7.54614 179.003 8.14939L162.798 17.6243V21.836C162.798 24.6806 160.523 28.3167 157.717 29.9577L130.099 46.1071C129.176 46.6467 128.31 46.904 127.561 46.904C126.039 46.904 125.017 45.8386 125.017 43.9293V39.7176L108.813 49.1925C105.687 51.0216 103.152 55.07 103.152 58.2385L103.152 227.956C103.152 230.079 104.291 231.269 105.985 231.269C106.818 231.269 107.783 230.981 108.813 230.381L179.003 189.337C182.129 187.508 184.664 183.457 184.664 180.291V10.5735C184.664 8.44825 183.525 7.26113 181.831 7.26113ZM181.831 7.95293C183.197 7.95293 183.981 8.90761 183.981 10.5735V180.291C183.981 183.233 181.596 187.021 178.662 188.737L108.471 229.78C107.581 230.3 106.723 230.577 105.985 230.577C104.619 230.577 103.835 229.62 103.835 227.956L103.835 58.2385C103.835 55.2969 106.22 51.5087 109.154 49.793L124.334 40.9158V43.9293C124.334 46.1569 125.599 47.5958 127.561 47.5958C128.449 47.5958 129.446 47.2887 130.441 46.7048L158.058 30.5582C161.099 28.7789 163.481 24.9491 163.481 21.836V18.0227L179.345 8.74985C180.235 8.22962 181.093 7.95293 181.831 7.95293Z" fill="#5EC6BB"/>
<path d="M191.702 15.5736L175.498 25.0485V29.263C175.498 32.1049 173.222 35.741 170.413 37.3847L142.799 53.5313C139.99 55.1723 137.714 54.1982 137.714 51.3563V47.1418L121.512 56.6167C118.384 58.4459 115.848 62.4971 115.848 65.6627L115.848 235.381C115.848 238.549 118.384 239.634 121.512 237.805L191.702 196.762C194.828 194.933 197.364 190.884 197.364 187.716V17.9977C197.364 14.832 194.828 13.7472 191.702 15.5736Z" fill="#F8FBFE"/>
<path d="M153.971 211.506C152.042 211.506 150.744 210.153 150.744 207.734V199.169C150.744 195.564 153.629 190.951 157.192 188.87L197.364 165.379V187.005L157.192 210.496C156.02 211.179 154.919 211.506 153.971 211.506ZM115.848 205.778V165.382L168.79 134.425C169.965 133.739 171.063 133.412 172.011 133.412C173.94 133.412 175.238 134.766 175.238 137.184V164.519C175.238 168.127 172.353 172.737 168.79 174.821L115.848 205.778ZM172.511 125.631C170.582 125.631 169.285 124.278 169.285 121.859V113.295C169.285 109.689 172.17 105.076 175.733 102.993L197.364 90.3438V111.969L175.733 124.618C174.558 125.305 173.459 125.631 172.511 125.631ZM147.113 110.47C145.184 110.47 143.883 109.116 143.883 106.698V98.1334C143.883 94.5278 146.771 89.9149 150.331 87.8339L197.364 60.3307V81.9564L150.331 109.457C149.159 110.143 148.061 110.47 147.113 110.47ZM115.848 99.3206V77.6949L168.79 46.7382C169.965 46.052 171.063 45.7254 172.011 45.7254C173.94 45.7254 175.238 47.0786 175.238 49.4999V58.0616C175.238 61.6701 172.353 66.2802 168.79 68.3639L115.848 99.3206Z" fill="#DBDFE9"/>
<path d="M213.552 88.6003L164.107 117.512C160.547 119.596 157.659 118.359 157.659 114.753V106.189C157.659 102.583 160.547 97.97 164.107 95.8863L213.552 66.9746C217.115 64.8936 220 66.1278 220 69.7362V78.298C220 81.9064 217.115 86.5193 213.552 88.6003Z" fill="#4674CC"/>
<path d="M182.566 76.4191L127.236 108.773C123.676 110.854 120.788 109.62 120.788 106.011V97.447C120.788 93.8413 123.676 89.2284 127.236 87.1475L182.566 54.7934C186.129 52.7097 189.014 53.9466 189.014 57.5523V66.1168C189.014 69.7252 186.129 74.3354 182.566 76.4191Z" fill="#5EC6BB"/>
<path d="M182.566 182.876L127.236 215.23C123.676 217.311 120.788 216.077 120.788 212.469V185.134C120.788 181.528 123.676 176.916 127.236 174.835L182.566 142.48C186.129 140.397 189.014 141.634 189.014 145.239V172.574C189.014 176.182 186.129 180.792 182.566 182.876Z" fill="#5EC6BB"/>
<path d="M213.552 118.613L189.506 132.674C185.946 134.757 183.058 133.52 183.058 129.915V121.35C183.058 117.744 185.946 113.132 189.506 111.048L213.552 96.9877C217.115 94.9068 220 96.1409 220 99.7494V108.314C220 111.92 217.115 116.532 213.552 118.613Z" fill="#4674CC"/>
<path d="M213.552 193.649L170.965 218.551C167.405 220.632 164.517 219.395 164.517 215.789V207.225C164.517 203.619 167.405 199.006 170.965 196.925L213.552 172.023C217.115 169.939 220 171.176 220 174.782V183.347C220 186.952 217.115 191.565 213.552 193.649Z" fill="#4674CC"/>
<path d="M209.612 79.5902C211.221 78.6494 212.525 76.5657 212.525 74.9358C212.525 73.3032 211.221 72.7469 209.612 73.6878C208 74.6286 206.697 76.7123 206.697 78.345C206.697 79.9749 208 80.5338 209.612 79.5902Z" fill="#F8FBFE"/>
<path d="M209.612 80.7968C206.456 82.6426 203.902 86.2925 203.902 88.949L215.32 82.2718C215.32 79.6125 212.765 78.9539 209.612 80.7968Z" fill="#F8FBFE"/>
<path d="M209.612 184.893C211.221 183.952 212.525 181.869 212.525 180.236C212.525 178.606 211.221 178.047 209.612 178.991C208 179.932 206.697 182.015 206.697 183.645C206.697 185.275 208 185.834 209.612 184.893Z" fill="#F8FBFE"/>
<path d="M209.612 186.1C206.456 187.946 203.902 191.593 203.902 194.252L215.32 187.575C215.32 184.916 212.765 184.257 209.612 186.1Z" fill="#F8FBFE"/>
<path d="M129.078 97.0791C128.14 97.627 127.381 97.3004 127.381 96.3513C127.381 95.4021 128.14 94.1901 129.078 93.6394C130.015 93.0915 130.777 93.418 130.777 94.3672C130.777 95.3163 130.015 96.5312 129.078 97.0791ZM134.307 92.9974V91.6083L133.094 92.1202C132.99 91.6941 132.796 91.351 132.536 91.0936L133.261 89.6629L132.291 89.2479L131.293 90.5623C130.889 90.5346 130.441 90.6038 129.957 90.7781L129.763 89.6629L128.392 90.4654L128.198 91.8075C127.717 92.1949 127.266 92.6543 126.864 93.1524L125.867 93.003L124.897 94.5526L125.619 95.1392C125.362 95.6982 125.168 96.2655 125.061 96.8162L123.851 97.721V99.1102L125.061 98.5983C125.168 99.0272 125.362 99.3675 125.619 99.6249L124.897 101.058L125.867 101.473L126.864 100.159C127.266 100.184 127.717 100.117 128.198 99.9403L128.392 101.056L129.763 100.253L129.957 98.9137C130.441 98.5235 130.889 98.0669 131.293 97.5688L132.291 97.7183L133.261 96.1659L132.536 95.5792C132.796 95.0203 132.99 94.453 133.094 93.9023L134.307 92.9974Z" fill="#F8FBFE"/>
<path d="M136.285 98.5374C135.017 99.2652 134.001 98.8086 134.012 97.5191C134.025 96.2296 135.061 94.5914 136.329 93.8636C137.596 93.1358 138.613 93.5924 138.599 94.8819C138.588 96.1714 137.553 97.8068 136.285 98.5374ZM140.386 94.3977L140.397 93.3046L139.452 93.6948C139.372 93.36 139.225 93.0888 139.028 92.884L139.599 91.7661L138.848 91.4285L138.064 92.4523C137.75 92.4274 137.403 92.4745 137.025 92.6101L136.883 91.7301L135.81 92.3472L135.651 93.3987C135.271 93.7003 134.919 94.0545 134.602 94.442L133.829 94.3146L133.064 95.5239L133.621 95.9916C133.416 96.4288 133.261 96.8743 133.176 97.306L132.225 98.0033L132.217 99.0964L133.162 98.7062C133.241 99.0411 133.389 99.3122 133.586 99.517L133.015 100.635L133.766 100.973L134.55 99.9487C134.864 99.9736 135.211 99.9265 135.588 99.7909L135.73 100.671L136.804 100.054L136.963 99.0023C137.342 98.7007 137.695 98.3465 138.012 97.9591L138.785 98.0863L139.55 96.8771L138.993 96.4094C139.198 95.9722 139.353 95.5267 139.438 95.095L140.386 94.3977Z" fill="#F8FBFE"/>
<path d="M140.113 89.1649C139.739 89.3807 139.438 89.2451 139.441 88.8633C139.444 88.4814 139.752 87.9971 140.127 87.7813C140.501 87.5654 140.802 87.701 140.799 88.0829C140.796 88.4648 140.487 88.949 140.113 89.1649ZM142.952 87.2223L142.96 86.4641L142.304 86.7353L142.009 86.1708L142.405 85.3932L141.884 85.1607L141.34 85.8719C141.121 85.8526 140.881 85.8857 140.619 85.9798L140.52 85.3711L139.774 85.7972L139.665 86.5278C139.4 86.7381 139.157 86.9843 138.936 87.2528L138.4 87.1642L137.867 88.0027L138.255 88.3292C138.113 88.6308 138.007 88.9407 137.946 89.2396L137.288 89.7239L137.28 90.4821L137.936 90.2109L138.231 90.7754L137.834 91.553L138.356 91.7854L138.9 91.0742C139.119 91.0936 139.359 91.0576 139.621 90.9663L139.72 91.5751L140.466 91.149L140.575 90.4184C140.84 90.2081 141.083 89.9618 141.304 89.6934L141.84 89.782L142.373 88.9435L141.985 88.617C142.127 88.3126 142.233 88.0054 142.293 87.7066L142.952 87.2223Z" fill="#F8FBFE"/>
<path d="M129.078 185.704C128.14 186.252 127.381 185.926 127.381 184.976C127.381 184.027 128.14 182.815 129.078 182.265C130.015 181.717 130.777 182.043 130.777 182.992C130.777 183.941 130.015 185.156 129.078 185.704ZM134.307 181.623V180.233L133.094 180.745C132.99 180.319 132.796 179.976 132.536 179.719L133.261 178.288L132.291 177.873L131.293 179.187C130.889 179.16 130.441 179.226 129.957 179.403L129.763 178.288L128.392 179.091L128.198 180.433C127.717 180.82 127.266 181.279 126.864 181.778L125.867 181.628L124.897 183.178L125.619 183.764C125.362 184.323 125.168 184.891 125.061 185.441L123.851 186.346V187.735L125.061 187.223C125.168 187.652 125.362 187.993 125.619 188.25L124.897 189.683L125.867 190.098L126.864 188.784C127.266 188.809 127.717 188.743 128.198 188.565L128.392 189.681L129.763 188.878L129.957 187.539C130.441 187.149 130.889 186.692 131.293 186.194L132.291 186.343L133.261 184.791L132.536 184.204C132.796 183.645 132.99 183.078 133.094 182.527L134.307 181.623Z" fill="#F8FBFE"/>
<path d="M136.285 187.162C135.017 187.89 134.001 187.434 134.012 186.144C134.025 184.855 135.061 183.216 136.329 182.489C137.596 181.761 138.613 182.217 138.599 183.507C138.588 184.796 137.553 186.432 136.285 187.162ZM140.386 183.023L140.397 181.93L139.452 182.32C139.372 181.985 139.225 181.714 139.028 181.509L139.599 180.391L138.848 180.053L138.064 181.077C137.75 181.052 137.403 181.099 137.025 181.235L136.883 180.355L135.81 180.972L135.651 182.024C135.271 182.325 134.919 182.68 134.602 183.067L133.829 182.94L133.064 184.149L133.621 184.617C133.416 185.054 133.261 185.499 133.176 185.931L132.225 186.628L132.217 187.721L133.162 187.331C133.241 187.666 133.389 187.937 133.586 188.142L133.015 189.26L133.766 189.598L134.55 188.574C134.864 188.599 135.211 188.551 135.588 188.416L135.73 189.296L136.804 188.679L136.963 187.627C137.342 187.326 137.695 186.971 138.012 186.584L138.785 186.711L139.55 185.502L138.993 185.034C139.198 184.597 139.353 184.152 139.438 183.72L140.386 183.023Z" fill="#F8FBFE"/>
<path d="M140.113 177.79C139.739 178.006 139.438 177.87 139.441 177.488C139.444 177.107 139.752 176.622 140.127 176.406C140.501 176.191 140.802 176.326 140.799 176.708C140.796 177.09 140.487 177.574 140.113 177.79ZM142.952 175.847L142.96 175.089L142.304 175.36L142.009 174.796L142.405 174.018L141.884 173.786L141.34 174.494C141.121 174.478 140.881 174.511 140.619 174.605L140.52 173.996L139.774 174.422L139.665 175.153C139.4 175.363 139.157 175.609 138.936 175.878L138.4 175.789L137.867 176.628L138.255 176.954C138.113 177.256 138.007 177.566 137.946 177.865L137.288 178.349L137.28 179.107L137.936 178.836L138.231 179.401L137.834 180.178L138.356 180.411L138.9 179.699C139.119 179.719 139.359 179.683 139.621 179.591L139.72 180.2L140.466 179.774L140.575 179.044C140.84 178.833 141.083 178.587 141.304 178.319L141.84 178.407L142.373 177.569L141.985 177.242C142.127 176.938 142.233 176.631 142.293 176.332L142.952 175.847Z" fill="#F8FBFE"/>
<path d="M145.93 81.7183V82.8583L151.954 79.3357V78.1928L145.93 81.7183Z" fill="#F8FBFE"/>
<path d="M156.831 76.4827L153.468 78.4502V77.3101L156.831 75.3426V76.4827Z" fill="#F8FBFE"/>
<path d="M161.214 73.9204L158.345 75.5973V74.4573L161.214 72.7803V73.9204Z" fill="#F8FBFE"/>
<path d="M146.107 84.7097V85.8498L149.924 83.6194V82.4794L146.107 84.7097Z" fill="#F8FBFE"/>
<path d="M154.394 81.0043L151.435 82.7338V81.5938L154.394 79.8643V81.0043Z" fill="#F8FBFE"/>
<path d="M164.58 75.0493L155.908 80.1189V78.9788L164.58 73.9065V75.0493Z" fill="#F8FBFE"/>
<path d="M145.93 87.9113V89.0514L151.954 85.5287V84.3859L145.93 87.9113Z" fill="#F8FBFE"/>
<path d="M156.831 82.6756L153.468 84.6431V83.503L156.831 81.5356V82.6756Z" fill="#F8FBFE"/>
<path d="M161.214 80.1133L158.345 81.7903V80.6502L161.214 78.9732V80.1133Z" fill="#F8FBFE"/>
<path d="M146.107 90.9025V92.0426L149.924 89.8122V88.6722L146.107 90.9025Z" fill="#F8FBFE"/>
<path d="M154.394 87.1973L151.435 88.9268V87.7867L154.394 86.0572V87.1973Z" fill="#F8FBFE"/>
<path d="M165.331 80.8024L155.908 86.3119V85.1718L165.331 79.6623V80.8024Z" fill="#F8FBFE"/>
<path d="M167.949 69.9826L162.714 73.0431V71.903L167.949 68.8425V69.9826Z" fill="#F8FBFE"/>
<path d="M172.867 67.1074L169.46 69.097V67.9569L172.867 65.9673V67.1074Z" fill="#F8FBFE"/>
<path d="M182.847 61.2714L174.38 66.2219V65.0819L182.847 60.1313V61.2714Z" fill="#F8FBFE"/>
<path d="M170.847 71.3829L166.08 74.1722V73.0321L170.847 70.2428V71.3829Z" fill="#F8FBFE"/>
<path d="M175.768 68.5077L172.361 70.4973V69.3572L175.768 67.3676V68.5077Z" fill="#F8FBFE"/>
<path d="M182.735 64.4344L177.279 67.6222V66.4821L182.735 63.2915V64.4344Z" fill="#F8FBFE"/>
<path d="M167.949 76.1756L162.714 79.2361V78.096L167.949 75.0355V76.1756Z" fill="#F8FBFE"/>
<path d="M172.867 73.3005L169.46 75.2901V74.15L172.867 72.1604V73.3005Z" fill="#F8FBFE"/>
<path d="M181.443 68.2863L174.38 72.415V71.2749L181.443 67.1435V68.2863Z" fill="#F8FBFE"/>
<path d="M170.847 77.5758L166.828 79.9251V78.785L170.847 76.4357V77.5758Z" fill="#F8FBFE"/>
<path d="M175.768 74.7007L172.361 76.6903V75.5502L175.768 73.5605V74.7007Z" fill="#F8FBFE"/>
<path d="M179.612 72.4511L177.279 73.8153V72.6752L179.612 71.311V72.4511Z" fill="#F8FBFE"/>
<path d="M145.93 168.31V169.45L151.954 165.927V164.787L145.93 168.31Z" fill="#F8FBFE"/>
<path d="M156.831 163.074L153.468 165.041V163.901L156.831 161.934V163.074Z" fill="#F8FBFE"/>
<path d="M161.214 160.512L158.345 162.191V161.048L161.214 159.371V160.512Z" fill="#F8FBFE"/>
<path d="M146.107 171.301V172.441L149.924 170.211V169.071L146.107 171.301Z" fill="#F8FBFE"/>
<path d="M154.394 167.598L151.435 169.325V168.185L154.394 166.455V167.598Z" fill="#F8FBFE"/>
<path d="M163.831 162.078L155.908 166.713V165.573L163.831 160.938V162.078Z" fill="#F8FBFE"/>
<path d="M145.93 174.503V175.643L151.954 172.12V170.98L145.93 174.503Z" fill="#F8FBFE"/>
<path d="M156.831 169.267L153.468 171.234V170.094L156.831 168.127V169.267Z" fill="#F8FBFE"/>
<path d="M161.214 166.705L158.345 168.384V167.241L161.214 165.564V166.705Z" fill="#F8FBFE"/>
<path d="M146.107 177.494V178.634L149.924 176.404V175.263L146.107 177.494Z" fill="#F8FBFE"/>
<path d="M154.394 173.791L151.435 175.518V174.378L154.394 172.649V173.791Z" fill="#F8FBFE"/>
<path d="M164.58 167.834L155.908 172.906V171.766L164.58 166.693V167.834Z" fill="#F8FBFE"/>
<path d="M145.93 180.695V181.836L151.954 178.313V177.173L145.93 180.695Z" fill="#F8FBFE"/>
<path d="M156.831 175.46L153.468 177.427V176.287L156.831 174.32V175.46Z" fill="#F8FBFE"/>
<path d="M161.214 172.898L158.345 174.575V173.434L161.214 171.758V172.898Z" fill="#F8FBFE"/>
<path d="M146.107 183.687V184.827L149.924 182.597V181.457L146.107 183.687Z" fill="#F8FBFE"/>
<path d="M154.394 179.982L151.435 181.711V180.571L154.394 178.842V179.982Z" fill="#F8FBFE"/>
<path d="M165.331 173.587L155.908 179.099V177.959L165.331 172.446V173.587Z" fill="#F8FBFE"/>
<path d="M167.949 156.577L162.714 159.637V158.494L167.949 155.434V156.577Z" fill="#F8FBFE"/>
<path d="M172.867 153.699L169.46 155.691V154.551L172.867 152.559V153.699Z" fill="#F8FBFE"/>
<path d="M183.919 147.237L174.38 152.813V151.673L183.919 146.095V147.237Z" fill="#F8FBFE"/>
<path d="M170.848 157.977L165.331 161.203V160.06L170.848 156.834V157.977Z" fill="#F8FBFE"/>
<path d="M175.768 155.099L172.361 157.091V155.951L175.768 153.959V155.099Z" fill="#F8FBFE"/>
<path d="M181.443 151.781L177.279 154.213V153.073L181.443 150.641V151.781Z" fill="#F8FBFE"/>
<path d="M167.949 162.767L162.714 165.83V164.687L167.949 161.627V162.767Z" fill="#F8FBFE"/>
<path d="M172.867 159.892L169.46 161.884V160.744L172.867 158.752V159.892Z" fill="#F8FBFE"/>
<path d="M179.828 155.821L174.38 159.006V157.866L179.828 154.681V155.821Z" fill="#F8FBFE"/>
<path d="M170.847 164.167L166.08 166.956V165.816L170.847 163.027V164.167Z" fill="#F8FBFE"/>
<path d="M175.768 161.292L172.361 163.284V162.144L175.768 160.152V161.292Z" fill="#F8FBFE"/>
<path d="M182.735 157.219L177.279 160.406V159.266L182.735 156.079V157.219Z" fill="#F8FBFE"/>
<path d="M167.949 168.96L162.714 172.02V170.88L167.949 167.82V168.96Z" fill="#F8FBFE"/>
<path d="M172.867 166.085L169.46 168.077V166.934L172.867 164.945V166.085Z" fill="#F8FBFE"/>
<path d="M181.443 161.07L174.38 165.199V164.059L181.443 159.93V161.07Z" fill="#F8FBFE"/>
<path d="M170.847 170.36L166.828 172.712V171.572L170.847 169.22V170.36Z" fill="#F8FBFE"/>
<path d="M175.768 167.485L172.361 169.477V168.335L175.768 166.345V167.485Z" fill="#F8FBFE"/>
<path d="M179.612 165.238L177.279 166.599V165.459L179.612 164.095V165.238Z" fill="#F8FBFE"/>
<path d="M200.205 81.6796V82.8196L194.178 86.3451V85.205L200.205 81.6796Z" fill="#F8FBFE"/>
<path d="M189.301 89.1953L192.664 87.2278V86.0878L189.301 88.0552V89.1953Z" fill="#F8FBFE"/>
<path d="M184.918 91.7576L187.787 90.0807V88.9406L184.918 90.6175V91.7576Z" fill="#F8FBFE"/>
<path d="M200.025 84.881V86.0211L196.211 88.2515V87.1114L200.025 84.881Z" fill="#F8FBFE"/>
<path d="M191.741 90.8666L194.697 89.1371V87.997L191.741 89.7265V90.8666Z" fill="#F8FBFE"/>
<path d="M182.301 96.3844L190.227 91.7521V90.612L182.301 95.2443V96.3844Z" fill="#F8FBFE"/>
<path d="M200.205 87.8726V89.0127L194.178 92.5381V91.3953L200.205 87.8726Z" fill="#F8FBFE"/>
<path d="M189.301 95.3884L192.664 93.4209V92.2808L189.301 94.2483V95.3884Z" fill="#F8FBFE"/>
<path d="M184.918 97.9506L187.787 96.2737V95.1336L184.918 96.8105V97.9506Z" fill="#F8FBFE"/>
<path d="M178.186 95.6954L183.421 92.6348V91.4947L178.186 94.5553V95.6954Z" fill="#F8FBFE"/>
<path d="M173.268 98.5706L176.673 96.581V95.4409L173.268 97.4305V98.5706Z" fill="#F8FBFE"/>
<path d="M163.826 104.094L171.755 99.4561V98.316L163.826 102.954V104.094Z" fill="#F8FBFE"/>
<path d="M175.285 100.488L180.804 97.2616V96.1215L175.285 99.3481V100.488Z" fill="#F8FBFE"/>
<path d="M170.367 103.363L173.771 101.374V100.234L170.367 102.223V103.363Z" fill="#F8FBFE"/>
<path d="M166.301 105.74L168.853 104.249V103.109L166.301 104.6V105.74Z" fill="#F8FBFE"/>
<path d="M178.186 101.888L183.421 98.8278V97.6877L178.186 100.748V101.888Z" fill="#F8FBFE"/>
<path d="M173.268 104.764L176.673 102.774V101.634L173.268 103.623V104.764Z" fill="#F8FBFE"/>
<path d="M167.916 107.893L171.755 105.649V104.509L167.916 106.753V107.893Z" fill="#F8FBFE"/>
<path d="M124.914 202.626V203.766L130.938 200.24V199.1L124.914 202.626Z" fill="#F8FBFE"/>
<path d="M135.815 197.39L132.452 199.357V198.215L135.815 196.25V197.39Z" fill="#F8FBFE"/>
<path d="M140.198 194.828L137.329 196.505V195.364L140.198 193.688V194.828Z" fill="#F8FBFE"/>
<path d="M125.091 205.617V206.757L128.908 204.527V203.387L125.091 205.617Z" fill="#F8FBFE"/>
<path d="M133.378 201.912L130.422 203.641V202.501L133.378 200.771V201.912Z" fill="#F8FBFE"/>
<path d="M142.815 196.394L134.892 201.026V199.886L142.815 195.254V196.394Z" fill="#F8FBFE"/>
<path d="M124.914 208.819V209.959L130.938 206.433V205.293L124.914 208.819Z" fill="#F8FBFE"/>
<path d="M135.815 203.583L132.452 205.55V204.408L135.815 202.443V203.583Z" fill="#F8FBFE"/>
<path d="M140.198 201.021L137.329 202.697V201.557L140.198 199.88V201.021Z" fill="#F8FBFE"/>
<path d="M146.933 190.89L141.698 193.95V192.81L146.933 189.75V190.89Z" fill="#F8FBFE"/>
<path d="M151.851 188.015L148.446 190.004V188.864L151.851 186.875V188.015Z" fill="#F8FBFE"/>
<path d="M149.831 192.29L144.315 195.517V194.377L149.831 191.15V192.29Z" fill="#F8FBFE"/>
<path d="M154.752 189.415L151.345 191.405V190.264L154.752 188.275V189.415Z" fill="#F8FBFE"/>
<path d="M160.427 186.094L156.263 188.53V187.389L160.427 184.954V186.094Z" fill="#F8FBFE"/>
<path d="M146.933 197.083L141.698 200.143V199.003L146.933 195.943V197.083Z" fill="#F8FBFE"/>
<path d="M151.851 194.208L148.446 196.197V195.057L151.851 193.068V194.208Z" fill="#F8FBFE"/>
<path d="M158.812 190.137L153.364 193.322V192.182L158.812 188.997V190.137Z" fill="#F8FBFE"/>
<path d="M153.46 185.934V187.074L167.036 179.135V177.995L153.46 185.934Z" fill="#F8FBFE"/>
<path d="M171.91 176.282L168.547 178.249V177.109L171.91 175.142V176.282Z" fill="#F8FBFE"/>
<path d="M176.296 173.719L173.424 175.399V174.259L176.296 172.579V173.719Z" fill="#F8FBFE"/>
<path d="M161.79 184.157V185.297L165.003 183.418V182.278L161.79 184.157Z" fill="#F8FBFE"/>
<path d="M169.473 180.806L166.517 182.536V181.393L169.473 179.666V180.806Z" fill="#F8FBFE"/>
<path d="M178.91 175.286L170.987 179.921V178.781L178.91 174.146V175.286Z" fill="#F8FBFE"/>
<path d="M161.009 187.71V188.851L167.036 185.328V184.188L161.009 187.71Z" fill="#F8FBFE"/>
<path d="M171.91 182.475L168.547 184.442V183.302L171.91 181.335V182.475Z" fill="#F8FBFE"/>
<path d="M176.296 179.913L173.424 181.592V180.449L176.296 178.772V179.913Z" fill="#F8FBFE"/>
<path d="M183.028 169.784L177.793 172.845V171.705L183.028 168.642V169.784Z" fill="#F8FBFE"/>
<path d="M214.973 101.661V102.804L208.948 106.327V105.187L214.973 101.661Z" fill="#F8FBFE"/>
<path d="M204.071 109.177L207.434 107.213V106.072L204.071 108.037V109.177Z" fill="#F8FBFE"/>
<path d="M199.689 111.742L202.558 110.063V108.923L199.689 110.6V111.742Z" fill="#F8FBFE"/>
<path d="M214.795 104.863V106.003L210.978 108.236V107.094L214.795 104.863Z" fill="#F8FBFE"/>
<path d="M206.508 110.849L209.465 109.119V107.979L206.508 109.709V110.849Z" fill="#F8FBFE"/>
<path d="M197.071 116.369L204.995 111.734V110.594L197.071 115.226V116.369Z" fill="#F8FBFE"/>
<path d="M214.973 107.855V108.997L208.948 112.52V111.38L214.973 107.855Z" fill="#F8FBFE"/>
<path d="M204.071 115.37L207.434 113.406V112.266L204.071 114.23V115.37Z" fill="#F8FBFE"/>
<path d="M199.689 117.935L202.558 116.256V115.116L199.689 116.793V117.935Z" fill="#F8FBFE"/>
<path d="M214.795 111.056V112.196L210.978 114.427V113.287L214.795 111.056Z" fill="#F8FBFE"/>
<path d="M206.508 117.042L209.465 115.312V114.172L206.508 115.901V117.042Z" fill="#F8FBFE"/>
<path d="M196.323 122.999L204.995 117.927V116.787L196.323 121.859V122.999Z" fill="#F8FBFE"/>
<path d="M192.954 115.677L198.189 112.617V111.477L192.954 114.537V115.677Z" fill="#F8FBFE"/>
<path d="M188.036 118.555L191.44 116.563V115.423L188.036 117.415V118.555Z" fill="#F8FBFE"/>
<path d="M190.055 120.47L195.571 117.244V116.104L190.055 119.33V120.47Z" fill="#F8FBFE"/>
<path d="M192.954 121.87L198.189 118.81V117.67L192.954 120.73V121.87Z" fill="#F8FBFE"/>
<path d="M200.323 185.203V186.343L194.298 189.866V188.726L200.323 185.203Z" fill="#F8FBFE"/>
<path d="M189.421 192.719L192.784 190.751V189.611L189.421 191.579V192.719Z" fill="#F8FBFE"/>
<path d="M185.039 195.281L187.908 193.605V192.464L185.039 194.141V195.281Z" fill="#F8FBFE"/>
<path d="M200.145 188.405V189.545L196.331 191.775V190.635L200.145 188.405Z" fill="#F8FBFE"/>
<path d="M191.858 194.39L194.817 192.661V191.521L191.858 193.25V194.39Z" fill="#F8FBFE"/>
<path d="M182.421 199.908L190.345 195.273V194.133L182.421 198.768V199.908Z" fill="#F8FBFE"/>
<path d="M200.323 191.396V192.536L194.298 196.059V194.919L200.323 191.396Z" fill="#F8FBFE"/>
<path d="M189.421 198.912L192.784 196.945V195.804L189.421 197.772V198.912Z" fill="#F8FBFE"/>
<path d="M185.039 201.474L187.908 199.797V198.657L185.039 200.334V201.474Z" fill="#F8FBFE"/>
<path d="M200.145 194.598V195.738L196.331 197.968V196.828L200.145 194.598Z" fill="#F8FBFE"/>
<path d="M191.858 200.583L194.817 198.854V197.714L191.858 199.44V200.583Z" fill="#F8FBFE"/>
<path d="M181.672 206.538L190.345 201.466V200.326L181.672 205.398V206.538Z" fill="#F8FBFE"/>
<path d="M178.307 199.219L183.539 196.159V195.019L178.307 198.079V199.219Z" fill="#F8FBFE"/>
<path d="M170.367 203.86L176.793 200.105V198.962L170.367 202.72V203.86Z" fill="#F8FBFE"/>
<path d="M175.405 204.012L180.921 200.785V199.645L175.405 202.872V204.012Z" fill="#F8FBFE"/>
<path d="M170.487 206.887L173.891 204.898V203.755L170.487 205.747V206.887Z" fill="#F8FBFE"/>
<path d="M178.307 205.412L183.539 202.352V201.211L178.307 204.272V205.412Z" fill="#F8FBFE"/>
<path d="M173.386 208.287L176.793 206.298V205.155L173.386 207.147V208.287Z" fill="#F8FBFE"/>
<path d="M175.405 210.205L180.173 207.416V206.275L175.405 209.065V210.205Z" fill="#F8FBFE"/>
</svg>
