<svg width="250" height="220" viewBox="0 0 250 220" fill="none" xmlns="http://www.w3.org/2000/svg">
<path d="M166.15 219.634C163.511 219.634 160.882 219.059 158.873 217.897L3.02256 127.794C-1.02559 125.451 -1.00382 121.656 3.06606 119.317L9.07926 115.862L9.06993 123.705C9.07304 125.229 10.0789 126.752 12.0905 127.914L167.941 218.021C169.217 218.756 170.744 219.263 172.368 219.535C171.828 219.523 171.288 219.517 170.747 219.517C169.524 219.517 168.301 219.551 167.081 219.612C166.771 219.628 166.46 219.634 166.15 219.634ZM249.978 177.079C249.984 176.99 249.987 176.897 249.987 176.807L249.991 176.418C250.006 176.641 250.003 176.86 249.978 177.079Z" fill="#25306C"/>
<path d="M175.28 220C174.299 220 173.315 219.919 172.368 219.758C170.744 219.485 169.217 218.976 167.941 218.238L12.0905 127.774C10.0789 126.607 9.07304 125.077 9.06993 123.548L9.07926 115.673L9.08236 114.963C9.08857 116.489 10.0944 118.016 12.1029 119.182L167.953 209.643C169.974 210.819 172.632 211.406 175.292 211.406C177.953 211.406 180.616 210.819 182.65 209.643L246.933 172.551C248.969 171.375 249.994 169.833 250 168.294L249.99 176.47L249.987 176.861C249.987 176.951 249.984 177.044 249.978 177.134C249.869 178.592 248.848 180.032 246.92 181.145L182.64 218.238C180.604 219.411 177.94 220 175.28 220ZM250 168.269C250 168.269 250 168.269 250 168.266V168.269Z" fill="url(#paint0_linear_4_7465)"/>
<path d="M157.258 211.574L155.242 210.391V195.454L157.258 196.621V211.574Z" fill="#C8C4BC"/>
<path d="M25.2016 135.004L23.1855 133.867V119.892L25.2016 121.021V135.004Z" fill="#C8C4BC"/>
<path d="M12.1415 110.514C8.06834 112.871 8.04657 116.693 12.0949 119.052L167.951 209.807C171.996 212.163 178.578 212.163 182.648 209.807L246.933 172.594C251.003 170.238 251.025 166.416 246.98 164.059L91.1267 73.3018C87.0784 70.9423 80.4968 70.9423 76.4237 73.3018L12.1415 110.514Z" fill="#E9EFF9"/>
<path d="M175.178 210.567C177.823 210.567 180.304 209.975 182.162 208.899L246.288 171.84C248.029 170.836 248.989 169.543 248.992 168.198C248.992 166.862 248.051 165.579 246.335 164.583L90.8564 74.2012C89.0106 73.1287 86.5392 72.5397 83.8944 72.5397C81.2465 72.5397 78.7689 73.1287 76.9107 74.2012L12.7843 111.26C11.0407 112.267 10.0837 113.56 10.0806 114.905C10.0806 116.238 11.0222 117.525 12.7379 118.523L168.216 208.902C170.059 209.975 172.533 210.567 175.178 210.567Z" fill="#293E90"/>
<path d="M117.358 186.71L136.674 198.092C138.022 198.885 139.113 198.412 139.113 197.04C139.113 195.665 138.022 193.907 136.674 193.115L117.358 181.732C116.01 180.943 114.919 181.412 114.919 182.784C114.919 184.16 116.01 185.917 117.358 186.71Z" fill="#BAC0CC"/>
<path d="M201.148 203.321C200.928 203.772 201.06 204.135 201.436 204.135C201.815 204.135 202.298 203.772 202.514 203.321C202.733 202.87 202.605 202.507 202.226 202.507C201.85 202.507 201.367 202.87 201.148 203.321ZM197.642 205.129C197.422 205.579 197.554 205.943 197.93 205.943C198.309 205.943 198.792 205.579 199.008 205.129C199.227 204.678 199.099 204.314 198.719 204.314C198.343 204.314 197.861 204.678 197.642 205.129ZM194.135 206.937C193.919 207.387 194.048 207.751 194.424 207.751C194.803 207.751 195.285 207.387 195.505 206.937C195.721 206.486 195.592 206.122 195.213 206.122C194.837 206.122 194.355 206.486 194.135 206.937ZM191.707 207.93C192.086 207.93 192.214 208.294 191.998 208.745C191.779 209.195 191.296 209.559 190.92 209.559C190.541 209.559 190.413 209.195 190.629 208.745C190.848 208.294 191.331 207.93 191.707 207.93Z" fill="#7F899F"/>
<path d="M236.43 183.171C236.211 183.622 236.342 183.985 236.718 183.985C237.097 183.985 237.58 183.622 237.796 183.171C238.016 182.72 237.887 182.357 237.508 182.357C237.132 182.357 236.649 182.72 236.43 183.171ZM232.924 184.979C232.708 185.427 232.836 185.793 233.212 185.793C233.591 185.793 234.074 185.427 234.29 184.979C234.509 184.528 234.381 184.165 234.002 184.165C233.626 184.165 233.143 184.528 232.924 184.979ZM229.418 186.787C229.201 187.235 229.33 187.601 229.706 187.601C230.085 187.601 230.568 187.235 230.787 186.787C231.003 186.336 230.875 185.972 230.495 185.972C230.119 185.972 229.637 186.336 229.418 186.787ZM226.989 187.78C227.368 187.78 227.497 188.144 227.281 188.595C227.061 189.045 226.579 189.409 226.203 189.409C225.824 189.409 225.695 189.045 225.911 188.595C226.131 188.144 226.613 187.78 226.989 187.78Z" fill="#7F899F"/>
<path d="M210.243 199.26L217.18 195.559C218.045 195.094 218.75 194.071 218.75 193.268C218.75 192.469 218.045 192.193 217.18 192.658L210.243 196.358C209.374 196.82 208.669 197.843 208.669 198.646C208.669 199.449 209.374 199.721 210.243 199.26Z" fill="#7F899F"/>
<path d="M46.7251 142.057L47.379 141.465C46.8463 140.979 46.3646 140.934 46.0137 141.254L45.3629 141.851C45.7106 141.53 46.1923 141.575 46.7251 142.057Z" fill="#D9DDE7"/>
<path d="M67.8841 154.147L68.5484 153.752L47.0354 141.049L46.371 141.44L67.8841 154.147Z" fill="#D1D4DD"/>
<path d="M68.6061 158.177L69.1176 157.791C69.3884 157.585 69.5564 157.15 69.5564 156.532C69.559 155.287 68.8869 153.764 68.0543 153.139L67.5403 153.528C68.3729 154.156 69.0474 155.673 69.0449 156.921C69.0424 157.539 68.8744 157.974 68.6061 158.177Z" fill="#D9DDE7"/>
<path d="M47.2235 142.303C46.2022 141.73 45.366 142.192 45.3629 143.334C45.3598 144.476 46.1898 145.866 47.2111 146.442L67.6959 157.93C68.7172 158.503 69.5534 158.044 69.5564 156.902C69.5595 155.757 68.7295 154.367 67.7051 153.791L47.2235 142.303Z" fill="#A1AABE"/>
<path d="M39.5394 105.53L69.3841 88.2961C72.3021 86.6134 72.3021 83.8813 69.3841 82.1955L66.6181 80.5996L26.2097 103.931L28.9756 105.53C31.8936 107.216 36.6214 107.216 39.5394 105.53Z" fill="#1C181B"/>
<path d="M43.6918 97.5141C44.1489 97.798 44.8931 97.798 45.3531 97.5141L56.1066 90.9013C56.5666 90.6204 56.5666 90.1617 56.1066 89.8777C55.6466 89.5969 54.9023 89.5969 54.4452 89.8777L43.6918 96.4936C43.2318 96.7745 43.2318 97.2332 43.6918 97.5141Z" fill="#161413"/>
<path d="M35.3509 100.489C35.0642 101.027 35.702 101.58 36.7781 101.722C37.8509 101.867 38.9559 101.546 39.2459 101.011C39.5326 100.472 38.8947 99.9194 37.8186 99.7771C36.7458 99.632 35.6408 99.9502 35.3509 100.489Z" fill="#161413"/>
<path d="M83.6382 62.1501C81.041 62.1501 78.6088 62.7279 76.7933 63.7719L12.3082 100.915C10.6702 101.86 9.76704 103.049 9.76704 104.267C9.76393 105.476 10.6515 106.657 12.2646 107.595L168.605 198.18C170.408 199.224 172.831 199.799 175.431 199.799C178.035 199.799 180.464 199.224 182.279 198.177L246.761 161.034C248.402 160.092 249.306 158.902 249.309 157.681C249.309 156.473 248.418 155.292 246.811 154.357L90.4707 63.7719C88.6676 62.7279 86.2385 62.1501 83.6382 62.1501ZM175.431 200.492C172.71 200.492 170.165 199.883 168.256 198.777L11.919 108.191C10.0785 107.129 9.06947 105.734 9.07259 104.267C9.07259 102.795 10.0972 101.39 11.9625 100.315L76.4476 63.1722C78.3659 62.0662 80.9195 61.4572 83.6382 61.4572C86.36 61.4572 88.9104 62.0662 90.8163 63.1754L247.157 153.761C248.991 154.826 250 156.218 250 157.681C249.997 159.16 248.969 160.565 247.11 161.633L182.625 198.777C180.707 199.883 178.153 200.492 175.431 200.492Z" fill="#B3E5E5"/>
<path d="M175.178 188.402C177.823 188.402 180.304 187.81 182.162 186.737L246.288 149.678C248.029 148.671 248.989 147.378 248.992 146.033C248.992 144.7 248.051 143.417 246.335 142.418L90.8564 52.0394C89.0106 50.9638 86.5392 50.3748 83.8944 50.3748C81.2465 50.3748 78.7689 50.9638 76.9107 52.0394L12.7843 89.098C11.0407 90.1024 10.0837 91.3981 10.0806 92.7404C10.0806 94.0764 11.0222 95.3598 12.7379 96.3579L168.216 186.737C170.059 187.81 172.533 188.402 175.178 188.402Z" fill="#4A6ABC"/>
<path d="M130.6 75.5622L108.871 62.617L122.886 54.3206C123.921 53.704 125.278 53.3973 126.631 53.3973C127.985 53.3973 129.338 53.704 130.367 54.3206L144.631 62.8237C146.692 64.0504 146.68 66.039 144.609 67.2657L130.6 75.5622Z" fill="#4674CC"/>
<path d="M126.024 76.5696C124.693 76.5696 123.369 76.259 122.356 75.6444L108.364 67.1233C106.342 65.8939 106.354 63.9011 108.386 62.6718L108.725 62.4647L130.04 75.4374L129.695 75.6444C128.679 76.259 127.348 76.5696 126.024 76.5696Z" fill="#69CFF4"/>
<path d="M99.797 57.4272L91.091 52.3487C89.2581 51.2768 86.8041 50.6898 84.1778 50.6898C82.9692 50.6898 81.7975 50.8134 80.7027 51.0512L78.1163 49.5407C76.102 48.3668 76.1144 46.4639 78.1379 45.287L92.1704 37.1503C93.1822 36.5633 94.5076 36.2698 95.8299 36.2698C97.1523 36.2698 98.4716 36.5633 99.4803 37.1503L113.417 45.287C115.429 46.4639 115.419 48.3668 113.393 49.5407L99.797 57.4272Z" fill="#66CDDA"/>
<path d="M95.6926 58.4347C94.3662 58.4347 93.0397 58.1342 92.031 57.5329L80.6452 50.745C81.7433 50.5013 82.9186 50.3748 84.131 50.3748C86.7653 50.3748 89.227 50.9761 91.0655 52.0741L99.7984 57.2766L99.3604 57.5329C98.3486 58.1342 97.0191 58.4347 95.6926 58.4347Z" fill="#80D6EE"/>
<path d="M95.7056 93.6971C94.3801 93.6971 93.0609 93.4052 92.0522 92.8186L78.1152 84.7279C76.104 83.5607 76.1132 81.6686 78.1367 80.5014L92.169 72.4107C93.1808 71.8271 94.5063 71.5322 95.8286 71.5322C97.151 71.5322 98.4733 71.8271 99.4789 72.4107L113.416 80.5014C115.43 81.6686 115.418 83.5607 113.394 84.7279L99.3621 92.8216C98.3503 93.4052 97.0279 93.6971 95.7056 93.6971Z" fill="#69CFF4"/>
<path d="M48.8938 68.5097L46.888 67.2994C44.8447 66.0697 44.8572 64.0763 46.9098 62.8466L61.1438 54.3195C62.1701 53.7046 63.5146 53.3973 64.8559 53.3973C66.1973 53.3973 67.5356 53.7046 68.5587 54.3195L70.5645 55.5298L48.8938 68.5097Z" fill="#66CDDA"/>
<path d="M65.2094 75.5622C63.8698 75.5622 62.5301 75.2703 61.5113 74.6833L49.3952 67.7382L71.0385 55.4122L83.1547 62.3573C85.1953 63.5282 85.1829 65.4212 83.1298 66.5889L68.9168 74.6864C67.8918 75.2703 66.5491 75.5622 65.2094 75.5622Z" fill="#80D6EE"/>
<path d="M65.4637 111.832C64.1383 111.832 62.819 111.527 61.8103 110.917L47.8732 102.457C45.862 101.233 45.8713 99.255 47.8948 98.0346L61.9272 89.575C62.9389 88.9647 64.2643 88.6596 65.5867 88.6596C66.909 88.6596 68.2313 88.9647 69.237 89.575L83.174 98.0346C85.1883 99.255 85.176 101.237 83.1525 102.457L69.1201 110.917C68.1084 111.527 66.7861 111.832 65.4637 111.832Z" fill="#69CFF4"/>
<path d="M18.6518 85.6371L16.646 84.5073C14.6028 83.3593 14.6153 81.4984 16.6679 80.3504L30.9019 72.3931C31.9282 71.8191 33.2726 71.5322 34.614 71.5322C35.9553 71.5322 37.2936 71.8191 38.3168 72.3931L40.3226 73.5229L18.6518 85.6371Z" fill="#66CDDA"/>
<path d="M33.9594 93.6971C32.6198 93.6971 31.2832 93.4051 30.2614 92.8181L18.1452 85.8719L39.7885 73.5472L51.9047 80.4933C53.9454 81.6612 53.9329 83.5545 51.8798 84.7255L37.6668 92.8212C36.6418 93.4051 35.2991 93.6971 33.9594 93.6971Z" fill="#80D6EE"/>
<path d="M108.398 62.5893L122.697 70.7332C124.764 71.9111 128.121 71.9111 130.197 70.7363L144.595 62.5893C145.639 61.9988 146.163 61.2227 146.16 60.4497L146.169 63.387C146.169 64.1599 145.649 64.9359 144.601 65.5296L130.204 73.6735C128.128 74.8484 124.774 74.8484 122.707 73.6735L108.407 65.5296C107.379 64.9452 106.867 64.1816 106.864 63.4148L106.855 60.4776C106.858 61.2413 107.372 62.005 108.398 62.5893Z" fill="#B3E5E5"/>
<path d="M126.577 49.3673C125.22 49.3673 123.859 49.6756 122.821 50.2857L108.42 58.7442C106.343 59.9644 106.331 61.9426 108.398 63.1628L122.701 71.6212C123.736 72.2346 125.09 72.5397 126.451 72.5397C127.804 72.5397 129.165 72.2346 130.203 71.6244L144.604 63.1628C146.681 61.9426 146.694 59.9644 144.626 58.7442L130.323 50.2857C129.291 49.6756 127.934 49.3673 126.577 49.3673ZM126.577 50.0834C127.871 50.0834 129.076 50.3756 129.97 50.9055L144.273 59.3639C145.043 59.8167 145.466 60.3787 145.466 60.9438C145.466 61.509 145.021 62.0934 144.251 62.5462L129.85 71.0047C128.95 71.5313 127.745 71.8236 126.451 71.8236C125.153 71.8236 123.948 71.5313 123.055 71.0047L108.751 62.5462C107.981 62.0902 107.558 61.5283 107.558 60.9631C107.558 60.3979 108 59.8167 108.77 59.3639L123.171 50.9055C124.071 50.3756 125.283 50.0834 126.577 50.0834Z" fill="#B3E5E5"/>
<path d="M78.1163 21.2845L92.0504 29.427C94.0643 30.6017 97.3326 30.6017 99.3557 29.427L113.385 21.2845C114.406 20.6941 114.913 19.9183 114.913 19.1424L114.919 22.0791C114.922 22.855 114.412 23.6309 113.394 24.2244L99.3649 32.3667C97.3418 33.5414 94.0705 33.5414 92.0597 32.3637L78.1225 24.2244C77.1233 23.6371 76.6221 22.8736 76.6221 22.11L76.6129 19.1702C76.616 19.9368 77.114 20.7003 78.1163 21.2845Z" fill="#B3E5E5"/>
<path d="M78.1379 17.0304L92.1704 8.9355C94.1939 7.76812 97.466 7.76812 99.4803 8.9355L113.417 17.0272C115.429 18.1977 115.419 20.0901 113.393 21.2574L99.3604 29.3493C97.3368 30.5167 94.0678 30.5167 92.0535 29.3493L78.1163 21.2574C76.102 20.0901 76.1144 18.1978 78.1379 17.0304Z" fill="#4A69BB"/>
<path d="M78.1162 80.7272L92.0492 88.8709C94.063 90.0457 97.3341 90.0457 99.357 88.8709L113.385 80.7272C114.403 80.1336 114.913 79.3576 114.91 78.5846L114.919 81.5218C114.919 82.2978 114.412 83.0738 113.391 83.6644L99.3632 91.8111C97.3402 92.9829 94.0722 92.9829 92.0585 91.808L78.1255 83.6644C77.1232 83.08 76.6252 82.3164 76.6221 81.5496L76.6129 78.6125C76.616 79.3792 77.1171 80.1429 78.1162 80.7272Z" fill="#B3E5E5"/>
<path d="M95.8286 67.5022C94.5063 67.5022 93.1808 67.7941 92.169 68.3778L78.1367 76.4696C76.1132 77.6369 76.104 79.5293 78.1152 80.6997L92.0522 88.7915C93.0609 89.3752 94.3801 89.6671 95.7056 89.6671C97.0279 89.6671 98.3503 89.3752 99.3621 88.7915L113.394 80.6997C115.418 79.5293 115.43 77.6369 113.416 76.4696L99.4789 68.3778C98.4733 67.7941 97.151 67.5022 95.8286 67.5022ZM95.8286 68.1872C97.0895 68.1872 98.2642 68.4638 99.1345 68.9706L113.071 77.0625C113.822 77.4956 114.234 78.0332 114.234 78.577C114.234 79.1146 113.803 79.6737 113.05 80.1068L99.0176 88.1986C98.1442 88.7055 96.9664 88.982 95.7056 88.982C94.4416 88.982 93.2669 88.7055 92.3966 88.1986L78.4596 80.1068C77.7093 79.6737 77.2972 79.133 77.2972 78.5923C77.2972 78.0547 77.7307 77.4956 78.478 77.0625L92.5104 68.9706C93.3869 68.4638 94.5678 68.1872 95.8286 68.1872Z" fill="#B3E5E5"/>
<path d="M46.906 49.4949L61.2067 57.6388C63.2736 58.8137 66.631 58.8137 68.7073 57.6388L83.1028 49.4949C84.1504 48.9044 84.6711 48.1252 84.6711 47.3523L84.6774 50.2895C84.6806 51.0656 84.1599 51.8416 83.1123 52.4321L68.7137 60.576C66.6373 61.7509 63.2799 61.7509 61.2162 60.576L46.9123 52.4321C45.8868 51.8478 45.3724 51.0841 45.3724 50.3174L45.3629 47.3801C45.3661 48.1469 45.8805 48.9105 46.906 49.4949Z" fill="#B3E5E5"/>
<path d="M46.9279 45.2372L61.3293 37.1454C63.406 35.978 66.7641 35.978 68.8314 37.1454L83.1348 45.2372C85.2021 46.4046 85.1895 48.2969 83.1096 49.4674L68.7114 57.5592C66.6347 58.7266 63.2766 58.7266 61.2093 57.5592L46.9059 49.4674C44.8386 48.2969 44.8512 46.4046 46.9279 45.2372Z" fill="#4A69BB"/>
<path d="M47.8743 97.8542L61.8073 105.996C63.821 107.171 67.0921 107.171 69.1151 105.999L83.1433 97.8542C84.1609 97.2638 84.6713 96.4879 84.6683 95.7121L84.6774 98.6487C84.6774 99.4245 84.1702 100.2 83.1495 100.794L69.1243 108.936C67.1014 110.111 63.8302 110.111 61.8165 108.936L47.8835 100.794C46.8844 100.21 46.3833 99.4431 46.3802 98.6796L46.371 95.7399C46.374 96.5065 46.8751 97.27 47.8743 97.8542Z" fill="#B3E5E5"/>
<path d="M65.5867 84.6296C64.2643 84.6296 62.9389 84.9215 61.9272 85.5052L47.8948 93.6001C45.8713 94.7644 45.862 96.6598 47.8732 97.8271L61.8103 105.919C62.819 106.503 64.1413 106.795 65.4637 106.795C66.7861 106.795 68.1084 106.503 69.1201 105.922L83.1525 97.8271C85.176 96.6598 85.1883 94.7674 83.174 93.597L69.237 85.5052C68.2313 84.9215 66.909 84.6296 65.5867 84.6296ZM65.5867 85.3147C66.8475 85.3147 68.0223 85.5912 68.8926 86.0981L82.8296 94.1899C83.58 94.6261 83.9921 95.1637 83.9921 95.7044C83.9921 96.2451 83.5615 96.8011 82.8081 97.2343L68.7757 105.329C67.9023 105.833 66.7246 106.113 65.4637 106.113C64.1998 106.113 63.0281 105.833 62.1547 105.326L48.2177 97.2343C47.4673 96.8011 47.0552 96.2635 47.0552 95.7197C47.0583 95.1821 47.4889 94.6261 48.2392 94.1929L62.2685 86.0981C63.148 85.5942 64.3258 85.3147 65.5867 85.3147Z" fill="#B3E5E5"/>
<path d="M16.6245 78.7149L30.5586 86.8539C32.5724 88.0316 35.8438 88.0317 37.8668 86.857L51.8932 78.7149C52.914 78.1214 53.4212 77.3455 53.4212 76.5696L53.4274 79.5093C53.4305 80.2821 52.9232 81.0611 51.9024 81.6515L37.873 89.7936C35.8499 90.9682 32.5785 90.9682 30.5677 89.7936L16.6337 81.6515C15.6314 81.0673 15.1333 80.3006 15.1302 79.5371L15.121 76.6005C15.124 77.364 15.6252 78.1307 16.6245 78.7149Z" fill="#B3E5E5"/>
<path d="M16.6459 73.8562L30.6779 65.3974C32.7014 64.1738 35.9734 64.1738 37.9877 65.3974L51.9244 73.8562C53.9387 75.0765 53.9263 77.0548 51.8998 78.2783L37.8708 86.7372C35.8473 87.9576 32.5754 87.9576 30.5611 86.734L16.6244 78.2783C14.6101 77.0548 14.6224 75.0765 16.6459 73.8562Z" fill="#4A69BB"/>
<path d="M162.801 93.6971L141.129 81.3727L155.205 73.4156C156.238 72.8317 157.59 72.5397 158.94 72.5397C160.29 72.5397 161.64 72.8317 162.666 73.4156L176.893 81.511C178.949 82.6789 178.936 84.5751 176.871 85.743L162.801 93.6971Z" fill="#4674CC"/>
<path d="M158.361 94.7046C157.025 94.7046 155.695 94.4179 154.678 93.8447L140.627 85.8975C138.6 84.751 138.609 82.8895 140.649 81.746L140.894 81.6071L162.298 93.7059L162.047 93.8477C161.027 94.4179 159.694 94.7046 158.361 94.7046Z" fill="#69CFF4"/>
<path d="M127.964 112.839C126.641 112.839 125.319 112.531 124.313 111.921L110.373 103.463C108.362 102.242 108.371 100.264 110.395 99.044L124.427 90.5855C125.439 89.9722 126.764 89.6671 128.087 89.6671C129.409 89.6671 130.731 89.9722 131.737 90.5855L145.674 99.044C147.688 100.264 147.676 102.242 145.652 103.463L131.62 111.924C130.608 112.531 129.286 112.839 127.964 112.839Z" fill="#69CFF4"/>
<path d="M97.7215 129.967C96.3992 129.967 95.0769 129.675 94.0713 129.091L80.1313 121C78.1201 119.832 78.1293 117.937 80.1528 116.769L94.185 108.678C95.1967 108.091 96.5221 107.802 97.8445 107.802C99.1668 107.802 100.489 108.091 101.495 108.678L115.435 116.769C117.446 117.937 117.434 119.832 115.41 121L101.378 129.091C100.366 129.675 99.0438 129.967 97.7215 129.967Z" fill="#69CFF4"/>
<path d="M193.996 111.832L172.379 99.5392L186.513 91.5485C187.546 90.9659 188.892 90.6746 190.239 90.6746C191.588 90.6746 192.931 90.9659 193.955 91.5485L208.148 99.622C210.196 100.79 210.187 102.679 208.123 103.847L193.996 111.832Z" fill="#4674CC"/>
<path d="M190.697 112.839C189.358 112.839 188.02 112.552 187.002 111.973L172.892 103.995C170.856 102.844 170.865 100.978 172.913 99.8269L173.066 99.742L194.556 111.885L194.398 111.976C193.374 112.552 192.035 112.839 190.697 112.839Z" fill="#69CFF4"/>
<path d="M160.22 130.974C158.898 130.974 157.575 130.683 156.57 130.099L142.632 122.007C140.618 120.84 140.63 118.944 142.654 117.777L156.683 109.685C157.698 109.101 159.021 108.81 160.346 108.81C161.668 108.81 162.988 109.101 163.993 109.685L177.934 117.777C179.945 118.944 179.936 120.84 177.909 122.007L163.876 130.099C162.865 130.683 161.542 130.974 160.22 130.974Z" fill="#69CFF4"/>
<path d="M129.472 148.102C128.115 148.102 126.758 147.81 125.726 147.226L111.422 139.134C109.355 137.967 109.367 136.075 111.444 134.907L125.843 126.812C126.884 126.229 128.241 125.937 129.602 125.937C130.959 125.937 132.313 126.229 133.348 126.812L147.652 134.904C149.716 136.075 149.707 137.967 147.627 139.134L133.225 147.229C132.19 147.81 130.83 148.102 129.472 148.102Z" fill="#69CFF4"/>
<path d="M226.621 130.974L205.645 118.712L219.456 110.692C220.456 110.108 221.765 109.817 223.072 109.817C224.379 109.817 225.682 110.108 226.679 110.692L240.45 118.746C242.441 119.908 242.428 121.792 240.426 122.957L226.621 130.974Z" fill="#4674CC"/>
<path d="M223.035 131.982C221.691 131.982 220.35 131.69 219.325 131.112L205.157 123.102C203.11 121.947 203.122 120.073 205.179 118.918L205.235 118.884L226.815 131.079L226.755 131.115C225.727 131.693 224.379 131.982 223.035 131.982Z" fill="#69CFF4"/>
<path d="M192.481 150.117C191.155 150.117 189.836 149.812 188.827 149.202L174.89 140.743C172.876 139.52 172.889 137.542 174.912 136.321L188.944 127.863C189.956 127.253 191.281 126.944 192.604 126.944C193.926 126.944 195.248 127.253 196.254 127.863L210.191 136.321C212.205 137.542 212.192 139.52 210.166 140.743L196.137 149.202C195.125 149.812 193.8 150.117 192.481 150.117Z" fill="#69CFF4"/>
<path d="M162.238 167.244C160.913 167.244 159.594 166.952 158.585 166.369L144.649 158.277C142.634 157.106 142.647 155.214 144.67 154.047L158.702 145.955C159.714 145.371 161.039 145.079 162.361 145.079C163.684 145.079 165.006 145.371 166.012 145.955L179.948 154.047C181.962 155.214 181.95 157.106 179.927 158.277L165.895 166.369C164.883 166.952 163.558 167.244 162.238 167.244Z" fill="#69CFF4"/>
<path d="M140.656 81.7343L154.955 89.8764C157.022 91.0541 160.379 91.0541 162.455 89.8795L176.853 81.7374C177.897 81.1439 178.421 80.368 178.418 79.5921L178.427 82.5318C178.427 83.3046 177.907 84.0805 176.859 84.674L162.465 92.8161C160.389 93.9907 157.032 93.9907 154.965 92.8161L140.665 84.674C139.64 84.0897 139.126 83.3232 139.122 82.5597L139.113 79.6231C139.116 80.3866 139.63 81.1501 140.656 81.7343Z" fill="#B3E5E5"/>
<path d="M158.834 68.5097C157.477 68.5097 156.117 68.7985 155.078 69.3853L140.677 77.4771C138.6 78.6445 138.591 80.5368 140.655 81.7041L154.958 89.796C155.994 90.3796 157.351 90.6746 158.708 90.6746C160.065 90.6746 161.422 90.3796 162.461 89.799L176.862 81.7072C178.939 80.5368 178.952 78.6445 176.884 77.4771L162.581 69.3853C161.549 68.7985 160.191 68.5066 158.834 68.5097ZM158.834 69.1917C160.128 69.1917 161.334 69.4713 162.227 69.9751L176.531 78.0669C177.301 78.5031 177.724 79.0407 177.724 79.5814C177.724 80.1221 177.282 80.6781 176.509 81.1113L162.107 89.2061C161.211 89.71 160.002 89.9895 158.708 89.9895C157.411 89.9895 156.208 89.71 155.312 89.2061L141.008 81.1143C140.238 80.6781 139.815 80.1405 139.815 79.5968C139.818 79.0592 140.26 78.5031 141.03 78.07L155.429 69.9782C156.328 69.4713 157.54 69.1917 158.834 69.1917Z" fill="#B3E5E5"/>
<path d="M110.374 98.8644L124.31 107.005C126.321 108.18 129.592 108.18 131.615 107.005L145.643 98.8644C146.661 98.271 147.171 97.4953 147.168 96.7196L147.177 99.6588C147.177 100.431 146.67 101.21 145.649 101.801L131.624 109.941C129.601 111.119 126.33 111.119 124.317 109.941L110.384 101.801C109.384 101.216 108.883 100.453 108.88 99.6866L108.871 96.7505C108.874 97.5139 109.375 98.2803 110.374 98.8644Z" fill="#B3E5E5"/>
<path d="M128.087 85.6371C126.764 85.6371 125.439 85.9423 124.427 86.5525L110.395 95.0121C108.371 96.2325 108.362 98.2109 110.373 99.4345L124.313 107.894C125.319 108.504 126.641 108.81 127.964 108.81C129.286 108.81 130.608 108.504 131.62 107.894L145.652 99.4345C147.676 98.2141 147.688 96.2325 145.674 95.0121L131.737 86.5525C130.731 85.939 129.409 85.6371 128.087 85.6371ZM128.087 86.3533C129.347 86.3533 130.522 86.6424 131.393 87.1723L145.33 95.6319C146.08 96.0848 146.492 96.6468 146.492 97.2153C146.492 97.7773 146.061 98.3618 145.308 98.8147L131.276 107.274C130.402 107.804 129.225 108.093 127.964 108.093C126.7 108.093 125.528 107.804 124.658 107.274L110.718 98.8147C109.967 98.3586 109.555 97.7966 109.555 97.2313C109.558 96.6661 109.989 96.0848 110.739 95.6319L124.768 87.1723C125.648 86.6424 126.826 86.3533 128.087 86.3533Z" fill="#B3E5E5"/>
<path d="M80.1295 116.997L94.0667 125.139C96.0774 126.314 99.3487 126.317 101.372 125.139L115.401 116.997C116.419 116.406 116.929 115.627 116.926 114.854L116.935 117.791C116.939 118.567 116.428 119.343 115.407 119.933L101.381 128.079C99.358 129.253 96.0866 129.253 94.0727 128.076L80.1387 119.933C79.1395 119.349 78.6383 118.586 78.6352 117.819L78.629 114.882C78.629 115.649 79.1302 116.412 80.1295 116.997Z" fill="#B3E5E5"/>
<path d="M97.8445 103.772C96.5221 103.772 95.1967 104.064 94.185 104.648L80.1528 112.739C78.1293 113.91 78.1201 115.802 80.1313 116.97L94.0713 125.061C95.0769 125.645 96.3992 125.937 97.7215 125.937C99.0438 125.937 100.366 125.645 101.378 125.061L115.41 116.97C117.434 115.802 117.446 113.91 115.435 112.739L101.495 104.648C100.489 104.064 99.1668 103.772 97.8445 103.772ZM97.8445 104.457C99.1053 104.457 100.28 104.737 101.15 105.24L115.09 113.332C115.838 113.765 116.25 114.306 116.25 114.847C116.25 115.384 115.819 115.944 115.066 116.377L101.037 124.468C100.16 124.975 98.9823 125.255 97.7215 125.255C96.4607 125.255 95.2859 124.975 94.4156 124.468L80.4757 116.377C79.7253 115.944 79.3132 115.403 79.3132 114.862C79.3163 114.325 79.7469 113.765 80.4972 113.332L94.5264 105.24C95.4059 104.737 96.5836 104.457 97.8445 104.457Z" fill="#B3E5E5"/>
<path d="M95.3272 0.683009C94.0529 0.683009 92.7817 0.966574 91.8112 1.53076L77.6605 9.74113C76.7831 10.2523 76.2994 10.9068 76.2994 11.5894C76.2962 12.269 76.7738 12.9267 77.6388 13.4317L91.6934 21.6419C93.6251 22.7702 96.772 22.7734 98.7161 21.6419L112.864 13.4317C113.744 12.9205 114.228 12.2628 114.228 11.5802C114.231 10.9006 113.754 10.2492 112.885 9.74113L98.8339 1.53076C97.8697 0.966574 96.5984 0.683009 95.3272 0.683009ZM95.2001 23.1724C93.8018 23.1724 92.4065 22.8638 91.3461 22.2435L77.2947 14.0301C76.2033 13.3942 75.6048 12.5277 75.6048 11.5894C75.6079 10.6481 76.2125 9.77848 77.3163 9.13949L91.464 0.929267C93.6003 -0.311314 97.0635 -0.308197 99.1811 0.929267L113.233 9.13949C114.321 9.77537 114.922 10.645 114.919 11.5802C114.919 12.5215 114.309 13.3943 113.208 14.0333L99.0603 22.2435C97.9968 22.8638 96.5985 23.1724 95.2001 23.1724Z" fill="#B3E5E5"/>
<path d="M47.4156 37.9519C46.5381 38.4632 46.0544 39.121 46.0544 39.8037C46.0544 40.4833 46.5287 41.1349 47.3939 41.643L61.4465 49.8547C63.3814 50.9801 66.5286 50.9801 68.4728 49.8547L82.6216 41.6399C83.5023 41.1317 83.9859 40.474 83.9859 39.7881C83.989 39.1085 83.5116 38.4569 82.6434 37.9488L68.5907 29.7371C66.6527 28.6085 63.5055 28.6148 61.5675 29.7371L47.4156 37.9519ZM64.9566 51.3823C63.5613 51.3823 62.1628 51.0736 61.1024 50.4532L47.0497 42.2416C45.9582 41.6057 45.3598 40.739 45.3629 39.8037C45.3629 38.8622 45.9676 37.9924 47.0714 37.3501L61.2202 29.1354C63.3566 27.9008 66.8201 27.9009 68.9379 29.1386L82.9906 37.3501C84.079 37.9861 84.6805 38.8528 84.6774 39.7912C84.6774 40.7327 84.0666 41.6026 82.9659 42.2448L68.817 50.4564C67.7535 51.0736 66.3551 51.3823 64.9566 51.3823Z" fill="#B3E5E5"/>
<path d="M34.8417 57.1012C33.5673 57.1012 32.2961 57.3849 31.3224 57.9491L17.1767 66.1631C16.2992 66.6712 15.8124 67.3289 15.8124 68.0116C15.8124 68.6912 16.2869 69.3457 17.152 69.8507L31.2077 78.0647C33.1394 79.19 36.2867 79.19 38.2309 78.0647L52.3796 69.8507C53.2602 69.3426 53.744 68.6849 53.744 67.9991C53.7471 67.3196 53.2696 66.6681 52.4014 66.16L38.3487 57.9491C37.3844 57.3849 36.11 57.1012 34.8417 57.1012ZM34.7177 79.5921C33.3193 79.5921 31.924 79.2835 30.8635 78.6632L16.8078 70.4524C15.7163 69.8134 15.1179 68.9499 15.121 68.0116C15.121 67.0702 15.7287 66.1973 16.8326 65.5583L30.9782 57.3475C33.1146 56.11 36.5782 56.11 38.6929 57.3506L52.7486 65.5614C53.837 66.1973 54.4386 67.0639 54.4355 67.9991C54.4355 68.9436 53.8246 69.8134 52.7239 70.4555L38.5751 78.6663C37.5115 79.2835 36.1131 79.5921 34.7177 79.5921Z" fill="#B3E5E5"/>
<defs>
<linearGradient id="paint0_linear_4_7465" x1="99.1122" y1="110.006" x2="252.873" y2="110.006" gradientUnits="userSpaceOnUse">
<stop stop-color="#A2AABE"/>
<stop offset="0.399015" stop-color="#A2AABE"/>
<stop offset="0.576355" stop-color="#BCC1CD"/>
<stop offset="1" stop-color="#BCC1CD"/>
</linearGradient>
</defs>
</svg>
